%TF.GenerationSoftware,KiCad,Pcbnew,(5.1.12)-1*%
%TF.CreationDate,2021-12-15T12:49:01+01:00*%
%TF.ProjectId,HorseFOT_thomas_v1,486f7273-6546-44f5-945f-74686f6d6173,rev?*%
%TF.SameCoordinates,Original*%
%TF.FileFunction,Other,User*%
%FSLAX46Y46*%
G04 Gerber Fmt 4.6, Leading zero omitted, Abs format (unit mm)*
G04 Created by KiCad (PCBNEW (5.1.12)-1) date 2021-12-15 12:49:01*
%MOMM*%
%LPD*%
G01*
G04 APERTURE LIST*
%ADD10C,0.050000*%
G04 APERTURE END LIST*
D10*
%TO.C,REF\u002A\u002A*%
X141164000Y-45085000D02*
G75*
G03*
X141164000Y-45085000I-3750000J0D01*
G01*
X184471000Y-107823000D02*
G75*
G03*
X184471000Y-107823000I-3750000J0D01*
G01*
%TO.C,R7*%
X160915000Y-101323000D02*
X160915000Y-99083000D01*
X160915000Y-99083000D02*
X165475000Y-99083000D01*
X165475000Y-99083000D02*
X165475000Y-101323000D01*
X165475000Y-101323000D02*
X160915000Y-101323000D01*
%TO.C,J5*%
X143975000Y-41339000D02*
X154475000Y-41339000D01*
X143975000Y-41339000D02*
X143975000Y-49339000D01*
X154475000Y-49339000D02*
X154475000Y-41339000D01*
X154475000Y-49339000D02*
X143975000Y-49339000D01*
%TO.C,J1*%
X133795000Y-59987000D02*
X133795000Y-49487000D01*
X133795000Y-59987000D02*
X141795000Y-59987000D01*
X141795000Y-49487000D02*
X133795000Y-49487000D01*
X141795000Y-49487000D02*
X141795000Y-59987000D01*
%TO.C,C22*%
X163731500Y-90417000D02*
X163731500Y-92717000D01*
X163731500Y-92717000D02*
X158771500Y-92717000D01*
X158771500Y-92717000D02*
X158771500Y-90417000D01*
X158771500Y-90417000D02*
X163731500Y-90417000D01*
%TO.C,C19*%
X163770000Y-85591000D02*
X163770000Y-87891000D01*
X163770000Y-87891000D02*
X158810000Y-87891000D01*
X158810000Y-87891000D02*
X158810000Y-85591000D01*
X158810000Y-85591000D02*
X163770000Y-85591000D01*
%TO.C,C18*%
X180026000Y-96640000D02*
X180026000Y-98940000D01*
X180026000Y-98940000D02*
X175066000Y-98940000D01*
X175066000Y-98940000D02*
X175066000Y-96640000D01*
X175066000Y-96640000D02*
X180026000Y-96640000D01*
%TO.C,C17*%
X180026000Y-101466000D02*
X180026000Y-103766000D01*
X180026000Y-103766000D02*
X175066000Y-103766000D01*
X175066000Y-103766000D02*
X175066000Y-101466000D01*
X175066000Y-101466000D02*
X180026000Y-101466000D01*
%TO.C,C13*%
X160676500Y-98051000D02*
X160676500Y-95751000D01*
X160676500Y-95751000D02*
X165636500Y-95751000D01*
X165636500Y-95751000D02*
X165636500Y-98051000D01*
X165636500Y-98051000D02*
X160676500Y-98051000D01*
%TD*%
M02*
