%TF.GenerationSoftware,KiCad,Pcbnew,(5.1.12)-1*%
%TF.CreationDate,2021-12-15T12:49:01+01:00*%
%TF.ProjectId,HorseFOT_thomas_v1,486f7273-6546-44f5-945f-74686f6d6173,rev?*%
%TF.SameCoordinates,Original*%
%TF.FileFunction,Soldermask,Bot*%
%TF.FilePolarity,Negative*%
%FSLAX46Y46*%
G04 Gerber Fmt 4.6, Leading zero omitted, Abs format (unit mm)*
G04 Created by KiCad (PCBNEW (5.1.12)-1) date 2021-12-15 12:49:01*
%MOMM*%
%LPD*%
G01*
G04 APERTURE LIST*
%ADD10R,0.610000X2.030000*%
%ADD11R,1.000000X1.000000*%
%ADD12C,1.524000*%
%ADD13C,3.500000*%
%ADD14R,0.450000X1.400000*%
%ADD15R,0.700000X1.550000*%
%ADD16R,0.550000X1.000000*%
%ADD17C,3.000000*%
%ADD18R,3.000000X3.000000*%
G04 APERTURE END LIST*
D10*
%TO.C,IC1*%
X148717000Y-79920000D03*
X149987000Y-79920000D03*
X151257000Y-79920000D03*
X152527000Y-79920000D03*
X152527000Y-75020000D03*
X151257000Y-75020000D03*
X149987000Y-75020000D03*
X148717000Y-75020000D03*
%TD*%
D11*
%TO.C,IC2*%
X164576000Y-52340000D03*
X162576000Y-52340000D03*
X162576000Y-54340000D03*
X164576000Y-54340000D03*
%TD*%
D12*
%TO.C,ESP32-TTGO_vT1*%
X181483000Y-65278000D03*
X158115000Y-47498000D03*
X158115000Y-50038000D03*
X158115000Y-52578000D03*
X158115000Y-55118000D03*
X158115000Y-57658000D03*
X158115000Y-60198000D03*
X158115000Y-62738000D03*
X158115000Y-65278000D03*
X158115000Y-67818000D03*
X158115000Y-70358000D03*
X158115000Y-72898000D03*
X158115000Y-75438000D03*
X181483000Y-47498000D03*
X181483000Y-50038000D03*
X181483000Y-52578000D03*
X181483000Y-55118000D03*
X181483000Y-57658000D03*
X181483000Y-60198000D03*
X181483000Y-62738000D03*
X181483000Y-67818000D03*
X181483000Y-70358000D03*
X181483000Y-72898000D03*
X181483000Y-75438000D03*
%TD*%
D13*
%TO.C,REF\u002A\u002A*%
X137414000Y-45085000D03*
%TD*%
%TO.C,REF\u002A\u002A*%
X180721000Y-107823000D03*
%TD*%
D14*
%TO.C,U5*%
X172679000Y-95209000D03*
X172029000Y-95209000D03*
X171379000Y-95209000D03*
X170729000Y-95209000D03*
X170729000Y-99609000D03*
X171379000Y-99609000D03*
X172029000Y-99609000D03*
X172679000Y-99609000D03*
%TD*%
D15*
%TO.C,U4*%
X171450000Y-84778000D03*
X170180000Y-84778000D03*
X168910000Y-84778000D03*
X167640000Y-84778000D03*
X167640000Y-90228000D03*
X168910000Y-90228000D03*
X170180000Y-90228000D03*
X171450000Y-90228000D03*
%TD*%
%TO.C,U3*%
X179578000Y-84905000D03*
X178308000Y-84905000D03*
X177038000Y-84905000D03*
X175768000Y-84905000D03*
X175768000Y-90355000D03*
X177038000Y-90355000D03*
X178308000Y-90355000D03*
X179578000Y-90355000D03*
%TD*%
%TO.C,R11*%
G36*
G01*
X168772000Y-77987999D02*
X168772000Y-79238001D01*
G75*
G02*
X168522001Y-79488000I-249999J0D01*
G01*
X167721999Y-79488000D01*
G75*
G02*
X167472000Y-79238001I0J249999D01*
G01*
X167472000Y-77987999D01*
G75*
G02*
X167721999Y-77738000I249999J0D01*
G01*
X168522001Y-77738000D01*
G75*
G02*
X168772000Y-77987999I0J-249999D01*
G01*
G37*
G36*
G01*
X171872000Y-77987999D02*
X171872000Y-79238001D01*
G75*
G02*
X171622001Y-79488000I-249999J0D01*
G01*
X170821999Y-79488000D01*
G75*
G02*
X170572000Y-79238001I0J249999D01*
G01*
X170572000Y-77987999D01*
G75*
G02*
X170821999Y-77738000I249999J0D01*
G01*
X171622001Y-77738000D01*
G75*
G02*
X171872000Y-77987999I0J-249999D01*
G01*
G37*
%TD*%
%TO.C,R10*%
G36*
G01*
X176138000Y-75066999D02*
X176138000Y-76317001D01*
G75*
G02*
X175888001Y-76567000I-249999J0D01*
G01*
X175087999Y-76567000D01*
G75*
G02*
X174838000Y-76317001I0J249999D01*
G01*
X174838000Y-75066999D01*
G75*
G02*
X175087999Y-74817000I249999J0D01*
G01*
X175888001Y-74817000D01*
G75*
G02*
X176138000Y-75066999I0J-249999D01*
G01*
G37*
G36*
G01*
X179238000Y-75066999D02*
X179238000Y-76317001D01*
G75*
G02*
X178988001Y-76567000I-249999J0D01*
G01*
X178187999Y-76567000D01*
G75*
G02*
X177938000Y-76317001I0J249999D01*
G01*
X177938000Y-75066999D01*
G75*
G02*
X178187999Y-74817000I249999J0D01*
G01*
X178988001Y-74817000D01*
G75*
G02*
X179238000Y-75066999I0J-249999D01*
G01*
G37*
%TD*%
%TO.C,R9*%
G36*
G01*
X169937000Y-70348001D02*
X169937000Y-69097999D01*
G75*
G02*
X170186999Y-68848000I249999J0D01*
G01*
X170987001Y-68848000D01*
G75*
G02*
X171237000Y-69097999I0J-249999D01*
G01*
X171237000Y-70348001D01*
G75*
G02*
X170987001Y-70598000I-249999J0D01*
G01*
X170186999Y-70598000D01*
G75*
G02*
X169937000Y-70348001I0J249999D01*
G01*
G37*
G36*
G01*
X166837000Y-70348001D02*
X166837000Y-69097999D01*
G75*
G02*
X167086999Y-68848000I249999J0D01*
G01*
X167887001Y-68848000D01*
G75*
G02*
X168137000Y-69097999I0J-249999D01*
G01*
X168137000Y-70348001D01*
G75*
G02*
X167887001Y-70598000I-249999J0D01*
G01*
X167086999Y-70598000D01*
G75*
G02*
X166837000Y-70348001I0J249999D01*
G01*
G37*
%TD*%
%TO.C,R8*%
G36*
G01*
X174488001Y-70246000D02*
X173237999Y-70246000D01*
G75*
G02*
X172988000Y-69996001I0J249999D01*
G01*
X172988000Y-69195999D01*
G75*
G02*
X173237999Y-68946000I249999J0D01*
G01*
X174488001Y-68946000D01*
G75*
G02*
X174738000Y-69195999I0J-249999D01*
G01*
X174738000Y-69996001D01*
G75*
G02*
X174488001Y-70246000I-249999J0D01*
G01*
G37*
G36*
G01*
X174488001Y-73346000D02*
X173237999Y-73346000D01*
G75*
G02*
X172988000Y-73096001I0J249999D01*
G01*
X172988000Y-72295999D01*
G75*
G02*
X173237999Y-72046000I249999J0D01*
G01*
X174488001Y-72046000D01*
G75*
G02*
X174738000Y-72295999I0J-249999D01*
G01*
X174738000Y-73096001D01*
G75*
G02*
X174488001Y-73346000I-249999J0D01*
G01*
G37*
%TD*%
%TO.C,R6*%
G36*
G01*
X165912500Y-107578998D02*
X165912500Y-108829002D01*
G75*
G02*
X165662502Y-109079000I-249998J0D01*
G01*
X165037498Y-109079000D01*
G75*
G02*
X164787500Y-108829002I0J249998D01*
G01*
X164787500Y-107578998D01*
G75*
G02*
X165037498Y-107329000I249998J0D01*
G01*
X165662502Y-107329000D01*
G75*
G02*
X165912500Y-107578998I0J-249998D01*
G01*
G37*
G36*
G01*
X168837500Y-107578998D02*
X168837500Y-108829002D01*
G75*
G02*
X168587502Y-109079000I-249998J0D01*
G01*
X167962498Y-109079000D01*
G75*
G02*
X167712500Y-108829002I0J249998D01*
G01*
X167712500Y-107578998D01*
G75*
G02*
X167962498Y-107329000I249998J0D01*
G01*
X168587502Y-107329000D01*
G75*
G02*
X168837500Y-107578998I0J-249998D01*
G01*
G37*
%TD*%
%TO.C,R5*%
G36*
G01*
X153171998Y-71069500D02*
X154422002Y-71069500D01*
G75*
G02*
X154672000Y-71319498I0J-249998D01*
G01*
X154672000Y-71944502D01*
G75*
G02*
X154422002Y-72194500I-249998J0D01*
G01*
X153171998Y-72194500D01*
G75*
G02*
X152922000Y-71944502I0J249998D01*
G01*
X152922000Y-71319498D01*
G75*
G02*
X153171998Y-71069500I249998J0D01*
G01*
G37*
G36*
G01*
X153171998Y-68144500D02*
X154422002Y-68144500D01*
G75*
G02*
X154672000Y-68394498I0J-249998D01*
G01*
X154672000Y-69019502D01*
G75*
G02*
X154422002Y-69269500I-249998J0D01*
G01*
X153171998Y-69269500D01*
G75*
G02*
X152922000Y-69019502I0J249998D01*
G01*
X152922000Y-68394498D01*
G75*
G02*
X153171998Y-68144500I249998J0D01*
G01*
G37*
%TD*%
%TO.C,R4*%
G36*
G01*
X153173000Y-84064002D02*
X153173000Y-82813998D01*
G75*
G02*
X153422998Y-82564000I249998J0D01*
G01*
X154048002Y-82564000D01*
G75*
G02*
X154298000Y-82813998I0J-249998D01*
G01*
X154298000Y-84064002D01*
G75*
G02*
X154048002Y-84314000I-249998J0D01*
G01*
X153422998Y-84314000D01*
G75*
G02*
X153173000Y-84064002I0J249998D01*
G01*
G37*
G36*
G01*
X150248000Y-84064002D02*
X150248000Y-82813998D01*
G75*
G02*
X150497998Y-82564000I249998J0D01*
G01*
X151123002Y-82564000D01*
G75*
G02*
X151373000Y-82813998I0J-249998D01*
G01*
X151373000Y-84064002D01*
G75*
G02*
X151123002Y-84314000I-249998J0D01*
G01*
X150497998Y-84314000D01*
G75*
G02*
X150248000Y-84064002I0J249998D01*
G01*
G37*
%TD*%
%TO.C,R3*%
G36*
G01*
X175269998Y-59258500D02*
X176520002Y-59258500D01*
G75*
G02*
X176770000Y-59508498I0J-249998D01*
G01*
X176770000Y-60133502D01*
G75*
G02*
X176520002Y-60383500I-249998J0D01*
G01*
X175269998Y-60383500D01*
G75*
G02*
X175020000Y-60133502I0J249998D01*
G01*
X175020000Y-59508498D01*
G75*
G02*
X175269998Y-59258500I249998J0D01*
G01*
G37*
G36*
G01*
X175269998Y-56333500D02*
X176520002Y-56333500D01*
G75*
G02*
X176770000Y-56583498I0J-249998D01*
G01*
X176770000Y-57208502D01*
G75*
G02*
X176520002Y-57458500I-249998J0D01*
G01*
X175269998Y-57458500D01*
G75*
G02*
X175020000Y-57208502I0J249998D01*
G01*
X175020000Y-56583498D01*
G75*
G02*
X175269998Y-56333500I249998J0D01*
G01*
G37*
%TD*%
%TO.C,R2*%
G36*
G01*
X172094998Y-59258500D02*
X173345002Y-59258500D01*
G75*
G02*
X173595000Y-59508498I0J-249998D01*
G01*
X173595000Y-60133502D01*
G75*
G02*
X173345002Y-60383500I-249998J0D01*
G01*
X172094998Y-60383500D01*
G75*
G02*
X171845000Y-60133502I0J249998D01*
G01*
X171845000Y-59508498D01*
G75*
G02*
X172094998Y-59258500I249998J0D01*
G01*
G37*
G36*
G01*
X172094998Y-56333500D02*
X173345002Y-56333500D01*
G75*
G02*
X173595000Y-56583498I0J-249998D01*
G01*
X173595000Y-57208502D01*
G75*
G02*
X173345002Y-57458500I-249998J0D01*
G01*
X172094998Y-57458500D01*
G75*
G02*
X171845000Y-57208502I0J249998D01*
G01*
X171845000Y-56583498D01*
G75*
G02*
X172094998Y-56333500I249998J0D01*
G01*
G37*
%TD*%
%TO.C,R1*%
G36*
G01*
X172096000Y-54600002D02*
X172096000Y-53349998D01*
G75*
G02*
X172345998Y-53100000I249998J0D01*
G01*
X172971002Y-53100000D01*
G75*
G02*
X173221000Y-53349998I0J-249998D01*
G01*
X173221000Y-54600002D01*
G75*
G02*
X172971002Y-54850000I-249998J0D01*
G01*
X172345998Y-54850000D01*
G75*
G02*
X172096000Y-54600002I0J249998D01*
G01*
G37*
G36*
G01*
X169171000Y-54600002D02*
X169171000Y-53349998D01*
G75*
G02*
X169420998Y-53100000I249998J0D01*
G01*
X170046002Y-53100000D01*
G75*
G02*
X170296000Y-53349998I0J-249998D01*
G01*
X170296000Y-54600002D01*
G75*
G02*
X170046002Y-54850000I-249998J0D01*
G01*
X169420998Y-54850000D01*
G75*
G02*
X169171000Y-54600002I0J249998D01*
G01*
G37*
%TD*%
D16*
%TO.C,Q2*%
X168544000Y-75179000D03*
X169194000Y-73279000D03*
X167894000Y-73279000D03*
%TD*%
%TO.C,Q1*%
X177673000Y-72324000D03*
X178323000Y-70424000D03*
X177023000Y-70424000D03*
%TD*%
D12*
%TO.C,P2*%
X144272000Y-102108000D03*
X139192000Y-102108000D03*
X141732000Y-102108000D03*
X136652000Y-102108000D03*
%TD*%
%TO.C,P1*%
X144272000Y-108204000D03*
X139192000Y-108204000D03*
X141732000Y-108204000D03*
X136652000Y-108204000D03*
%TD*%
D17*
%TO.C,J5*%
X151765000Y-45339000D03*
D18*
X146685000Y-45339000D03*
%TD*%
D17*
%TO.C,J1*%
X137795000Y-52197000D03*
D18*
X137795000Y-57277000D03*
%TD*%
%TO.C,D1*%
G36*
G01*
X149870000Y-51044000D02*
X149870000Y-49794000D01*
G75*
G02*
X150120000Y-49544000I250000J0D01*
G01*
X150870000Y-49544000D01*
G75*
G02*
X151120000Y-49794000I0J-250000D01*
G01*
X151120000Y-51044000D01*
G75*
G02*
X150870000Y-51294000I-250000J0D01*
G01*
X150120000Y-51294000D01*
G75*
G02*
X149870000Y-51044000I0J250000D01*
G01*
G37*
G36*
G01*
X147070000Y-51044000D02*
X147070000Y-49794000D01*
G75*
G02*
X147320000Y-49544000I250000J0D01*
G01*
X148070000Y-49544000D01*
G75*
G02*
X148320000Y-49794000I0J-250000D01*
G01*
X148320000Y-51044000D01*
G75*
G02*
X148070000Y-51294000I-250000J0D01*
G01*
X147320000Y-51294000D01*
G75*
G02*
X147070000Y-51044000I0J250000D01*
G01*
G37*
%TD*%
%TO.C,CopAMP2*%
G36*
G01*
X161559002Y-104167500D02*
X160258998Y-104167500D01*
G75*
G02*
X160009000Y-103917502I0J249998D01*
G01*
X160009000Y-103092498D01*
G75*
G02*
X160258998Y-102842500I249998J0D01*
G01*
X161559002Y-102842500D01*
G75*
G02*
X161809000Y-103092498I0J-249998D01*
G01*
X161809000Y-103917502D01*
G75*
G02*
X161559002Y-104167500I-249998J0D01*
G01*
G37*
G36*
G01*
X161559002Y-107292500D02*
X160258998Y-107292500D01*
G75*
G02*
X160009000Y-107042502I0J249998D01*
G01*
X160009000Y-106217498D01*
G75*
G02*
X160258998Y-105967500I249998J0D01*
G01*
X161559002Y-105967500D01*
G75*
G02*
X161809000Y-106217498I0J-249998D01*
G01*
X161809000Y-107042502D01*
G75*
G02*
X161559002Y-107292500I-249998J0D01*
G01*
G37*
%TD*%
%TO.C,CopAMP1*%
G36*
G01*
X156987002Y-104129000D02*
X155686998Y-104129000D01*
G75*
G02*
X155437000Y-103879002I0J249998D01*
G01*
X155437000Y-103053998D01*
G75*
G02*
X155686998Y-102804000I249998J0D01*
G01*
X156987002Y-102804000D01*
G75*
G02*
X157237000Y-103053998I0J-249998D01*
G01*
X157237000Y-103879002D01*
G75*
G02*
X156987002Y-104129000I-249998J0D01*
G01*
G37*
G36*
G01*
X156987002Y-107254000D02*
X155686998Y-107254000D01*
G75*
G02*
X155437000Y-107004002I0J249998D01*
G01*
X155437000Y-106178998D01*
G75*
G02*
X155686998Y-105929000I249998J0D01*
G01*
X156987002Y-105929000D01*
G75*
G02*
X157237000Y-106178998I0J-249998D01*
G01*
X157237000Y-107004002D01*
G75*
G02*
X156987002Y-107254000I-249998J0D01*
G01*
G37*
%TD*%
%TO.C,C21*%
G36*
G01*
X160390000Y-83677998D02*
X160390000Y-84978002D01*
G75*
G02*
X160140002Y-85228000I-249998J0D01*
G01*
X159314998Y-85228000D01*
G75*
G02*
X159065000Y-84978002I0J249998D01*
G01*
X159065000Y-83677998D01*
G75*
G02*
X159314998Y-83428000I249998J0D01*
G01*
X160140002Y-83428000D01*
G75*
G02*
X160390000Y-83677998I0J-249998D01*
G01*
G37*
G36*
G01*
X163515000Y-83677998D02*
X163515000Y-84978002D01*
G75*
G02*
X163265002Y-85228000I-249998J0D01*
G01*
X162439998Y-85228000D01*
G75*
G02*
X162190000Y-84978002I0J249998D01*
G01*
X162190000Y-83677998D01*
G75*
G02*
X162439998Y-83428000I249998J0D01*
G01*
X163265002Y-83428000D01*
G75*
G02*
X163515000Y-83677998I0J-249998D01*
G01*
G37*
%TD*%
%TO.C,C20*%
G36*
G01*
X160351500Y-88503998D02*
X160351500Y-89804002D01*
G75*
G02*
X160101502Y-90054000I-249998J0D01*
G01*
X159276498Y-90054000D01*
G75*
G02*
X159026500Y-89804002I0J249998D01*
G01*
X159026500Y-88503998D01*
G75*
G02*
X159276498Y-88254000I249998J0D01*
G01*
X160101502Y-88254000D01*
G75*
G02*
X160351500Y-88503998I0J-249998D01*
G01*
G37*
G36*
G01*
X163476500Y-88503998D02*
X163476500Y-89804002D01*
G75*
G02*
X163226502Y-90054000I-249998J0D01*
G01*
X162401498Y-90054000D01*
G75*
G02*
X162151500Y-89804002I0J249998D01*
G01*
X162151500Y-88503998D01*
G75*
G02*
X162401498Y-88254000I249998J0D01*
G01*
X163226502Y-88254000D01*
G75*
G02*
X163476500Y-88503998I0J-249998D01*
G01*
G37*
%TD*%
%TO.C,C15*%
G36*
G01*
X176646000Y-99552998D02*
X176646000Y-100853002D01*
G75*
G02*
X176396002Y-101103000I-249998J0D01*
G01*
X175570998Y-101103000D01*
G75*
G02*
X175321000Y-100853002I0J249998D01*
G01*
X175321000Y-99552998D01*
G75*
G02*
X175570998Y-99303000I249998J0D01*
G01*
X176396002Y-99303000D01*
G75*
G02*
X176646000Y-99552998I0J-249998D01*
G01*
G37*
G36*
G01*
X179771000Y-99552998D02*
X179771000Y-100853002D01*
G75*
G02*
X179521002Y-101103000I-249998J0D01*
G01*
X178695998Y-101103000D01*
G75*
G02*
X178446000Y-100853002I0J249998D01*
G01*
X178446000Y-99552998D01*
G75*
G02*
X178695998Y-99303000I249998J0D01*
G01*
X179521002Y-99303000D01*
G75*
G02*
X179771000Y-99552998I0J-249998D01*
G01*
G37*
%TD*%
%TO.C,C14*%
G36*
G01*
X176684500Y-94726998D02*
X176684500Y-96027002D01*
G75*
G02*
X176434502Y-96277000I-249998J0D01*
G01*
X175609498Y-96277000D01*
G75*
G02*
X175359500Y-96027002I0J249998D01*
G01*
X175359500Y-94726998D01*
G75*
G02*
X175609498Y-94477000I249998J0D01*
G01*
X176434502Y-94477000D01*
G75*
G02*
X176684500Y-94726998I0J-249998D01*
G01*
G37*
G36*
G01*
X179809500Y-94726998D02*
X179809500Y-96027002D01*
G75*
G02*
X179559502Y-96277000I-249998J0D01*
G01*
X178734498Y-96277000D01*
G75*
G02*
X178484500Y-96027002I0J249998D01*
G01*
X178484500Y-94726998D01*
G75*
G02*
X178734498Y-94477000I249998J0D01*
G01*
X179559502Y-94477000D01*
G75*
G02*
X179809500Y-94726998I0J-249998D01*
G01*
G37*
%TD*%
%TO.C,C12*%
G36*
G01*
X174128000Y-108854002D02*
X174128000Y-107553998D01*
G75*
G02*
X174377998Y-107304000I249998J0D01*
G01*
X175203002Y-107304000D01*
G75*
G02*
X175453000Y-107553998I0J-249998D01*
G01*
X175453000Y-108854002D01*
G75*
G02*
X175203002Y-109104000I-249998J0D01*
G01*
X174377998Y-109104000D01*
G75*
G02*
X174128000Y-108854002I0J249998D01*
G01*
G37*
G36*
G01*
X171003000Y-108854002D02*
X171003000Y-107553998D01*
G75*
G02*
X171252998Y-107304000I249998J0D01*
G01*
X172078002Y-107304000D01*
G75*
G02*
X172328000Y-107553998I0J-249998D01*
G01*
X172328000Y-108854002D01*
G75*
G02*
X172078002Y-109104000I-249998J0D01*
G01*
X171252998Y-109104000D01*
G75*
G02*
X171003000Y-108854002I0J249998D01*
G01*
G37*
%TD*%
%TO.C,C11*%
G36*
G01*
X146954002Y-69369500D02*
X145653998Y-69369500D01*
G75*
G02*
X145404000Y-69119502I0J249998D01*
G01*
X145404000Y-68294498D01*
G75*
G02*
X145653998Y-68044500I249998J0D01*
G01*
X146954002Y-68044500D01*
G75*
G02*
X147204000Y-68294498I0J-249998D01*
G01*
X147204000Y-69119502D01*
G75*
G02*
X146954002Y-69369500I-249998J0D01*
G01*
G37*
G36*
G01*
X146954002Y-72494500D02*
X145653998Y-72494500D01*
G75*
G02*
X145404000Y-72244502I0J249998D01*
G01*
X145404000Y-71419498D01*
G75*
G02*
X145653998Y-71169500I249998J0D01*
G01*
X146954002Y-71169500D01*
G75*
G02*
X147204000Y-71419498I0J-249998D01*
G01*
X147204000Y-72244502D01*
G75*
G02*
X146954002Y-72494500I-249998J0D01*
G01*
G37*
%TD*%
%TO.C,C10*%
G36*
G01*
X150098998Y-71169500D02*
X151399002Y-71169500D01*
G75*
G02*
X151649000Y-71419498I0J-249998D01*
G01*
X151649000Y-72244502D01*
G75*
G02*
X151399002Y-72494500I-249998J0D01*
G01*
X150098998Y-72494500D01*
G75*
G02*
X149849000Y-72244502I0J249998D01*
G01*
X149849000Y-71419498D01*
G75*
G02*
X150098998Y-71169500I249998J0D01*
G01*
G37*
G36*
G01*
X150098998Y-68044500D02*
X151399002Y-68044500D01*
G75*
G02*
X151649000Y-68294498I0J-249998D01*
G01*
X151649000Y-69119502D01*
G75*
G02*
X151399002Y-69369500I-249998J0D01*
G01*
X150098998Y-69369500D01*
G75*
G02*
X149849000Y-69119502I0J249998D01*
G01*
X149849000Y-68294498D01*
G75*
G02*
X150098998Y-68044500I249998J0D01*
G01*
G37*
%TD*%
%TO.C,C7*%
G36*
G01*
X143906002Y-61838000D02*
X142605998Y-61838000D01*
G75*
G02*
X142356000Y-61588002I0J249998D01*
G01*
X142356000Y-60762998D01*
G75*
G02*
X142605998Y-60513000I249998J0D01*
G01*
X143906002Y-60513000D01*
G75*
G02*
X144156000Y-60762998I0J-249998D01*
G01*
X144156000Y-61588002D01*
G75*
G02*
X143906002Y-61838000I-249998J0D01*
G01*
G37*
G36*
G01*
X143906002Y-64963000D02*
X142605998Y-64963000D01*
G75*
G02*
X142356000Y-64713002I0J249998D01*
G01*
X142356000Y-63887998D01*
G75*
G02*
X142605998Y-63638000I249998J0D01*
G01*
X143906002Y-63638000D01*
G75*
G02*
X144156000Y-63887998I0J-249998D01*
G01*
X144156000Y-64713002D01*
G75*
G02*
X143906002Y-64963000I-249998J0D01*
G01*
G37*
%TD*%
%TO.C,C6*%
G36*
G01*
X150125000Y-58943002D02*
X150125000Y-57642998D01*
G75*
G02*
X150374998Y-57393000I249998J0D01*
G01*
X151200002Y-57393000D01*
G75*
G02*
X151450000Y-57642998I0J-249998D01*
G01*
X151450000Y-58943002D01*
G75*
G02*
X151200002Y-59193000I-249998J0D01*
G01*
X150374998Y-59193000D01*
G75*
G02*
X150125000Y-58943002I0J249998D01*
G01*
G37*
G36*
G01*
X147000000Y-58943002D02*
X147000000Y-57642998D01*
G75*
G02*
X147249998Y-57393000I249998J0D01*
G01*
X148075002Y-57393000D01*
G75*
G02*
X148325000Y-57642998I0J-249998D01*
G01*
X148325000Y-58943002D01*
G75*
G02*
X148075002Y-59193000I-249998J0D01*
G01*
X147249998Y-59193000D01*
G75*
G02*
X147000000Y-58943002I0J249998D01*
G01*
G37*
%TD*%
M02*
