%TF.GenerationSoftware,KiCad,Pcbnew,(5.1.12)-1*%
%TF.CreationDate,2021-12-15T12:49:01+01:00*%
%TF.ProjectId,HorseFOT_thomas_v1,486f7273-6546-44f5-945f-74686f6d6173,rev?*%
%TF.SameCoordinates,Original*%
%TF.FileFunction,Other,User*%
%FSLAX46Y46*%
G04 Gerber Fmt 4.6, Leading zero omitted, Abs format (unit mm)*
G04 Created by KiCad (PCBNEW (5.1.12)-1) date 2021-12-15 12:49:01*
%MOMM*%
%LPD*%
G01*
G04 APERTURE LIST*
%ADD10C,0.050000*%
G04 APERTURE END LIST*
D10*
%TO.C,R11*%
X172122000Y-79733000D02*
X172122000Y-77493000D01*
X172122000Y-77493000D02*
X167222000Y-77493000D01*
X167222000Y-77493000D02*
X167222000Y-79733000D01*
X167222000Y-79733000D02*
X172122000Y-79733000D01*
%TO.C,R10*%
X179488000Y-76812000D02*
X179488000Y-74572000D01*
X179488000Y-74572000D02*
X174588000Y-74572000D01*
X174588000Y-74572000D02*
X174588000Y-76812000D01*
X174588000Y-76812000D02*
X179488000Y-76812000D01*
%TO.C,R9*%
X166587000Y-68603000D02*
X166587000Y-70843000D01*
X166587000Y-70843000D02*
X171487000Y-70843000D01*
X171487000Y-70843000D02*
X171487000Y-68603000D01*
X171487000Y-68603000D02*
X166587000Y-68603000D01*
%TO.C,R8*%
X172743000Y-73596000D02*
X174983000Y-73596000D01*
X174983000Y-73596000D02*
X174983000Y-68696000D01*
X174983000Y-68696000D02*
X172743000Y-68696000D01*
X172743000Y-68696000D02*
X172743000Y-73596000D01*
%TO.C,R6*%
X169092500Y-109324000D02*
X169092500Y-107084000D01*
X169092500Y-107084000D02*
X164532500Y-107084000D01*
X164532500Y-107084000D02*
X164532500Y-109324000D01*
X164532500Y-109324000D02*
X169092500Y-109324000D01*
%TO.C,R5*%
X154917000Y-67889500D02*
X152677000Y-67889500D01*
X152677000Y-67889500D02*
X152677000Y-72449500D01*
X152677000Y-72449500D02*
X154917000Y-72449500D01*
X154917000Y-72449500D02*
X154917000Y-67889500D01*
%TO.C,R4*%
X149993000Y-82319000D02*
X149993000Y-84559000D01*
X149993000Y-84559000D02*
X154553000Y-84559000D01*
X154553000Y-84559000D02*
X154553000Y-82319000D01*
X154553000Y-82319000D02*
X149993000Y-82319000D01*
%TO.C,R3*%
X177015000Y-56078500D02*
X174775000Y-56078500D01*
X174775000Y-56078500D02*
X174775000Y-60638500D01*
X174775000Y-60638500D02*
X177015000Y-60638500D01*
X177015000Y-60638500D02*
X177015000Y-56078500D01*
%TO.C,R2*%
X173840000Y-56078500D02*
X171600000Y-56078500D01*
X171600000Y-56078500D02*
X171600000Y-60638500D01*
X171600000Y-60638500D02*
X173840000Y-60638500D01*
X173840000Y-60638500D02*
X173840000Y-56078500D01*
%TO.C,R1*%
X168916000Y-52855000D02*
X168916000Y-55095000D01*
X168916000Y-55095000D02*
X173476000Y-55095000D01*
X173476000Y-55095000D02*
X173476000Y-52855000D01*
X173476000Y-52855000D02*
X168916000Y-52855000D01*
%TO.C,D1*%
X146815000Y-49299000D02*
X146815000Y-51539000D01*
X146815000Y-51539000D02*
X151375000Y-51539000D01*
X151375000Y-51539000D02*
X151375000Y-49299000D01*
X151375000Y-49299000D02*
X146815000Y-49299000D01*
%TO.C,CopAMP2*%
X159759000Y-107547500D02*
X162059000Y-107547500D01*
X162059000Y-107547500D02*
X162059000Y-102587500D01*
X162059000Y-102587500D02*
X159759000Y-102587500D01*
X159759000Y-102587500D02*
X159759000Y-107547500D01*
%TO.C,CopAMP1*%
X155187000Y-107509000D02*
X157487000Y-107509000D01*
X157487000Y-107509000D02*
X157487000Y-102549000D01*
X157487000Y-102549000D02*
X155187000Y-102549000D01*
X155187000Y-102549000D02*
X155187000Y-107509000D01*
%TO.C,C21*%
X163770000Y-85478000D02*
X163770000Y-83178000D01*
X163770000Y-83178000D02*
X158810000Y-83178000D01*
X158810000Y-83178000D02*
X158810000Y-85478000D01*
X158810000Y-85478000D02*
X163770000Y-85478000D01*
%TO.C,C20*%
X163731500Y-90304000D02*
X163731500Y-88004000D01*
X163731500Y-88004000D02*
X158771500Y-88004000D01*
X158771500Y-88004000D02*
X158771500Y-90304000D01*
X158771500Y-90304000D02*
X163731500Y-90304000D01*
%TO.C,C15*%
X180026000Y-101353000D02*
X180026000Y-99053000D01*
X180026000Y-99053000D02*
X175066000Y-99053000D01*
X175066000Y-99053000D02*
X175066000Y-101353000D01*
X175066000Y-101353000D02*
X180026000Y-101353000D01*
%TO.C,C14*%
X180064500Y-96527000D02*
X180064500Y-94227000D01*
X180064500Y-94227000D02*
X175104500Y-94227000D01*
X175104500Y-94227000D02*
X175104500Y-96527000D01*
X175104500Y-96527000D02*
X180064500Y-96527000D01*
%TO.C,C12*%
X170748000Y-107054000D02*
X170748000Y-109354000D01*
X170748000Y-109354000D02*
X175708000Y-109354000D01*
X175708000Y-109354000D02*
X175708000Y-107054000D01*
X175708000Y-107054000D02*
X170748000Y-107054000D01*
%TO.C,C11*%
X145154000Y-72749500D02*
X147454000Y-72749500D01*
X147454000Y-72749500D02*
X147454000Y-67789500D01*
X147454000Y-67789500D02*
X145154000Y-67789500D01*
X145154000Y-67789500D02*
X145154000Y-72749500D01*
%TO.C,C10*%
X151899000Y-67789500D02*
X149599000Y-67789500D01*
X149599000Y-67789500D02*
X149599000Y-72749500D01*
X149599000Y-72749500D02*
X151899000Y-72749500D01*
X151899000Y-72749500D02*
X151899000Y-67789500D01*
%TO.C,C7*%
X142106000Y-65218000D02*
X144406000Y-65218000D01*
X144406000Y-65218000D02*
X144406000Y-60258000D01*
X144406000Y-60258000D02*
X142106000Y-60258000D01*
X142106000Y-60258000D02*
X142106000Y-65218000D01*
%TO.C,C6*%
X146745000Y-57143000D02*
X146745000Y-59443000D01*
X146745000Y-59443000D02*
X151705000Y-59443000D01*
X151705000Y-59443000D02*
X151705000Y-57143000D01*
X151705000Y-57143000D02*
X146745000Y-57143000D01*
%TD*%
M02*
