%TF.GenerationSoftware,KiCad,Pcbnew,(5.1.12)-1*%
%TF.CreationDate,2021-12-15T12:49:01+01:00*%
%TF.ProjectId,HorseFOT_thomas_v1,486f7273-6546-44f5-945f-74686f6d6173,rev?*%
%TF.SameCoordinates,Original*%
%TF.FileFunction,Paste,Top*%
%TF.FilePolarity,Positive*%
%FSLAX46Y46*%
G04 Gerber Fmt 4.6, Leading zero omitted, Abs format (unit mm)*
G04 Created by KiCad (PCBNEW (5.1.12)-1) date 2021-12-15 12:49:01*
%MOMM*%
%LPD*%
G01*
G04 APERTURE LIST*
%ADD10R,1.200000X1.200000*%
%ADD11R,1.400000X2.700000*%
%ADD12R,2.600000X1.500000*%
%ADD13R,2.600000X1.000000*%
%ADD14R,2.000000X0.700000*%
%ADD15R,1.750000X3.200000*%
%ADD16R,1.750000X0.950000*%
%ADD17R,1.600000X4.000000*%
%ADD18R,4.000000X1.600000*%
G04 APERTURE END LIST*
D10*
%TO.C,J2*%
X148309000Y-93931000D03*
D11*
X148209000Y-90881000D03*
X148209000Y-85981000D03*
D12*
X136009000Y-95831000D03*
D13*
X136009000Y-82481000D03*
D14*
X135509000Y-84581000D03*
X135509000Y-85681000D03*
X135509000Y-86781000D03*
X135509000Y-87881000D03*
X135509000Y-88981000D03*
X135509000Y-90081000D03*
X135509000Y-91181000D03*
X135509000Y-92281000D03*
%TD*%
D15*
%TO.C,U2*%
X153137000Y-64643000D03*
D16*
X146837000Y-66943000D03*
X146837000Y-64643000D03*
X146837000Y-62343000D03*
%TD*%
%TO.C,R7*%
G36*
G01*
X164095000Y-100828002D02*
X164095000Y-99577998D01*
G75*
G02*
X164344998Y-99328000I249998J0D01*
G01*
X164970002Y-99328000D01*
G75*
G02*
X165220000Y-99577998I0J-249998D01*
G01*
X165220000Y-100828002D01*
G75*
G02*
X164970002Y-101078000I-249998J0D01*
G01*
X164344998Y-101078000D01*
G75*
G02*
X164095000Y-100828002I0J249998D01*
G01*
G37*
G36*
G01*
X161170000Y-100828002D02*
X161170000Y-99577998D01*
G75*
G02*
X161419998Y-99328000I249998J0D01*
G01*
X162045002Y-99328000D01*
G75*
G02*
X162295000Y-99577998I0J-249998D01*
G01*
X162295000Y-100828002D01*
G75*
G02*
X162045002Y-101078000I-249998J0D01*
G01*
X161419998Y-101078000D01*
G75*
G02*
X161170000Y-100828002I0J249998D01*
G01*
G37*
%TD*%
%TO.C,C22*%
G36*
G01*
X160351500Y-90916998D02*
X160351500Y-92217002D01*
G75*
G02*
X160101502Y-92467000I-249998J0D01*
G01*
X159276498Y-92467000D01*
G75*
G02*
X159026500Y-92217002I0J249998D01*
G01*
X159026500Y-90916998D01*
G75*
G02*
X159276498Y-90667000I249998J0D01*
G01*
X160101502Y-90667000D01*
G75*
G02*
X160351500Y-90916998I0J-249998D01*
G01*
G37*
G36*
G01*
X163476500Y-90916998D02*
X163476500Y-92217002D01*
G75*
G02*
X163226502Y-92467000I-249998J0D01*
G01*
X162401498Y-92467000D01*
G75*
G02*
X162151500Y-92217002I0J249998D01*
G01*
X162151500Y-90916998D01*
G75*
G02*
X162401498Y-90667000I249998J0D01*
G01*
X163226502Y-90667000D01*
G75*
G02*
X163476500Y-90916998I0J-249998D01*
G01*
G37*
%TD*%
%TO.C,C19*%
G36*
G01*
X160390000Y-86090998D02*
X160390000Y-87391002D01*
G75*
G02*
X160140002Y-87641000I-249998J0D01*
G01*
X159314998Y-87641000D01*
G75*
G02*
X159065000Y-87391002I0J249998D01*
G01*
X159065000Y-86090998D01*
G75*
G02*
X159314998Y-85841000I249998J0D01*
G01*
X160140002Y-85841000D01*
G75*
G02*
X160390000Y-86090998I0J-249998D01*
G01*
G37*
G36*
G01*
X163515000Y-86090998D02*
X163515000Y-87391002D01*
G75*
G02*
X163265002Y-87641000I-249998J0D01*
G01*
X162439998Y-87641000D01*
G75*
G02*
X162190000Y-87391002I0J249998D01*
G01*
X162190000Y-86090998D01*
G75*
G02*
X162439998Y-85841000I249998J0D01*
G01*
X163265002Y-85841000D01*
G75*
G02*
X163515000Y-86090998I0J-249998D01*
G01*
G37*
%TD*%
%TO.C,C18*%
G36*
G01*
X176646000Y-97139998D02*
X176646000Y-98440002D01*
G75*
G02*
X176396002Y-98690000I-249998J0D01*
G01*
X175570998Y-98690000D01*
G75*
G02*
X175321000Y-98440002I0J249998D01*
G01*
X175321000Y-97139998D01*
G75*
G02*
X175570998Y-96890000I249998J0D01*
G01*
X176396002Y-96890000D01*
G75*
G02*
X176646000Y-97139998I0J-249998D01*
G01*
G37*
G36*
G01*
X179771000Y-97139998D02*
X179771000Y-98440002D01*
G75*
G02*
X179521002Y-98690000I-249998J0D01*
G01*
X178695998Y-98690000D01*
G75*
G02*
X178446000Y-98440002I0J249998D01*
G01*
X178446000Y-97139998D01*
G75*
G02*
X178695998Y-96890000I249998J0D01*
G01*
X179521002Y-96890000D01*
G75*
G02*
X179771000Y-97139998I0J-249998D01*
G01*
G37*
%TD*%
%TO.C,C17*%
G36*
G01*
X176646000Y-101965998D02*
X176646000Y-103266002D01*
G75*
G02*
X176396002Y-103516000I-249998J0D01*
G01*
X175570998Y-103516000D01*
G75*
G02*
X175321000Y-103266002I0J249998D01*
G01*
X175321000Y-101965998D01*
G75*
G02*
X175570998Y-101716000I249998J0D01*
G01*
X176396002Y-101716000D01*
G75*
G02*
X176646000Y-101965998I0J-249998D01*
G01*
G37*
G36*
G01*
X179771000Y-101965998D02*
X179771000Y-103266002D01*
G75*
G02*
X179521002Y-103516000I-249998J0D01*
G01*
X178695998Y-103516000D01*
G75*
G02*
X178446000Y-103266002I0J249998D01*
G01*
X178446000Y-101965998D01*
G75*
G02*
X178695998Y-101716000I249998J0D01*
G01*
X179521002Y-101716000D01*
G75*
G02*
X179771000Y-101965998I0J-249998D01*
G01*
G37*
%TD*%
%TO.C,C13*%
G36*
G01*
X164056500Y-97551002D02*
X164056500Y-96250998D01*
G75*
G02*
X164306498Y-96001000I249998J0D01*
G01*
X165131502Y-96001000D01*
G75*
G02*
X165381500Y-96250998I0J-249998D01*
G01*
X165381500Y-97551002D01*
G75*
G02*
X165131502Y-97801000I-249998J0D01*
G01*
X164306498Y-97801000D01*
G75*
G02*
X164056500Y-97551002I0J249998D01*
G01*
G37*
G36*
G01*
X160931500Y-97551002D02*
X160931500Y-96250998D01*
G75*
G02*
X161181498Y-96001000I249998J0D01*
G01*
X162006502Y-96001000D01*
G75*
G02*
X162256500Y-96250998I0J-249998D01*
G01*
X162256500Y-97551002D01*
G75*
G02*
X162006502Y-97801000I-249998J0D01*
G01*
X161181498Y-97801000D01*
G75*
G02*
X160931500Y-97551002I0J249998D01*
G01*
G37*
%TD*%
D17*
%TO.C,C8*%
X139446000Y-70156000D03*
X139446000Y-63956000D03*
%TD*%
D18*
%TO.C,C5*%
X151944000Y-55499000D03*
X145744000Y-55499000D03*
%TD*%
M02*
