%TF.GenerationSoftware,KiCad,Pcbnew,(5.1.12)-1*%
%TF.CreationDate,2021-12-15T12:49:01+01:00*%
%TF.ProjectId,HorseFOT_thomas_v1,486f7273-6546-44f5-945f-74686f6d6173,rev?*%
%TF.SameCoordinates,Original*%
%TF.FileFunction,Legend,Bot*%
%TF.FilePolarity,Positive*%
%FSLAX46Y46*%
G04 Gerber Fmt 4.6, Leading zero omitted, Abs format (unit mm)*
G04 Created by KiCad (PCBNEW (5.1.12)-1) date 2021-12-15 12:49:01*
%MOMM*%
%LPD*%
G01*
G04 APERTURE LIST*
%ADD10C,0.200000*%
%ADD11C,0.100000*%
%ADD12C,0.254000*%
%ADD13C,0.120000*%
%ADD14C,0.150000*%
G04 APERTURE END LIST*
D10*
%TO.C,IC1*%
X148172000Y-78670000D02*
X148172000Y-76570000D01*
X153072000Y-78670000D02*
X153072000Y-76570000D01*
D11*
X148622000Y-73670000D02*
X148622000Y-73670000D01*
X148622000Y-73570000D02*
X148622000Y-73570000D01*
X148622000Y-73670000D02*
G75*
G03*
X148622000Y-73570000I0J50000D01*
G01*
X148622000Y-73570000D02*
G75*
G03*
X148622000Y-73670000I0J-50000D01*
G01*
D12*
%TO.C,IC2*%
X164718000Y-55278000D02*
G75*
G03*
X164718000Y-55278000I-40000J0D01*
G01*
D10*
%TO.C,U5*%
X173254000Y-100309000D02*
X173254000Y-98909000D01*
X170204000Y-98559000D02*
X173204000Y-98559000D01*
X170204000Y-96259000D02*
X170204000Y-98559000D01*
X173204000Y-96259000D02*
X170204000Y-96259000D01*
X173204000Y-98559000D02*
X173204000Y-96259000D01*
%TO.C,U4*%
X172150000Y-91003000D02*
X172150000Y-89453000D01*
X167095000Y-89103000D02*
X171995000Y-89103000D01*
X167095000Y-85903000D02*
X167095000Y-89103000D01*
X171995000Y-85903000D02*
X167095000Y-85903000D01*
X171995000Y-89103000D02*
X171995000Y-85903000D01*
%TO.C,U3*%
X180278000Y-91130000D02*
X180278000Y-89580000D01*
X175223000Y-89230000D02*
X180123000Y-89230000D01*
X175223000Y-86030000D02*
X175223000Y-89230000D01*
X180123000Y-86030000D02*
X175223000Y-86030000D01*
X180123000Y-89230000D02*
X180123000Y-86030000D01*
D13*
%TO.C,R11*%
X170399064Y-77703000D02*
X168944936Y-77703000D01*
X170399064Y-79523000D02*
X168944936Y-79523000D01*
%TO.C,R10*%
X177765064Y-74782000D02*
X176310936Y-74782000D01*
X177765064Y-76602000D02*
X176310936Y-76602000D01*
%TO.C,R9*%
X168309936Y-70633000D02*
X169764064Y-70633000D01*
X168309936Y-68813000D02*
X169764064Y-68813000D01*
%TO.C,R8*%
X174773000Y-71873064D02*
X174773000Y-70418936D01*
X172953000Y-71873064D02*
X172953000Y-70418936D01*
%TO.C,R6*%
X167539564Y-107294000D02*
X166085436Y-107294000D01*
X167539564Y-109114000D02*
X166085436Y-109114000D01*
%TO.C,R5*%
X152887000Y-69442436D02*
X152887000Y-70896564D01*
X154707000Y-69442436D02*
X154707000Y-70896564D01*
%TO.C,R4*%
X151545936Y-84349000D02*
X153000064Y-84349000D01*
X151545936Y-82529000D02*
X153000064Y-82529000D01*
%TO.C,R3*%
X174985000Y-57631436D02*
X174985000Y-59085564D01*
X176805000Y-57631436D02*
X176805000Y-59085564D01*
%TO.C,R2*%
X171810000Y-57631436D02*
X171810000Y-59085564D01*
X173630000Y-57631436D02*
X173630000Y-59085564D01*
%TO.C,R1*%
X170468936Y-54885000D02*
X171923064Y-54885000D01*
X170468936Y-53065000D02*
X171923064Y-53065000D01*
D10*
%TO.C,Q2*%
X167369000Y-72779000D02*
X167369000Y-73779000D01*
X169544000Y-74129000D02*
X167544000Y-74129000D01*
X169544000Y-74329000D02*
X169544000Y-74129000D01*
X167544000Y-74329000D02*
X169544000Y-74329000D01*
X167544000Y-74129000D02*
X167544000Y-74329000D01*
%TO.C,Q1*%
X176498000Y-69924000D02*
X176498000Y-70924000D01*
X178673000Y-71274000D02*
X176673000Y-71274000D01*
X178673000Y-71474000D02*
X178673000Y-71274000D01*
X176673000Y-71474000D02*
X178673000Y-71474000D01*
X176673000Y-71274000D02*
X176673000Y-71474000D01*
D13*
%TO.C,D1*%
X150695000Y-51554000D02*
X146810000Y-51554000D01*
X146810000Y-51554000D02*
X146810000Y-49284000D01*
X146810000Y-49284000D02*
X150695000Y-49284000D01*
%TO.C,CopAMP2*%
X161819000Y-105778752D02*
X161819000Y-104356248D01*
X159999000Y-105778752D02*
X159999000Y-104356248D01*
%TO.C,CopAMP1*%
X157247000Y-105740252D02*
X157247000Y-104317748D01*
X155427000Y-105740252D02*
X155427000Y-104317748D01*
%TO.C,C21*%
X162001252Y-83418000D02*
X160578748Y-83418000D01*
X162001252Y-85238000D02*
X160578748Y-85238000D01*
%TO.C,C20*%
X161962752Y-88244000D02*
X160540248Y-88244000D01*
X161962752Y-90064000D02*
X160540248Y-90064000D01*
%TO.C,C15*%
X178257252Y-99293000D02*
X176834748Y-99293000D01*
X178257252Y-101113000D02*
X176834748Y-101113000D01*
%TO.C,C14*%
X178295752Y-94467000D02*
X176873248Y-94467000D01*
X178295752Y-96287000D02*
X176873248Y-96287000D01*
%TO.C,C12*%
X172516748Y-109114000D02*
X173939252Y-109114000D01*
X172516748Y-107294000D02*
X173939252Y-107294000D01*
%TO.C,C11*%
X147214000Y-70980752D02*
X147214000Y-69558248D01*
X145394000Y-70980752D02*
X145394000Y-69558248D01*
%TO.C,C10*%
X149839000Y-69558248D02*
X149839000Y-70980752D01*
X151659000Y-69558248D02*
X151659000Y-70980752D01*
%TO.C,C7*%
X144166000Y-63449252D02*
X144166000Y-62026748D01*
X142346000Y-63449252D02*
X142346000Y-62026748D01*
%TO.C,C6*%
X148513748Y-59203000D02*
X149936252Y-59203000D01*
X148513748Y-57383000D02*
X149936252Y-57383000D01*
%TO.C,IC1*%
D12*
X151861761Y-78044523D02*
X151861761Y-76774523D01*
X150531285Y-77923571D02*
X150591761Y-77984047D01*
X150773190Y-78044523D01*
X150894142Y-78044523D01*
X151075571Y-77984047D01*
X151196523Y-77863095D01*
X151257000Y-77742142D01*
X151317476Y-77500238D01*
X151317476Y-77318809D01*
X151257000Y-77076904D01*
X151196523Y-76955952D01*
X151075571Y-76835000D01*
X150894142Y-76774523D01*
X150773190Y-76774523D01*
X150591761Y-76835000D01*
X150531285Y-76895476D01*
X149321761Y-78044523D02*
X150047476Y-78044523D01*
X149684619Y-78044523D02*
X149684619Y-76774523D01*
X149805571Y-76955952D01*
X149926523Y-77076904D01*
X150047476Y-77137380D01*
%TO.C,IC2*%
X164158153Y-52397608D02*
X162888153Y-52397608D01*
X164037201Y-53728084D02*
X164097677Y-53667608D01*
X164158153Y-53486179D01*
X164158153Y-53365227D01*
X164097677Y-53183798D01*
X163976725Y-53062846D01*
X163855772Y-53002370D01*
X163613868Y-52941893D01*
X163432439Y-52941893D01*
X163190534Y-53002370D01*
X163069582Y-53062846D01*
X162948630Y-53183798D01*
X162888153Y-53365227D01*
X162888153Y-53486179D01*
X162948630Y-53667608D01*
X163009106Y-53728084D01*
X163009106Y-54211893D02*
X162948630Y-54272370D01*
X162888153Y-54393322D01*
X162888153Y-54695703D01*
X162948630Y-54816655D01*
X163009106Y-54877131D01*
X163130058Y-54937608D01*
X163251010Y-54937608D01*
X163432439Y-54877131D01*
X164158153Y-54151417D01*
X164158153Y-54937608D01*
%TO.C,U5*%
X171008523Y-96441380D02*
X172036619Y-96441380D01*
X172157571Y-96501857D01*
X172218047Y-96562333D01*
X172278523Y-96683285D01*
X172278523Y-96925190D01*
X172218047Y-97046142D01*
X172157571Y-97106619D01*
X172036619Y-97167095D01*
X171008523Y-97167095D01*
X171008523Y-98376619D02*
X171008523Y-97771857D01*
X171613285Y-97711380D01*
X171552809Y-97771857D01*
X171492333Y-97892809D01*
X171492333Y-98195190D01*
X171552809Y-98316142D01*
X171613285Y-98376619D01*
X171734238Y-98437095D01*
X172036619Y-98437095D01*
X172157571Y-98376619D01*
X172218047Y-98316142D01*
X172278523Y-98195190D01*
X172278523Y-97892809D01*
X172218047Y-97771857D01*
X172157571Y-97711380D01*
%TO.C,U4*%
X168849523Y-86535380D02*
X169877619Y-86535380D01*
X169998571Y-86595857D01*
X170059047Y-86656333D01*
X170119523Y-86777285D01*
X170119523Y-87019190D01*
X170059047Y-87140142D01*
X169998571Y-87200619D01*
X169877619Y-87261095D01*
X168849523Y-87261095D01*
X169272857Y-88410142D02*
X170119523Y-88410142D01*
X168789047Y-88107761D02*
X169696190Y-87805380D01*
X169696190Y-88591571D01*
%TO.C,U3*%
X176977523Y-86662380D02*
X178005619Y-86662380D01*
X178126571Y-86722857D01*
X178187047Y-86783333D01*
X178247523Y-86904285D01*
X178247523Y-87146190D01*
X178187047Y-87267142D01*
X178126571Y-87327619D01*
X178005619Y-87388095D01*
X176977523Y-87388095D01*
X176977523Y-87871904D02*
X176977523Y-88658095D01*
X177461333Y-88234761D01*
X177461333Y-88416190D01*
X177521809Y-88537142D01*
X177582285Y-88597619D01*
X177703238Y-88658095D01*
X178005619Y-88658095D01*
X178126571Y-88597619D01*
X178187047Y-88537142D01*
X178247523Y-88416190D01*
X178247523Y-88053333D01*
X178187047Y-87932380D01*
X178126571Y-87871904D01*
%TO.C,R11*%
D14*
X170314857Y-77245380D02*
X170648190Y-76769190D01*
X170886285Y-77245380D02*
X170886285Y-76245380D01*
X170505333Y-76245380D01*
X170410095Y-76293000D01*
X170362476Y-76340619D01*
X170314857Y-76435857D01*
X170314857Y-76578714D01*
X170362476Y-76673952D01*
X170410095Y-76721571D01*
X170505333Y-76769190D01*
X170886285Y-76769190D01*
X169362476Y-77245380D02*
X169933904Y-77245380D01*
X169648190Y-77245380D02*
X169648190Y-76245380D01*
X169743428Y-76388238D01*
X169838666Y-76483476D01*
X169933904Y-76531095D01*
X168410095Y-77245380D02*
X168981523Y-77245380D01*
X168695809Y-77245380D02*
X168695809Y-76245380D01*
X168791047Y-76388238D01*
X168886285Y-76483476D01*
X168981523Y-76531095D01*
%TO.C,R10*%
X177680857Y-74324380D02*
X178014190Y-73848190D01*
X178252285Y-74324380D02*
X178252285Y-73324380D01*
X177871333Y-73324380D01*
X177776095Y-73372000D01*
X177728476Y-73419619D01*
X177680857Y-73514857D01*
X177680857Y-73657714D01*
X177728476Y-73752952D01*
X177776095Y-73800571D01*
X177871333Y-73848190D01*
X178252285Y-73848190D01*
X176728476Y-74324380D02*
X177299904Y-74324380D01*
X177014190Y-74324380D02*
X177014190Y-73324380D01*
X177109428Y-73467238D01*
X177204666Y-73562476D01*
X177299904Y-73610095D01*
X176109428Y-73324380D02*
X176014190Y-73324380D01*
X175918952Y-73372000D01*
X175871333Y-73419619D01*
X175823714Y-73514857D01*
X175776095Y-73705333D01*
X175776095Y-73943428D01*
X175823714Y-74133904D01*
X175871333Y-74229142D01*
X175918952Y-74276761D01*
X176014190Y-74324380D01*
X176109428Y-74324380D01*
X176204666Y-74276761D01*
X176252285Y-74229142D01*
X176299904Y-74133904D01*
X176347523Y-73943428D01*
X176347523Y-73705333D01*
X176299904Y-73514857D01*
X176252285Y-73419619D01*
X176204666Y-73372000D01*
X176109428Y-73324380D01*
%TO.C,R9*%
X169203666Y-71995380D02*
X169537000Y-71519190D01*
X169775095Y-71995380D02*
X169775095Y-70995380D01*
X169394142Y-70995380D01*
X169298904Y-71043000D01*
X169251285Y-71090619D01*
X169203666Y-71185857D01*
X169203666Y-71328714D01*
X169251285Y-71423952D01*
X169298904Y-71471571D01*
X169394142Y-71519190D01*
X169775095Y-71519190D01*
X168727476Y-71995380D02*
X168537000Y-71995380D01*
X168441761Y-71947761D01*
X168394142Y-71900142D01*
X168298904Y-71757285D01*
X168251285Y-71566809D01*
X168251285Y-71185857D01*
X168298904Y-71090619D01*
X168346523Y-71043000D01*
X168441761Y-70995380D01*
X168632238Y-70995380D01*
X168727476Y-71043000D01*
X168775095Y-71090619D01*
X168822714Y-71185857D01*
X168822714Y-71423952D01*
X168775095Y-71519190D01*
X168727476Y-71566809D01*
X168632238Y-71614428D01*
X168441761Y-71614428D01*
X168346523Y-71566809D01*
X168298904Y-71519190D01*
X168251285Y-71423952D01*
%TO.C,R8*%
X176135380Y-70979333D02*
X175659190Y-70646000D01*
X176135380Y-70407904D02*
X175135380Y-70407904D01*
X175135380Y-70788857D01*
X175183000Y-70884095D01*
X175230619Y-70931714D01*
X175325857Y-70979333D01*
X175468714Y-70979333D01*
X175563952Y-70931714D01*
X175611571Y-70884095D01*
X175659190Y-70788857D01*
X175659190Y-70407904D01*
X175563952Y-71550761D02*
X175516333Y-71455523D01*
X175468714Y-71407904D01*
X175373476Y-71360285D01*
X175325857Y-71360285D01*
X175230619Y-71407904D01*
X175183000Y-71455523D01*
X175135380Y-71550761D01*
X175135380Y-71741238D01*
X175183000Y-71836476D01*
X175230619Y-71884095D01*
X175325857Y-71931714D01*
X175373476Y-71931714D01*
X175468714Y-71884095D01*
X175516333Y-71836476D01*
X175563952Y-71741238D01*
X175563952Y-71550761D01*
X175611571Y-71455523D01*
X175659190Y-71407904D01*
X175754428Y-71360285D01*
X175944904Y-71360285D01*
X176040142Y-71407904D01*
X176087761Y-71455523D01*
X176135380Y-71550761D01*
X176135380Y-71741238D01*
X176087761Y-71836476D01*
X176040142Y-71884095D01*
X175944904Y-71931714D01*
X175754428Y-71931714D01*
X175659190Y-71884095D01*
X175611571Y-71836476D01*
X175563952Y-71741238D01*
%TO.C,R6*%
X166979166Y-106836380D02*
X167312500Y-106360190D01*
X167550595Y-106836380D02*
X167550595Y-105836380D01*
X167169642Y-105836380D01*
X167074404Y-105884000D01*
X167026785Y-105931619D01*
X166979166Y-106026857D01*
X166979166Y-106169714D01*
X167026785Y-106264952D01*
X167074404Y-106312571D01*
X167169642Y-106360190D01*
X167550595Y-106360190D01*
X166122023Y-105836380D02*
X166312500Y-105836380D01*
X166407738Y-105884000D01*
X166455357Y-105931619D01*
X166550595Y-106074476D01*
X166598214Y-106264952D01*
X166598214Y-106645904D01*
X166550595Y-106741142D01*
X166502976Y-106788761D01*
X166407738Y-106836380D01*
X166217261Y-106836380D01*
X166122023Y-106788761D01*
X166074404Y-106741142D01*
X166026785Y-106645904D01*
X166026785Y-106407809D01*
X166074404Y-106312571D01*
X166122023Y-106264952D01*
X166217261Y-106217333D01*
X166407738Y-106217333D01*
X166502976Y-106264952D01*
X166550595Y-106312571D01*
X166598214Y-106407809D01*
%TO.C,R5*%
X152429380Y-70002833D02*
X151953190Y-69669500D01*
X152429380Y-69431404D02*
X151429380Y-69431404D01*
X151429380Y-69812357D01*
X151477000Y-69907595D01*
X151524619Y-69955214D01*
X151619857Y-70002833D01*
X151762714Y-70002833D01*
X151857952Y-69955214D01*
X151905571Y-69907595D01*
X151953190Y-69812357D01*
X151953190Y-69431404D01*
X151429380Y-70907595D02*
X151429380Y-70431404D01*
X151905571Y-70383785D01*
X151857952Y-70431404D01*
X151810333Y-70526642D01*
X151810333Y-70764738D01*
X151857952Y-70859976D01*
X151905571Y-70907595D01*
X152000809Y-70955214D01*
X152238904Y-70955214D01*
X152334142Y-70907595D01*
X152381761Y-70859976D01*
X152429380Y-70764738D01*
X152429380Y-70526642D01*
X152381761Y-70431404D01*
X152334142Y-70383785D01*
%TO.C,R4*%
X152439666Y-85711380D02*
X152773000Y-85235190D01*
X153011095Y-85711380D02*
X153011095Y-84711380D01*
X152630142Y-84711380D01*
X152534904Y-84759000D01*
X152487285Y-84806619D01*
X152439666Y-84901857D01*
X152439666Y-85044714D01*
X152487285Y-85139952D01*
X152534904Y-85187571D01*
X152630142Y-85235190D01*
X153011095Y-85235190D01*
X151582523Y-85044714D02*
X151582523Y-85711380D01*
X151820619Y-84663761D02*
X152058714Y-85378047D01*
X151439666Y-85378047D01*
%TO.C,R3*%
X174527380Y-58191833D02*
X174051190Y-57858500D01*
X174527380Y-57620404D02*
X173527380Y-57620404D01*
X173527380Y-58001357D01*
X173575000Y-58096595D01*
X173622619Y-58144214D01*
X173717857Y-58191833D01*
X173860714Y-58191833D01*
X173955952Y-58144214D01*
X174003571Y-58096595D01*
X174051190Y-58001357D01*
X174051190Y-57620404D01*
X173527380Y-58525166D02*
X173527380Y-59144214D01*
X173908333Y-58810880D01*
X173908333Y-58953738D01*
X173955952Y-59048976D01*
X174003571Y-59096595D01*
X174098809Y-59144214D01*
X174336904Y-59144214D01*
X174432142Y-59096595D01*
X174479761Y-59048976D01*
X174527380Y-58953738D01*
X174527380Y-58668023D01*
X174479761Y-58572785D01*
X174432142Y-58525166D01*
%TO.C,R2*%
X171352380Y-58191833D02*
X170876190Y-57858500D01*
X171352380Y-57620404D02*
X170352380Y-57620404D01*
X170352380Y-58001357D01*
X170400000Y-58096595D01*
X170447619Y-58144214D01*
X170542857Y-58191833D01*
X170685714Y-58191833D01*
X170780952Y-58144214D01*
X170828571Y-58096595D01*
X170876190Y-58001357D01*
X170876190Y-57620404D01*
X170447619Y-58572785D02*
X170400000Y-58620404D01*
X170352380Y-58715642D01*
X170352380Y-58953738D01*
X170400000Y-59048976D01*
X170447619Y-59096595D01*
X170542857Y-59144214D01*
X170638095Y-59144214D01*
X170780952Y-59096595D01*
X171352380Y-58525166D01*
X171352380Y-59144214D01*
%TO.C,R1*%
X171362666Y-56247380D02*
X171696000Y-55771190D01*
X171934095Y-56247380D02*
X171934095Y-55247380D01*
X171553142Y-55247380D01*
X171457904Y-55295000D01*
X171410285Y-55342619D01*
X171362666Y-55437857D01*
X171362666Y-55580714D01*
X171410285Y-55675952D01*
X171457904Y-55723571D01*
X171553142Y-55771190D01*
X171934095Y-55771190D01*
X170410285Y-56247380D02*
X170981714Y-56247380D01*
X170696000Y-56247380D02*
X170696000Y-55247380D01*
X170791238Y-55390238D01*
X170886476Y-55485476D01*
X170981714Y-55533095D01*
%TO.C,Q2*%
D12*
X169239476Y-74108047D02*
X169179000Y-73987095D01*
X169058047Y-73866142D01*
X168876619Y-73684714D01*
X168816142Y-73563761D01*
X168816142Y-73442809D01*
X169118523Y-73503285D02*
X169058047Y-73382333D01*
X168937095Y-73261380D01*
X168695190Y-73200904D01*
X168271857Y-73200904D01*
X168029952Y-73261380D01*
X167909000Y-73382333D01*
X167848523Y-73503285D01*
X167848523Y-73745190D01*
X167909000Y-73866142D01*
X168029952Y-73987095D01*
X168271857Y-74047571D01*
X168695190Y-74047571D01*
X168937095Y-73987095D01*
X169058047Y-73866142D01*
X169118523Y-73745190D01*
X169118523Y-73503285D01*
X167969476Y-74531380D02*
X167909000Y-74591857D01*
X167848523Y-74712809D01*
X167848523Y-75015190D01*
X167909000Y-75136142D01*
X167969476Y-75196619D01*
X168090428Y-75257095D01*
X168211380Y-75257095D01*
X168392809Y-75196619D01*
X169118523Y-74470904D01*
X169118523Y-75257095D01*
%TO.C,Q1*%
X175828476Y-71507047D02*
X175768000Y-71386095D01*
X175647047Y-71265142D01*
X175465619Y-71083714D01*
X175405142Y-70962761D01*
X175405142Y-70841809D01*
X175707523Y-70902285D02*
X175647047Y-70781333D01*
X175526095Y-70660380D01*
X175284190Y-70599904D01*
X174860857Y-70599904D01*
X174618952Y-70660380D01*
X174498000Y-70781333D01*
X174437523Y-70902285D01*
X174437523Y-71144190D01*
X174498000Y-71265142D01*
X174618952Y-71386095D01*
X174860857Y-71446571D01*
X175284190Y-71446571D01*
X175526095Y-71386095D01*
X175647047Y-71265142D01*
X175707523Y-71144190D01*
X175707523Y-70902285D01*
X175707523Y-72656095D02*
X175707523Y-71930380D01*
X175707523Y-72293238D02*
X174437523Y-72293238D01*
X174618952Y-72172285D01*
X174739904Y-72051333D01*
X174800380Y-71930380D01*
%TO.C,D1*%
D14*
X149833095Y-52691380D02*
X149833095Y-51691380D01*
X149595000Y-51691380D01*
X149452142Y-51739000D01*
X149356904Y-51834238D01*
X149309285Y-51929476D01*
X149261666Y-52119952D01*
X149261666Y-52262809D01*
X149309285Y-52453285D01*
X149356904Y-52548523D01*
X149452142Y-52643761D01*
X149595000Y-52691380D01*
X149833095Y-52691380D01*
X148309285Y-52691380D02*
X148880714Y-52691380D01*
X148595000Y-52691380D02*
X148595000Y-51691380D01*
X148690238Y-51834238D01*
X148785476Y-51929476D01*
X148880714Y-51977095D01*
%TO.C,CopAMP2*%
X163116142Y-102496071D02*
X163163761Y-102448452D01*
X163211380Y-102305595D01*
X163211380Y-102210357D01*
X163163761Y-102067500D01*
X163068523Y-101972261D01*
X162973285Y-101924642D01*
X162782809Y-101877023D01*
X162639952Y-101877023D01*
X162449476Y-101924642D01*
X162354238Y-101972261D01*
X162259000Y-102067500D01*
X162211380Y-102210357D01*
X162211380Y-102305595D01*
X162259000Y-102448452D01*
X162306619Y-102496071D01*
X163211380Y-103067500D02*
X163163761Y-102972261D01*
X163116142Y-102924642D01*
X163020904Y-102877023D01*
X162735190Y-102877023D01*
X162639952Y-102924642D01*
X162592333Y-102972261D01*
X162544714Y-103067500D01*
X162544714Y-103210357D01*
X162592333Y-103305595D01*
X162639952Y-103353214D01*
X162735190Y-103400833D01*
X163020904Y-103400833D01*
X163116142Y-103353214D01*
X163163761Y-103305595D01*
X163211380Y-103210357D01*
X163211380Y-103067500D01*
X162544714Y-103829404D02*
X163544714Y-103829404D01*
X162592333Y-103829404D02*
X162544714Y-103924642D01*
X162544714Y-104115119D01*
X162592333Y-104210357D01*
X162639952Y-104257976D01*
X162735190Y-104305595D01*
X163020904Y-104305595D01*
X163116142Y-104257976D01*
X163163761Y-104210357D01*
X163211380Y-104115119D01*
X163211380Y-103924642D01*
X163163761Y-103829404D01*
X162925666Y-104686547D02*
X162925666Y-105162738D01*
X163211380Y-104591309D02*
X162211380Y-104924642D01*
X163211380Y-105257976D01*
X163211380Y-105591309D02*
X162211380Y-105591309D01*
X162925666Y-105924642D01*
X162211380Y-106257976D01*
X163211380Y-106257976D01*
X163211380Y-106734166D02*
X162211380Y-106734166D01*
X162211380Y-107115119D01*
X162259000Y-107210357D01*
X162306619Y-107257976D01*
X162401857Y-107305595D01*
X162544714Y-107305595D01*
X162639952Y-107257976D01*
X162687571Y-107210357D01*
X162735190Y-107115119D01*
X162735190Y-106734166D01*
X162306619Y-107686547D02*
X162259000Y-107734166D01*
X162211380Y-107829404D01*
X162211380Y-108067500D01*
X162259000Y-108162738D01*
X162306619Y-108210357D01*
X162401857Y-108257976D01*
X162497095Y-108257976D01*
X162639952Y-108210357D01*
X163211380Y-107638928D01*
X163211380Y-108257976D01*
%TO.C,CopAMP1*%
X158544142Y-102457571D02*
X158591761Y-102409952D01*
X158639380Y-102267095D01*
X158639380Y-102171857D01*
X158591761Y-102029000D01*
X158496523Y-101933761D01*
X158401285Y-101886142D01*
X158210809Y-101838523D01*
X158067952Y-101838523D01*
X157877476Y-101886142D01*
X157782238Y-101933761D01*
X157687000Y-102029000D01*
X157639380Y-102171857D01*
X157639380Y-102267095D01*
X157687000Y-102409952D01*
X157734619Y-102457571D01*
X158639380Y-103029000D02*
X158591761Y-102933761D01*
X158544142Y-102886142D01*
X158448904Y-102838523D01*
X158163190Y-102838523D01*
X158067952Y-102886142D01*
X158020333Y-102933761D01*
X157972714Y-103029000D01*
X157972714Y-103171857D01*
X158020333Y-103267095D01*
X158067952Y-103314714D01*
X158163190Y-103362333D01*
X158448904Y-103362333D01*
X158544142Y-103314714D01*
X158591761Y-103267095D01*
X158639380Y-103171857D01*
X158639380Y-103029000D01*
X157972714Y-103790904D02*
X158972714Y-103790904D01*
X158020333Y-103790904D02*
X157972714Y-103886142D01*
X157972714Y-104076619D01*
X158020333Y-104171857D01*
X158067952Y-104219476D01*
X158163190Y-104267095D01*
X158448904Y-104267095D01*
X158544142Y-104219476D01*
X158591761Y-104171857D01*
X158639380Y-104076619D01*
X158639380Y-103886142D01*
X158591761Y-103790904D01*
X158353666Y-104648047D02*
X158353666Y-105124238D01*
X158639380Y-104552809D02*
X157639380Y-104886142D01*
X158639380Y-105219476D01*
X158639380Y-105552809D02*
X157639380Y-105552809D01*
X158353666Y-105886142D01*
X157639380Y-106219476D01*
X158639380Y-106219476D01*
X158639380Y-106695666D02*
X157639380Y-106695666D01*
X157639380Y-107076619D01*
X157687000Y-107171857D01*
X157734619Y-107219476D01*
X157829857Y-107267095D01*
X157972714Y-107267095D01*
X158067952Y-107219476D01*
X158115571Y-107171857D01*
X158163190Y-107076619D01*
X158163190Y-106695666D01*
X158639380Y-108219476D02*
X158639380Y-107648047D01*
X158639380Y-107933761D02*
X157639380Y-107933761D01*
X157782238Y-107838523D01*
X157877476Y-107743285D01*
X157925095Y-107648047D01*
%TO.C,C21*%
X161932857Y-82835142D02*
X161980476Y-82882761D01*
X162123333Y-82930380D01*
X162218571Y-82930380D01*
X162361428Y-82882761D01*
X162456666Y-82787523D01*
X162504285Y-82692285D01*
X162551904Y-82501809D01*
X162551904Y-82358952D01*
X162504285Y-82168476D01*
X162456666Y-82073238D01*
X162361428Y-81978000D01*
X162218571Y-81930380D01*
X162123333Y-81930380D01*
X161980476Y-81978000D01*
X161932857Y-82025619D01*
X161551904Y-82025619D02*
X161504285Y-81978000D01*
X161409047Y-81930380D01*
X161170952Y-81930380D01*
X161075714Y-81978000D01*
X161028095Y-82025619D01*
X160980476Y-82120857D01*
X160980476Y-82216095D01*
X161028095Y-82358952D01*
X161599523Y-82930380D01*
X160980476Y-82930380D01*
X160028095Y-82930380D02*
X160599523Y-82930380D01*
X160313809Y-82930380D02*
X160313809Y-81930380D01*
X160409047Y-82073238D01*
X160504285Y-82168476D01*
X160599523Y-82216095D01*
%TO.C,C20*%
X161894357Y-87661142D02*
X161941976Y-87708761D01*
X162084833Y-87756380D01*
X162180071Y-87756380D01*
X162322928Y-87708761D01*
X162418166Y-87613523D01*
X162465785Y-87518285D01*
X162513404Y-87327809D01*
X162513404Y-87184952D01*
X162465785Y-86994476D01*
X162418166Y-86899238D01*
X162322928Y-86804000D01*
X162180071Y-86756380D01*
X162084833Y-86756380D01*
X161941976Y-86804000D01*
X161894357Y-86851619D01*
X161513404Y-86851619D02*
X161465785Y-86804000D01*
X161370547Y-86756380D01*
X161132452Y-86756380D01*
X161037214Y-86804000D01*
X160989595Y-86851619D01*
X160941976Y-86946857D01*
X160941976Y-87042095D01*
X160989595Y-87184952D01*
X161561023Y-87756380D01*
X160941976Y-87756380D01*
X160322928Y-86756380D02*
X160227690Y-86756380D01*
X160132452Y-86804000D01*
X160084833Y-86851619D01*
X160037214Y-86946857D01*
X159989595Y-87137333D01*
X159989595Y-87375428D01*
X160037214Y-87565904D01*
X160084833Y-87661142D01*
X160132452Y-87708761D01*
X160227690Y-87756380D01*
X160322928Y-87756380D01*
X160418166Y-87708761D01*
X160465785Y-87661142D01*
X160513404Y-87565904D01*
X160561023Y-87375428D01*
X160561023Y-87137333D01*
X160513404Y-86946857D01*
X160465785Y-86851619D01*
X160418166Y-86804000D01*
X160322928Y-86756380D01*
%TO.C,C15*%
X178188857Y-98710142D02*
X178236476Y-98757761D01*
X178379333Y-98805380D01*
X178474571Y-98805380D01*
X178617428Y-98757761D01*
X178712666Y-98662523D01*
X178760285Y-98567285D01*
X178807904Y-98376809D01*
X178807904Y-98233952D01*
X178760285Y-98043476D01*
X178712666Y-97948238D01*
X178617428Y-97853000D01*
X178474571Y-97805380D01*
X178379333Y-97805380D01*
X178236476Y-97853000D01*
X178188857Y-97900619D01*
X177236476Y-98805380D02*
X177807904Y-98805380D01*
X177522190Y-98805380D02*
X177522190Y-97805380D01*
X177617428Y-97948238D01*
X177712666Y-98043476D01*
X177807904Y-98091095D01*
X176331714Y-97805380D02*
X176807904Y-97805380D01*
X176855523Y-98281571D01*
X176807904Y-98233952D01*
X176712666Y-98186333D01*
X176474571Y-98186333D01*
X176379333Y-98233952D01*
X176331714Y-98281571D01*
X176284095Y-98376809D01*
X176284095Y-98614904D01*
X176331714Y-98710142D01*
X176379333Y-98757761D01*
X176474571Y-98805380D01*
X176712666Y-98805380D01*
X176807904Y-98757761D01*
X176855523Y-98710142D01*
%TO.C,C14*%
X178227357Y-93884142D02*
X178274976Y-93931761D01*
X178417833Y-93979380D01*
X178513071Y-93979380D01*
X178655928Y-93931761D01*
X178751166Y-93836523D01*
X178798785Y-93741285D01*
X178846404Y-93550809D01*
X178846404Y-93407952D01*
X178798785Y-93217476D01*
X178751166Y-93122238D01*
X178655928Y-93027000D01*
X178513071Y-92979380D01*
X178417833Y-92979380D01*
X178274976Y-93027000D01*
X178227357Y-93074619D01*
X177274976Y-93979380D02*
X177846404Y-93979380D01*
X177560690Y-93979380D02*
X177560690Y-92979380D01*
X177655928Y-93122238D01*
X177751166Y-93217476D01*
X177846404Y-93265095D01*
X176417833Y-93312714D02*
X176417833Y-93979380D01*
X176655928Y-92931761D02*
X176894023Y-93646047D01*
X176274976Y-93646047D01*
%TO.C,C12*%
X173870857Y-110411142D02*
X173918476Y-110458761D01*
X174061333Y-110506380D01*
X174156571Y-110506380D01*
X174299428Y-110458761D01*
X174394666Y-110363523D01*
X174442285Y-110268285D01*
X174489904Y-110077809D01*
X174489904Y-109934952D01*
X174442285Y-109744476D01*
X174394666Y-109649238D01*
X174299428Y-109554000D01*
X174156571Y-109506380D01*
X174061333Y-109506380D01*
X173918476Y-109554000D01*
X173870857Y-109601619D01*
X172918476Y-110506380D02*
X173489904Y-110506380D01*
X173204190Y-110506380D02*
X173204190Y-109506380D01*
X173299428Y-109649238D01*
X173394666Y-109744476D01*
X173489904Y-109792095D01*
X172537523Y-109601619D02*
X172489904Y-109554000D01*
X172394666Y-109506380D01*
X172156571Y-109506380D01*
X172061333Y-109554000D01*
X172013714Y-109601619D01*
X171966095Y-109696857D01*
X171966095Y-109792095D01*
X172013714Y-109934952D01*
X172585142Y-110506380D01*
X171966095Y-110506380D01*
%TO.C,C11*%
X148511142Y-69626642D02*
X148558761Y-69579023D01*
X148606380Y-69436166D01*
X148606380Y-69340928D01*
X148558761Y-69198071D01*
X148463523Y-69102833D01*
X148368285Y-69055214D01*
X148177809Y-69007595D01*
X148034952Y-69007595D01*
X147844476Y-69055214D01*
X147749238Y-69102833D01*
X147654000Y-69198071D01*
X147606380Y-69340928D01*
X147606380Y-69436166D01*
X147654000Y-69579023D01*
X147701619Y-69626642D01*
X148606380Y-70579023D02*
X148606380Y-70007595D01*
X148606380Y-70293309D02*
X147606380Y-70293309D01*
X147749238Y-70198071D01*
X147844476Y-70102833D01*
X147892095Y-70007595D01*
X148606380Y-71531404D02*
X148606380Y-70959976D01*
X148606380Y-71245690D02*
X147606380Y-71245690D01*
X147749238Y-71150452D01*
X147844476Y-71055214D01*
X147892095Y-70959976D01*
%TO.C,C10*%
X149256142Y-69626642D02*
X149303761Y-69579023D01*
X149351380Y-69436166D01*
X149351380Y-69340928D01*
X149303761Y-69198071D01*
X149208523Y-69102833D01*
X149113285Y-69055214D01*
X148922809Y-69007595D01*
X148779952Y-69007595D01*
X148589476Y-69055214D01*
X148494238Y-69102833D01*
X148399000Y-69198071D01*
X148351380Y-69340928D01*
X148351380Y-69436166D01*
X148399000Y-69579023D01*
X148446619Y-69626642D01*
X149351380Y-70579023D02*
X149351380Y-70007595D01*
X149351380Y-70293309D02*
X148351380Y-70293309D01*
X148494238Y-70198071D01*
X148589476Y-70102833D01*
X148637095Y-70007595D01*
X148351380Y-71198071D02*
X148351380Y-71293309D01*
X148399000Y-71388547D01*
X148446619Y-71436166D01*
X148541857Y-71483785D01*
X148732333Y-71531404D01*
X148970428Y-71531404D01*
X149160904Y-71483785D01*
X149256142Y-71436166D01*
X149303761Y-71388547D01*
X149351380Y-71293309D01*
X149351380Y-71198071D01*
X149303761Y-71102833D01*
X149256142Y-71055214D01*
X149160904Y-71007595D01*
X148970428Y-70959976D01*
X148732333Y-70959976D01*
X148541857Y-71007595D01*
X148446619Y-71055214D01*
X148399000Y-71102833D01*
X148351380Y-71198071D01*
%TO.C,C7*%
X145463142Y-62571333D02*
X145510761Y-62523714D01*
X145558380Y-62380857D01*
X145558380Y-62285619D01*
X145510761Y-62142761D01*
X145415523Y-62047523D01*
X145320285Y-61999904D01*
X145129809Y-61952285D01*
X144986952Y-61952285D01*
X144796476Y-61999904D01*
X144701238Y-62047523D01*
X144606000Y-62142761D01*
X144558380Y-62285619D01*
X144558380Y-62380857D01*
X144606000Y-62523714D01*
X144653619Y-62571333D01*
X144558380Y-62904666D02*
X144558380Y-63571333D01*
X145558380Y-63142761D01*
%TO.C,C6*%
X149391666Y-60500142D02*
X149439285Y-60547761D01*
X149582142Y-60595380D01*
X149677380Y-60595380D01*
X149820238Y-60547761D01*
X149915476Y-60452523D01*
X149963095Y-60357285D01*
X150010714Y-60166809D01*
X150010714Y-60023952D01*
X149963095Y-59833476D01*
X149915476Y-59738238D01*
X149820238Y-59643000D01*
X149677380Y-59595380D01*
X149582142Y-59595380D01*
X149439285Y-59643000D01*
X149391666Y-59690619D01*
X148534523Y-59595380D02*
X148725000Y-59595380D01*
X148820238Y-59643000D01*
X148867857Y-59690619D01*
X148963095Y-59833476D01*
X149010714Y-60023952D01*
X149010714Y-60404904D01*
X148963095Y-60500142D01*
X148915476Y-60547761D01*
X148820238Y-60595380D01*
X148629761Y-60595380D01*
X148534523Y-60547761D01*
X148486904Y-60500142D01*
X148439285Y-60404904D01*
X148439285Y-60166809D01*
X148486904Y-60071571D01*
X148534523Y-60023952D01*
X148629761Y-59976333D01*
X148820238Y-59976333D01*
X148915476Y-60023952D01*
X148963095Y-60071571D01*
X149010714Y-60166809D01*
%TD*%
M02*
