%TF.GenerationSoftware,KiCad,Pcbnew,(5.1.12)-1*%
%TF.CreationDate,2021-12-15T12:49:01+01:00*%
%TF.ProjectId,HorseFOT_thomas_v1,486f7273-6546-44f5-945f-74686f6d6173,rev?*%
%TF.SameCoordinates,Original*%
%TF.FileFunction,Copper,L1,Top*%
%TF.FilePolarity,Positive*%
%FSLAX46Y46*%
G04 Gerber Fmt 4.6, Leading zero omitted, Abs format (unit mm)*
G04 Created by KiCad (PCBNEW (5.1.12)-1) date 2021-12-15 12:49:01*
%MOMM*%
%LPD*%
G01*
G04 APERTURE LIST*
%TA.AperFunction,SMDPad,CuDef*%
%ADD10R,1.200000X1.200000*%
%TD*%
%TA.AperFunction,SMDPad,CuDef*%
%ADD11R,1.400000X2.700000*%
%TD*%
%TA.AperFunction,SMDPad,CuDef*%
%ADD12R,2.600000X1.500000*%
%TD*%
%TA.AperFunction,SMDPad,CuDef*%
%ADD13R,2.600000X1.000000*%
%TD*%
%TA.AperFunction,SMDPad,CuDef*%
%ADD14R,2.000000X0.700000*%
%TD*%
%TA.AperFunction,SMDPad,CuDef*%
%ADD15R,1.750000X3.200000*%
%TD*%
%TA.AperFunction,SMDPad,CuDef*%
%ADD16R,1.750000X0.950000*%
%TD*%
%TA.AperFunction,ComponentPad*%
%ADD17C,1.524000*%
%TD*%
%TA.AperFunction,ComponentPad*%
%ADD18C,3.000000*%
%TD*%
%TA.AperFunction,ComponentPad*%
%ADD19R,3.000000X3.000000*%
%TD*%
%TA.AperFunction,SMDPad,CuDef*%
%ADD20R,1.600000X4.000000*%
%TD*%
%TA.AperFunction,SMDPad,CuDef*%
%ADD21R,4.000000X1.600000*%
%TD*%
%TA.AperFunction,ViaPad*%
%ADD22C,0.800000*%
%TD*%
%TA.AperFunction,Conductor*%
%ADD23C,0.800000*%
%TD*%
%TA.AperFunction,Conductor*%
%ADD24C,0.500000*%
%TD*%
%TA.AperFunction,Conductor*%
%ADD25C,0.254000*%
%TD*%
%TA.AperFunction,Conductor*%
%ADD26C,0.100000*%
%TD*%
G04 APERTURE END LIST*
D10*
%TO.P,J2,MP5*%
%TO.N,Net-(J2-PadMP5)*%
X148309000Y-93931000D03*
D11*
%TO.P,J2,MP4*%
%TO.N,Net-(J2-PadMP4)*%
X148209000Y-90881000D03*
%TO.P,J2,MP3*%
%TO.N,Net-(J2-PadMP3)*%
X148209000Y-85981000D03*
D12*
%TO.P,J2,MP2*%
%TO.N,Net-(J2-PadMP2)*%
X136009000Y-95831000D03*
D13*
%TO.P,J2,MP1*%
%TO.N,Net-(J2-PadMP1)*%
X136009000Y-82481000D03*
D14*
%TO.P,J2,8*%
%TO.N,Net-(J2-Pad8)*%
X135509000Y-84581000D03*
%TO.P,J2,7*%
%TO.N,SD_MISO*%
X135509000Y-85681000D03*
%TO.P,J2,6*%
%TO.N,GND*%
X135509000Y-86781000D03*
%TO.P,J2,5*%
%TO.N,SD_CLK*%
X135509000Y-87881000D03*
%TO.P,J2,4*%
%TO.N,5V*%
X135509000Y-88981000D03*
%TO.P,J2,3*%
%TO.N,SD_MOSI*%
X135509000Y-90081000D03*
%TO.P,J2,2*%
%TO.N,SD_CS*%
X135509000Y-91181000D03*
%TO.P,J2,1*%
%TO.N,Net-(J2-Pad1)*%
X135509000Y-92281000D03*
%TD*%
D15*
%TO.P,U2,4*%
%TO.N,N/C*%
X153137000Y-64643000D03*
D16*
%TO.P,U2,3*%
%TO.N,5V*%
X146837000Y-66943000D03*
%TO.P,U2,2*%
%TO.N,GND*%
X146837000Y-64643000D03*
%TO.P,U2,1*%
%TO.N,Net-(C5-Pad1)*%
X146837000Y-62343000D03*
%TD*%
D17*
%TO.P,ESP32-TTGO_vT1,25*%
%TO.N,SPI_SENS_D1*%
X181483000Y-65278000D03*
%TO.P,ESP32-TTGO_vT1,43*%
%TO.N,N/C*%
X158115000Y-47498000D03*
%TO.P,ESP32-TTGO_vT1,0*%
%TO.N,GND*%
X158115000Y-50038000D03*
%TO.P,ESP32-TTGO_vT1,21*%
%TO.N,I2C_SENS_D*%
X158115000Y-52578000D03*
%TO.P,ESP32-TTGO_vT1,22*%
%TO.N,I2C_SENS_CLK*%
X158115000Y-55118000D03*
%TO.P,ESP32-TTGO_vT1,17*%
%TO.N,Net-(ESP32-TTGO_vT1-Pad17)*%
X158115000Y-57658000D03*
%TO.P,ESP32-TTGO_vT1,2*%
%TO.N,PWM_MOTOR_OUT*%
X158115000Y-60198000D03*
%TO.P,ESP32-TTGO_vT1,15*%
%TO.N,SD_CS*%
X158115000Y-62738000D03*
%TO.P,ESP32-TTGO_vT1,13*%
%TO.N,SD_MOSI*%
X158115000Y-65278000D03*
%TO.P,ESP32-TTGO_vT1,12*%
%TO.N,SD_MISO*%
X158115000Y-67818000D03*
%TO.P,ESP32-TTGO_vT1,0*%
%TO.N,GND*%
X158115000Y-70358000D03*
X158115000Y-72898000D03*
%TO.P,ESP32-TTGO_vT1,50*%
%TO.N,3.3V*%
X158115000Y-75438000D03*
X181483000Y-47498000D03*
%TO.P,ESP32-TTGO_vT1,36*%
%TO.N,Net-(ESP32-TTGO_vT1-Pad36)*%
X181483000Y-50038000D03*
%TO.P,ESP32-TTGO_vT1,37*%
%TO.N,SD_CLK*%
X181483000Y-52578000D03*
%TO.P,ESP32-TTGO_vT1,38*%
%TO.N,Net-(ESP32-TTGO_vT1-Pad38)*%
X181483000Y-55118000D03*
%TO.P,ESP32-TTGO_vT1,39*%
%TO.N,Net-(ESP32-TTGO_vT1-Pad39)*%
X181483000Y-57658000D03*
%TO.P,ESP32-TTGO_vT1,32*%
%TO.N,BATTERY_LVL*%
X181483000Y-60198000D03*
%TO.P,ESP32-TTGO_vT1,33*%
%TO.N,SPI_SENS_D2*%
X181483000Y-62738000D03*
%TO.P,ESP32-TTGO_vT1,26*%
%TO.N,SPI_ESP32_CS*%
X181483000Y-67818000D03*
%TO.P,ESP32-TTGO_vT1,27*%
%TO.N,SPI_ESP32_CLK*%
X181483000Y-70358000D03*
%TO.P,ESP32-TTGO_vT1,0*%
%TO.N,GND*%
X181483000Y-72898000D03*
%TO.P,ESP32-TTGO_vT1,100*%
%TO.N,5V*%
X181483000Y-75438000D03*
%TD*%
%TO.P,R7,2*%
%TO.N,Net-(P2-Pad2)*%
%TA.AperFunction,SMDPad,CuDef*%
G36*
G01*
X164095000Y-100828002D02*
X164095000Y-99577998D01*
G75*
G02*
X164344998Y-99328000I249998J0D01*
G01*
X164970002Y-99328000D01*
G75*
G02*
X165220000Y-99577998I0J-249998D01*
G01*
X165220000Y-100828002D01*
G75*
G02*
X164970002Y-101078000I-249998J0D01*
G01*
X164344998Y-101078000D01*
G75*
G02*
X164095000Y-100828002I0J249998D01*
G01*
G37*
%TD.AperFunction*%
%TO.P,R7,1*%
%TO.N,Net-(C13-Pad1)*%
%TA.AperFunction,SMDPad,CuDef*%
G36*
G01*
X161170000Y-100828002D02*
X161170000Y-99577998D01*
G75*
G02*
X161419998Y-99328000I249998J0D01*
G01*
X162045002Y-99328000D01*
G75*
G02*
X162295000Y-99577998I0J-249998D01*
G01*
X162295000Y-100828002D01*
G75*
G02*
X162045002Y-101078000I-249998J0D01*
G01*
X161419998Y-101078000D01*
G75*
G02*
X161170000Y-100828002I0J249998D01*
G01*
G37*
%TD.AperFunction*%
%TD*%
%TO.P,P2,4*%
%TO.N,5V*%
X144272000Y-102108000D03*
%TO.P,P2,2*%
%TO.N,Net-(P2-Pad2)*%
X139192000Y-102108000D03*
%TO.P,P2,3*%
%TO.N,GND*%
X141732000Y-102108000D03*
%TO.P,P2,1*%
%TO.N,Net-(P2-Pad1)*%
X136652000Y-102108000D03*
%TD*%
%TO.P,P1,4*%
%TO.N,5V*%
X144272000Y-108204000D03*
%TO.P,P1,2*%
%TO.N,Net-(P1-Pad2)*%
X139192000Y-108204000D03*
%TO.P,P1,3*%
%TO.N,GND*%
X141732000Y-108204000D03*
%TO.P,P1,1*%
%TO.N,Net-(P1-Pad1)*%
X136652000Y-108204000D03*
%TD*%
D18*
%TO.P,J5,2*%
%TO.N,Net-(D1-Pad2)*%
X151765000Y-45339000D03*
D19*
%TO.P,J5,1*%
%TO.N,GND*%
X146685000Y-45339000D03*
%TD*%
D18*
%TO.P,J1,2*%
%TO.N,GND*%
X137795000Y-52197000D03*
D19*
%TO.P,J1,1*%
%TO.N,PWM_MOTOR_OUT*%
X137795000Y-57277000D03*
%TD*%
%TO.P,C22,2*%
%TO.N,GND*%
%TA.AperFunction,SMDPad,CuDef*%
G36*
G01*
X160351500Y-90916998D02*
X160351500Y-92217002D01*
G75*
G02*
X160101502Y-92467000I-249998J0D01*
G01*
X159276498Y-92467000D01*
G75*
G02*
X159026500Y-92217002I0J249998D01*
G01*
X159026500Y-90916998D01*
G75*
G02*
X159276498Y-90667000I249998J0D01*
G01*
X160101502Y-90667000D01*
G75*
G02*
X160351500Y-90916998I0J-249998D01*
G01*
G37*
%TD.AperFunction*%
%TO.P,C22,1*%
%TO.N,5V*%
%TA.AperFunction,SMDPad,CuDef*%
G36*
G01*
X163476500Y-90916998D02*
X163476500Y-92217002D01*
G75*
G02*
X163226502Y-92467000I-249998J0D01*
G01*
X162401498Y-92467000D01*
G75*
G02*
X162151500Y-92217002I0J249998D01*
G01*
X162151500Y-90916998D01*
G75*
G02*
X162401498Y-90667000I249998J0D01*
G01*
X163226502Y-90667000D01*
G75*
G02*
X163476500Y-90916998I0J-249998D01*
G01*
G37*
%TD.AperFunction*%
%TD*%
%TO.P,C19,2*%
%TO.N,GND*%
%TA.AperFunction,SMDPad,CuDef*%
G36*
G01*
X160390000Y-86090998D02*
X160390000Y-87391002D01*
G75*
G02*
X160140002Y-87641000I-249998J0D01*
G01*
X159314998Y-87641000D01*
G75*
G02*
X159065000Y-87391002I0J249998D01*
G01*
X159065000Y-86090998D01*
G75*
G02*
X159314998Y-85841000I249998J0D01*
G01*
X160140002Y-85841000D01*
G75*
G02*
X160390000Y-86090998I0J-249998D01*
G01*
G37*
%TD.AperFunction*%
%TO.P,C19,1*%
%TO.N,5V*%
%TA.AperFunction,SMDPad,CuDef*%
G36*
G01*
X163515000Y-86090998D02*
X163515000Y-87391002D01*
G75*
G02*
X163265002Y-87641000I-249998J0D01*
G01*
X162439998Y-87641000D01*
G75*
G02*
X162190000Y-87391002I0J249998D01*
G01*
X162190000Y-86090998D01*
G75*
G02*
X162439998Y-85841000I249998J0D01*
G01*
X163265002Y-85841000D01*
G75*
G02*
X163515000Y-86090998I0J-249998D01*
G01*
G37*
%TD.AperFunction*%
%TD*%
%TO.P,C18,2*%
%TO.N,GND*%
%TA.AperFunction,SMDPad,CuDef*%
G36*
G01*
X176646000Y-97139998D02*
X176646000Y-98440002D01*
G75*
G02*
X176396002Y-98690000I-249998J0D01*
G01*
X175570998Y-98690000D01*
G75*
G02*
X175321000Y-98440002I0J249998D01*
G01*
X175321000Y-97139998D01*
G75*
G02*
X175570998Y-96890000I249998J0D01*
G01*
X176396002Y-96890000D01*
G75*
G02*
X176646000Y-97139998I0J-249998D01*
G01*
G37*
%TD.AperFunction*%
%TO.P,C18,1*%
%TO.N,5V*%
%TA.AperFunction,SMDPad,CuDef*%
G36*
G01*
X179771000Y-97139998D02*
X179771000Y-98440002D01*
G75*
G02*
X179521002Y-98690000I-249998J0D01*
G01*
X178695998Y-98690000D01*
G75*
G02*
X178446000Y-98440002I0J249998D01*
G01*
X178446000Y-97139998D01*
G75*
G02*
X178695998Y-96890000I249998J0D01*
G01*
X179521002Y-96890000D01*
G75*
G02*
X179771000Y-97139998I0J-249998D01*
G01*
G37*
%TD.AperFunction*%
%TD*%
%TO.P,C17,2*%
%TO.N,GND*%
%TA.AperFunction,SMDPad,CuDef*%
G36*
G01*
X176646000Y-101965998D02*
X176646000Y-103266002D01*
G75*
G02*
X176396002Y-103516000I-249998J0D01*
G01*
X175570998Y-103516000D01*
G75*
G02*
X175321000Y-103266002I0J249998D01*
G01*
X175321000Y-101965998D01*
G75*
G02*
X175570998Y-101716000I249998J0D01*
G01*
X176396002Y-101716000D01*
G75*
G02*
X176646000Y-101965998I0J-249998D01*
G01*
G37*
%TD.AperFunction*%
%TO.P,C17,1*%
%TO.N,5V*%
%TA.AperFunction,SMDPad,CuDef*%
G36*
G01*
X179771000Y-101965998D02*
X179771000Y-103266002D01*
G75*
G02*
X179521002Y-103516000I-249998J0D01*
G01*
X178695998Y-103516000D01*
G75*
G02*
X178446000Y-103266002I0J249998D01*
G01*
X178446000Y-101965998D01*
G75*
G02*
X178695998Y-101716000I249998J0D01*
G01*
X179521002Y-101716000D01*
G75*
G02*
X179771000Y-101965998I0J-249998D01*
G01*
G37*
%TD.AperFunction*%
%TD*%
%TO.P,C13,2*%
%TO.N,GND*%
%TA.AperFunction,SMDPad,CuDef*%
G36*
G01*
X164056500Y-97551002D02*
X164056500Y-96250998D01*
G75*
G02*
X164306498Y-96001000I249998J0D01*
G01*
X165131502Y-96001000D01*
G75*
G02*
X165381500Y-96250998I0J-249998D01*
G01*
X165381500Y-97551002D01*
G75*
G02*
X165131502Y-97801000I-249998J0D01*
G01*
X164306498Y-97801000D01*
G75*
G02*
X164056500Y-97551002I0J249998D01*
G01*
G37*
%TD.AperFunction*%
%TO.P,C13,1*%
%TO.N,Net-(C13-Pad1)*%
%TA.AperFunction,SMDPad,CuDef*%
G36*
G01*
X160931500Y-97551002D02*
X160931500Y-96250998D01*
G75*
G02*
X161181498Y-96001000I249998J0D01*
G01*
X162006502Y-96001000D01*
G75*
G02*
X162256500Y-96250998I0J-249998D01*
G01*
X162256500Y-97551002D01*
G75*
G02*
X162006502Y-97801000I-249998J0D01*
G01*
X161181498Y-97801000D01*
G75*
G02*
X160931500Y-97551002I0J249998D01*
G01*
G37*
%TD.AperFunction*%
%TD*%
D20*
%TO.P,C8,2*%
%TO.N,GND*%
X139446000Y-70156000D03*
%TO.P,C8,1*%
%TO.N,5V*%
X139446000Y-63956000D03*
%TD*%
D21*
%TO.P,C5,2*%
%TO.N,GND*%
X151944000Y-55499000D03*
%TO.P,C5,1*%
%TO.N,Net-(C5-Pad1)*%
X145744000Y-55499000D03*
%TD*%
D22*
%TO.N,GND*%
X173990000Y-90805000D03*
X173990000Y-93599000D03*
X166243000Y-96901000D03*
X174117000Y-102616000D03*
X161290000Y-86741000D03*
X161163000Y-91440000D03*
%TO.N,Net-(C5-Pad1)*%
X145288000Y-50419000D03*
X145796000Y-58420000D03*
X155702000Y-48514000D03*
X155702000Y-44704000D03*
X169418000Y-44704000D03*
X169545000Y-52197000D03*
%TO.N,5V*%
X179070000Y-78613000D03*
X179070000Y-77343000D03*
X179070000Y-82296000D03*
X181483000Y-82296000D03*
X181610000Y-95504000D03*
X181610000Y-100203000D03*
X181610000Y-90297000D03*
X181610000Y-92329000D03*
X152654000Y-98933000D03*
X152654000Y-106553000D03*
X164846000Y-84328000D03*
X164719000Y-89281000D03*
X169291000Y-105537000D03*
X169291000Y-93472000D03*
X148463000Y-66929000D03*
X143383000Y-66929000D03*
X143256000Y-79883000D03*
X144526000Y-99060000D03*
X144399000Y-83439000D03*
%TO.N,Net-(C11-Pad2)*%
X148717000Y-68834000D03*
X148717000Y-72898000D03*
%TO.N,Net-(C12-Pad1)*%
X171704000Y-106680000D03*
X171323000Y-101219000D03*
%TO.N,Net-(C13-Pad1)*%
X161544000Y-95123000D03*
%TO.N,I2C_SENS_D*%
X155956000Y-71628000D03*
%TO.N,I2C_SENS_CLK*%
X153670000Y-81788000D03*
X153670000Y-76708000D03*
X160274000Y-77343000D03*
X160274000Y-51435000D03*
%TO.N,SPI_SENS_CLK*%
X177673000Y-73787000D03*
X175768000Y-73787000D03*
X177673000Y-81280000D03*
X178308000Y-86868000D03*
X170180000Y-83185000D03*
X170180000Y-81280000D03*
%TO.N,SPI_SENS_CS*%
X165989000Y-84709000D03*
X165989000Y-78486000D03*
%TO.N,3.3V*%
X166370000Y-73279000D03*
X166243000Y-69977000D03*
X166370000Y-75438000D03*
X166370000Y-71882000D03*
X166243000Y-47625000D03*
X166243000Y-54483000D03*
%TO.N,SPI_ESP32_CS*%
X171958000Y-69723000D03*
X171958000Y-73787000D03*
%TO.N,SPI_SENS_D2*%
X176911000Y-86868000D03*
X173990000Y-62992000D03*
%TO.N,Net-(U3-Pad2)*%
X172847000Y-88773000D03*
X172720000Y-98044000D03*
%TO.N,SPI_SENS_D1*%
X168910000Y-83058000D03*
X168910000Y-65278000D03*
%TO.N,Net-(U4-Pad2)*%
X167386000Y-91948000D03*
X167386000Y-96901000D03*
%TO.N,Net-(P2-Pad2)*%
X166370000Y-100203000D03*
%TO.N,Net-(D1-Pad2)*%
X151765000Y-50419000D03*
%TO.N,SD_CS*%
X163068000Y-62865000D03*
X163068000Y-80645000D03*
X155067000Y-80772000D03*
X155194000Y-91567000D03*
X139319000Y-91186000D03*
%TO.N,SD_MOSI*%
X161417000Y-65278000D03*
X161417000Y-78613000D03*
X156337000Y-78613000D03*
X156210000Y-90043000D03*
X138049000Y-90043000D03*
%TO.N,SD_MISO*%
X164592000Y-67945000D03*
X164592000Y-82169000D03*
X157988000Y-82169000D03*
X157988000Y-85725000D03*
X139065000Y-85725000D03*
%TO.N,SD_CLK*%
X178943000Y-52578000D03*
X178943000Y-42291000D03*
X134620000Y-42418000D03*
X134620000Y-79629000D03*
X141859000Y-79756000D03*
%TD*%
D23*
%TO.N,GND*%
X173990000Y-90805000D02*
X173990000Y-93599000D01*
D24*
X164719000Y-96901000D02*
X166243000Y-96901000D01*
X175983500Y-97790000D02*
X174371000Y-97790000D01*
X174371000Y-97790000D02*
X174117000Y-98044000D01*
X174117000Y-98044000D02*
X174117000Y-102616000D01*
X174117000Y-102616000D02*
X175983500Y-102616000D01*
D23*
X158115000Y-70358000D02*
X158115000Y-72898000D01*
X158115000Y-72898000D02*
X155448000Y-72898000D01*
X173990000Y-90805000D02*
X173990000Y-86233000D01*
D24*
X159727500Y-86741000D02*
X161290000Y-86741000D01*
X161036000Y-91567000D02*
X161163000Y-91440000D01*
X159689000Y-91567000D02*
X161036000Y-91567000D01*
D23*
X173990000Y-86233000D02*
X173990000Y-83693000D01*
X173990000Y-83693000D02*
X172593000Y-82296000D01*
X172593000Y-82296000D02*
X172593000Y-79883000D01*
D24*
X135509000Y-86781000D02*
X140422000Y-86781000D01*
X140422000Y-86781000D02*
X140462000Y-86741000D01*
X140462000Y-86741000D02*
X140462000Y-80518000D01*
%TO.N,Net-(C5-Pad1)*%
X145288000Y-55043000D02*
X145744000Y-55499000D01*
X145288000Y-50419000D02*
X145288000Y-55043000D01*
X145744000Y-58368000D02*
X145796000Y-58420000D01*
X145744000Y-55499000D02*
X145744000Y-58368000D01*
X145796000Y-61302000D02*
X146837000Y-62343000D01*
X145796000Y-58420000D02*
X145796000Y-61302000D01*
X155702000Y-48514000D02*
X155702000Y-44704000D01*
X169418000Y-52070000D02*
X169545000Y-52197000D01*
X169418000Y-44704000D02*
X169418000Y-52070000D01*
D23*
%TO.N,5V*%
X179070000Y-78613000D02*
X179070000Y-77343000D01*
X179070000Y-78613000D02*
X179070000Y-82169000D01*
X181610000Y-102616000D02*
X179108500Y-102616000D01*
X179235500Y-97917000D02*
X179108500Y-97790000D01*
X181610000Y-97917000D02*
X179235500Y-97917000D01*
X181610000Y-100203000D02*
X181610000Y-102616000D01*
X181610000Y-97917000D02*
X181610000Y-100203000D01*
X181610000Y-82804000D02*
X181610000Y-90297000D01*
X181610000Y-92329000D02*
X181610000Y-97917000D01*
X181610000Y-90297000D02*
X181610000Y-92329000D01*
X181610000Y-82423000D02*
X181483000Y-82296000D01*
X181610000Y-82804000D02*
X181610000Y-82423000D01*
X152654000Y-98933000D02*
X152654000Y-101981000D01*
X152654000Y-101981000D02*
X152654000Y-106553000D01*
X162814000Y-91567000D02*
X164846000Y-91567000D01*
X164846000Y-89408000D02*
X164719000Y-89281000D01*
X164846000Y-89408000D02*
X164846000Y-91567000D01*
X169291000Y-105537000D02*
X169291000Y-95250000D01*
X169291000Y-95250000D02*
X169291000Y-93472000D01*
X164719000Y-86741000D02*
X164846000Y-86614000D01*
X162852500Y-86741000D02*
X164719000Y-86741000D01*
X164846000Y-86614000D02*
X164846000Y-89408000D01*
X164846000Y-84328000D02*
X164846000Y-86614000D01*
X148449000Y-66943000D02*
X148463000Y-66929000D01*
X146837000Y-66943000D02*
X148449000Y-66943000D01*
X142433000Y-66943000D02*
X139446000Y-63956000D01*
X143397000Y-66943000D02*
X143383000Y-66929000D01*
X146837000Y-66943000D02*
X143397000Y-66943000D01*
X143397000Y-66943000D02*
X142433000Y-66943000D01*
X143383000Y-79756000D02*
X143256000Y-79883000D01*
X143383000Y-66929000D02*
X143383000Y-79756000D01*
X144272000Y-108204000D02*
X144272000Y-102108000D01*
X144272000Y-99314000D02*
X144526000Y-99060000D01*
X144272000Y-102108000D02*
X144272000Y-99314000D01*
X135509000Y-88981000D02*
X142794000Y-88981000D01*
X143256000Y-88519000D02*
X143256000Y-79883000D01*
X142794000Y-88981000D02*
X143256000Y-88519000D01*
X152273000Y-98552000D02*
X152654000Y-98933000D01*
X144399000Y-98933000D02*
X144526000Y-99060000D01*
X144399000Y-83439000D02*
X144399000Y-98933000D01*
D24*
%TO.N,Net-(C11-Pad2)*%
X148717000Y-68834000D02*
X148717000Y-72898000D01*
%TO.N,Net-(C12-Pad1)*%
X171704000Y-101600000D02*
X171323000Y-101219000D01*
X171704000Y-106680000D02*
X171704000Y-101600000D01*
%TO.N,Net-(C13-Pad1)*%
X161594000Y-100064500D02*
X161732500Y-100203000D01*
X161594000Y-96901000D02*
X161594000Y-98629000D01*
X161594000Y-98629000D02*
X161594000Y-100064500D01*
X161594000Y-96901000D02*
X161594000Y-94792000D01*
%TO.N,I2C_SENS_D*%
X155956000Y-71628000D02*
X155956000Y-52705000D01*
X156083000Y-52578000D02*
X158115000Y-52578000D01*
X155956000Y-52705000D02*
X156083000Y-52578000D01*
%TO.N,I2C_SENS_CLK*%
X153670000Y-81788000D02*
X153670000Y-77343000D01*
X160274000Y-77343000D02*
X160274000Y-55118000D01*
X160274000Y-55118000D02*
X158115000Y-55118000D01*
X153670000Y-76708000D02*
X153670000Y-77343000D01*
X160274000Y-55118000D02*
X160274000Y-51435000D01*
%TO.N,SPI_SENS_CLK*%
X170180000Y-83185000D02*
X170180000Y-81280000D01*
X177038000Y-80645000D02*
X177673000Y-81280000D01*
X177038000Y-73787000D02*
X177038000Y-80645000D01*
X177673000Y-73787000D02*
X177038000Y-73787000D01*
X177038000Y-73787000D02*
X175768000Y-73787000D01*
X177673000Y-86233000D02*
X178308000Y-86868000D01*
X177673000Y-81280000D02*
X177673000Y-86233000D01*
%TO.N,SPI_SENS_CS*%
X165989000Y-84709000D02*
X165989000Y-78486000D01*
D23*
%TO.N,3.3V*%
X166370000Y-70104000D02*
X166243000Y-69977000D01*
X166370000Y-73279000D02*
X166370000Y-75438000D01*
X166497000Y-71120000D02*
X166370000Y-71247000D01*
X166370000Y-71247000D02*
X166370000Y-70104000D01*
X166370000Y-71882000D02*
X166370000Y-71247000D01*
X166370000Y-73279000D02*
X166370000Y-71882000D01*
X166243000Y-54483000D02*
X166243000Y-47625000D01*
X166243000Y-69977000D02*
X166243000Y-54483000D01*
D24*
%TO.N,SPI_ESP32_CS*%
X171958000Y-69723000D02*
X171958000Y-73787000D01*
%TO.N,SPI_SENS_D2*%
X176911000Y-86868000D02*
X176403000Y-86360000D01*
X176403000Y-86360000D02*
X176403000Y-81661000D01*
X176403000Y-81661000D02*
X176022000Y-81280000D01*
X176022000Y-81280000D02*
X173990000Y-81280000D01*
X173990000Y-81280000D02*
X173990000Y-62992000D01*
%TO.N,Net-(U3-Pad2)*%
X172847000Y-97917000D02*
X172720000Y-98044000D01*
X172847000Y-88773000D02*
X172847000Y-97917000D01*
%TO.N,SPI_SENS_D1*%
X168910000Y-83058000D02*
X168910000Y-65278000D01*
%TO.N,Net-(U4-Pad2)*%
X167386000Y-91948000D02*
X167386000Y-96901000D01*
%TO.N,Net-(P2-Pad2)*%
X166370000Y-100203000D02*
X164657500Y-100203000D01*
%TO.N,Net-(D1-Pad2)*%
X151765000Y-45339000D02*
X151765000Y-50419000D01*
%TO.N,SD_CS*%
X163068000Y-62865000D02*
X163068000Y-80645000D01*
X155067000Y-91440000D02*
X155194000Y-91567000D01*
X155067000Y-80772000D02*
X155067000Y-91440000D01*
X135514000Y-91186000D02*
X135509000Y-91181000D01*
X139319000Y-91186000D02*
X135514000Y-91186000D01*
%TO.N,SD_MOSI*%
X161417000Y-65278000D02*
X161417000Y-78613000D01*
X156337000Y-89916000D02*
X156210000Y-90043000D01*
X156337000Y-78613000D02*
X156337000Y-89916000D01*
X135547000Y-90043000D02*
X135509000Y-90081000D01*
X138049000Y-90043000D02*
X135547000Y-90043000D01*
%TO.N,SD_MISO*%
X164592000Y-67945000D02*
X164592000Y-82169000D01*
X157988000Y-82169000D02*
X157988000Y-85471000D01*
X139065000Y-85725000D02*
X135719000Y-85725000D01*
%TO.N,SD_CLK*%
X178943000Y-52578000D02*
X178943000Y-42291000D01*
X134620000Y-42418000D02*
X134620000Y-79629000D01*
X141859000Y-79756000D02*
X141859000Y-87884000D01*
X141856000Y-87881000D02*
X135509000Y-87881000D01*
X141859000Y-87884000D02*
X141856000Y-87881000D01*
%TD*%
D25*
%TO.N,GND*%
X177947774Y-41989102D02*
X177908000Y-42189061D01*
X177908000Y-42392939D01*
X177947774Y-42592898D01*
X178025795Y-42781256D01*
X178058001Y-42829456D01*
X178058000Y-52039546D01*
X178025795Y-52087744D01*
X177947774Y-52276102D01*
X177908000Y-52476061D01*
X177908000Y-52679939D01*
X177947774Y-52879898D01*
X178025795Y-53068256D01*
X178139063Y-53237774D01*
X178283226Y-53381937D01*
X178452744Y-53495205D01*
X178641102Y-53573226D01*
X178841061Y-53613000D01*
X179044939Y-53613000D01*
X179244898Y-53573226D01*
X179433256Y-53495205D01*
X179602774Y-53381937D01*
X179746937Y-53237774D01*
X179860205Y-53068256D01*
X179938226Y-52879898D01*
X179978000Y-52679939D01*
X179978000Y-52476061D01*
X179938226Y-52276102D01*
X179860205Y-52087744D01*
X179828000Y-52039546D01*
X179828000Y-47360408D01*
X180086000Y-47360408D01*
X180086000Y-47635592D01*
X180139686Y-47905490D01*
X180244995Y-48159727D01*
X180397880Y-48388535D01*
X180592465Y-48583120D01*
X180821273Y-48736005D01*
X180898515Y-48768000D01*
X180821273Y-48799995D01*
X180592465Y-48952880D01*
X180397880Y-49147465D01*
X180244995Y-49376273D01*
X180139686Y-49630510D01*
X180086000Y-49900408D01*
X180086000Y-50175592D01*
X180139686Y-50445490D01*
X180244995Y-50699727D01*
X180397880Y-50928535D01*
X180592465Y-51123120D01*
X180821273Y-51276005D01*
X180898515Y-51308000D01*
X180821273Y-51339995D01*
X180592465Y-51492880D01*
X180397880Y-51687465D01*
X180244995Y-51916273D01*
X180139686Y-52170510D01*
X180086000Y-52440408D01*
X180086000Y-52715592D01*
X180139686Y-52985490D01*
X180244995Y-53239727D01*
X180397880Y-53468535D01*
X180592465Y-53663120D01*
X180821273Y-53816005D01*
X180898515Y-53848000D01*
X180821273Y-53879995D01*
X180592465Y-54032880D01*
X180397880Y-54227465D01*
X180244995Y-54456273D01*
X180139686Y-54710510D01*
X180086000Y-54980408D01*
X180086000Y-55255592D01*
X180139686Y-55525490D01*
X180244995Y-55779727D01*
X180397880Y-56008535D01*
X180592465Y-56203120D01*
X180821273Y-56356005D01*
X180898515Y-56388000D01*
X180821273Y-56419995D01*
X180592465Y-56572880D01*
X180397880Y-56767465D01*
X180244995Y-56996273D01*
X180139686Y-57250510D01*
X180086000Y-57520408D01*
X180086000Y-57795592D01*
X180139686Y-58065490D01*
X180244995Y-58319727D01*
X180397880Y-58548535D01*
X180592465Y-58743120D01*
X180821273Y-58896005D01*
X180898515Y-58928000D01*
X180821273Y-58959995D01*
X180592465Y-59112880D01*
X180397880Y-59307465D01*
X180244995Y-59536273D01*
X180139686Y-59790510D01*
X180086000Y-60060408D01*
X180086000Y-60335592D01*
X180139686Y-60605490D01*
X180244995Y-60859727D01*
X180397880Y-61088535D01*
X180592465Y-61283120D01*
X180821273Y-61436005D01*
X180898515Y-61468000D01*
X180821273Y-61499995D01*
X180592465Y-61652880D01*
X180397880Y-61847465D01*
X180244995Y-62076273D01*
X180139686Y-62330510D01*
X180086000Y-62600408D01*
X180086000Y-62875592D01*
X180139686Y-63145490D01*
X180244995Y-63399727D01*
X180397880Y-63628535D01*
X180592465Y-63823120D01*
X180821273Y-63976005D01*
X180898515Y-64008000D01*
X180821273Y-64039995D01*
X180592465Y-64192880D01*
X180397880Y-64387465D01*
X180244995Y-64616273D01*
X180139686Y-64870510D01*
X180086000Y-65140408D01*
X180086000Y-65415592D01*
X180139686Y-65685490D01*
X180244995Y-65939727D01*
X180397880Y-66168535D01*
X180592465Y-66363120D01*
X180821273Y-66516005D01*
X180898515Y-66548000D01*
X180821273Y-66579995D01*
X180592465Y-66732880D01*
X180397880Y-66927465D01*
X180244995Y-67156273D01*
X180139686Y-67410510D01*
X180086000Y-67680408D01*
X180086000Y-67955592D01*
X180139686Y-68225490D01*
X180244995Y-68479727D01*
X180397880Y-68708535D01*
X180592465Y-68903120D01*
X180821273Y-69056005D01*
X180898515Y-69088000D01*
X180821273Y-69119995D01*
X180592465Y-69272880D01*
X180397880Y-69467465D01*
X180244995Y-69696273D01*
X180139686Y-69950510D01*
X180086000Y-70220408D01*
X180086000Y-70495592D01*
X180139686Y-70765490D01*
X180244995Y-71019727D01*
X180397880Y-71248535D01*
X180592465Y-71443120D01*
X180821273Y-71596005D01*
X180892943Y-71625692D01*
X180879977Y-71630364D01*
X180764020Y-71692344D01*
X180697040Y-71932435D01*
X181483000Y-72718395D01*
X182268960Y-71932435D01*
X182201980Y-71692344D01*
X182066240Y-71628515D01*
X182144727Y-71596005D01*
X182373535Y-71443120D01*
X182568120Y-71248535D01*
X182721005Y-71019727D01*
X182826314Y-70765490D01*
X182880000Y-70495592D01*
X182880000Y-70220408D01*
X182826314Y-69950510D01*
X182721005Y-69696273D01*
X182568120Y-69467465D01*
X182373535Y-69272880D01*
X182144727Y-69119995D01*
X182067485Y-69088000D01*
X182144727Y-69056005D01*
X182373535Y-68903120D01*
X182568120Y-68708535D01*
X182721005Y-68479727D01*
X182826314Y-68225490D01*
X182880000Y-67955592D01*
X182880000Y-67680408D01*
X182826314Y-67410510D01*
X182721005Y-67156273D01*
X182568120Y-66927465D01*
X182373535Y-66732880D01*
X182144727Y-66579995D01*
X182067485Y-66548000D01*
X182144727Y-66516005D01*
X182373535Y-66363120D01*
X182568120Y-66168535D01*
X182721005Y-65939727D01*
X182826314Y-65685490D01*
X182880000Y-65415592D01*
X182880000Y-65140408D01*
X182826314Y-64870510D01*
X182721005Y-64616273D01*
X182568120Y-64387465D01*
X182373535Y-64192880D01*
X182144727Y-64039995D01*
X182067485Y-64008000D01*
X182144727Y-63976005D01*
X182373535Y-63823120D01*
X182568120Y-63628535D01*
X182721005Y-63399727D01*
X182826314Y-63145490D01*
X182880000Y-62875592D01*
X182880000Y-62600408D01*
X182826314Y-62330510D01*
X182721005Y-62076273D01*
X182568120Y-61847465D01*
X182373535Y-61652880D01*
X182144727Y-61499995D01*
X182067485Y-61468000D01*
X182144727Y-61436005D01*
X182373535Y-61283120D01*
X182568120Y-61088535D01*
X182721005Y-60859727D01*
X182826314Y-60605490D01*
X182880000Y-60335592D01*
X182880000Y-60060408D01*
X182826314Y-59790510D01*
X182721005Y-59536273D01*
X182568120Y-59307465D01*
X182373535Y-59112880D01*
X182144727Y-58959995D01*
X182067485Y-58928000D01*
X182144727Y-58896005D01*
X182373535Y-58743120D01*
X182568120Y-58548535D01*
X182721005Y-58319727D01*
X182826314Y-58065490D01*
X182880000Y-57795592D01*
X182880000Y-57520408D01*
X182826314Y-57250510D01*
X182721005Y-56996273D01*
X182568120Y-56767465D01*
X182373535Y-56572880D01*
X182144727Y-56419995D01*
X182067485Y-56388000D01*
X182144727Y-56356005D01*
X182373535Y-56203120D01*
X182568120Y-56008535D01*
X182721005Y-55779727D01*
X182826314Y-55525490D01*
X182880000Y-55255592D01*
X182880000Y-54980408D01*
X182826314Y-54710510D01*
X182721005Y-54456273D01*
X182568120Y-54227465D01*
X182373535Y-54032880D01*
X182144727Y-53879995D01*
X182067485Y-53848000D01*
X182144727Y-53816005D01*
X182373535Y-53663120D01*
X182568120Y-53468535D01*
X182721005Y-53239727D01*
X182826314Y-52985490D01*
X182880000Y-52715592D01*
X182880000Y-52440408D01*
X182826314Y-52170510D01*
X182721005Y-51916273D01*
X182568120Y-51687465D01*
X182373535Y-51492880D01*
X182144727Y-51339995D01*
X182067485Y-51308000D01*
X182144727Y-51276005D01*
X182373535Y-51123120D01*
X182568120Y-50928535D01*
X182721005Y-50699727D01*
X182826314Y-50445490D01*
X182880000Y-50175592D01*
X182880000Y-49900408D01*
X182826314Y-49630510D01*
X182721005Y-49376273D01*
X182568120Y-49147465D01*
X182373535Y-48952880D01*
X182144727Y-48799995D01*
X182067485Y-48768000D01*
X182144727Y-48736005D01*
X182373535Y-48583120D01*
X182568120Y-48388535D01*
X182721005Y-48159727D01*
X182826314Y-47905490D01*
X182880000Y-47635592D01*
X182880000Y-47360408D01*
X182826314Y-47090510D01*
X182721005Y-46836273D01*
X182568120Y-46607465D01*
X182373535Y-46412880D01*
X182144727Y-46259995D01*
X181890490Y-46154686D01*
X181620592Y-46101000D01*
X181345408Y-46101000D01*
X181075510Y-46154686D01*
X180821273Y-46259995D01*
X180592465Y-46412880D01*
X180397880Y-46607465D01*
X180244995Y-46836273D01*
X180139686Y-47090510D01*
X180086000Y-47360408D01*
X179828000Y-47360408D01*
X179828000Y-42829454D01*
X179860205Y-42781256D01*
X179938226Y-42592898D01*
X179978000Y-42392939D01*
X179978000Y-42189061D01*
X179938226Y-41989102D01*
X179926171Y-41960000D01*
X183468700Y-41960000D01*
X183678888Y-80774729D01*
X180105000Y-80791049D01*
X180105000Y-77241061D01*
X180095031Y-77190943D01*
X180090024Y-77140105D01*
X180075196Y-77091223D01*
X180065226Y-77041102D01*
X180045669Y-76993887D01*
X180030841Y-76945007D01*
X180006762Y-76899958D01*
X179987205Y-76852744D01*
X179958814Y-76810254D01*
X179934734Y-76765203D01*
X179902328Y-76725716D01*
X179873937Y-76683226D01*
X179837803Y-76647092D01*
X179805396Y-76607604D01*
X179765908Y-76575197D01*
X179729774Y-76539063D01*
X179687284Y-76510672D01*
X179647797Y-76478266D01*
X179602746Y-76454186D01*
X179560256Y-76425795D01*
X179513042Y-76406238D01*
X179467993Y-76382159D01*
X179419113Y-76367331D01*
X179371898Y-76347774D01*
X179321777Y-76337804D01*
X179272895Y-76322976D01*
X179222057Y-76317969D01*
X179171939Y-76308000D01*
X179120838Y-76308000D01*
X179070000Y-76302993D01*
X179019162Y-76308000D01*
X178968061Y-76308000D01*
X178917942Y-76317969D01*
X178867106Y-76322976D01*
X178818226Y-76337804D01*
X178768102Y-76347774D01*
X178720884Y-76367332D01*
X178672008Y-76382159D01*
X178626962Y-76406237D01*
X178579744Y-76425795D01*
X178537250Y-76454188D01*
X178492204Y-76478266D01*
X178452721Y-76510669D01*
X178410226Y-76539063D01*
X178374087Y-76575202D01*
X178334605Y-76607604D01*
X178302203Y-76647086D01*
X178266063Y-76683226D01*
X178237668Y-76725722D01*
X178205267Y-76765203D01*
X178181191Y-76810247D01*
X178152795Y-76852744D01*
X178133235Y-76899966D01*
X178109160Y-76945007D01*
X178094335Y-76993878D01*
X178074774Y-77041102D01*
X178064803Y-77091232D01*
X178049977Y-77140105D01*
X178044971Y-77190933D01*
X178035000Y-77241061D01*
X178035000Y-77444939D01*
X178035001Y-77444943D01*
X178035000Y-78511060D01*
X178035000Y-80309669D01*
X177974898Y-80284774D01*
X177923000Y-80274451D01*
X177923000Y-75300408D01*
X180086000Y-75300408D01*
X180086000Y-75575592D01*
X180139686Y-75845490D01*
X180244995Y-76099727D01*
X180397880Y-76328535D01*
X180592465Y-76523120D01*
X180821273Y-76676005D01*
X181075510Y-76781314D01*
X181345408Y-76835000D01*
X181620592Y-76835000D01*
X181890490Y-76781314D01*
X182144727Y-76676005D01*
X182373535Y-76523120D01*
X182568120Y-76328535D01*
X182721005Y-76099727D01*
X182826314Y-75845490D01*
X182880000Y-75575592D01*
X182880000Y-75300408D01*
X182826314Y-75030510D01*
X182721005Y-74776273D01*
X182568120Y-74547465D01*
X182373535Y-74352880D01*
X182144727Y-74199995D01*
X182073057Y-74170308D01*
X182086023Y-74165636D01*
X182201980Y-74103656D01*
X182268960Y-73863565D01*
X181483000Y-73077605D01*
X180697040Y-73863565D01*
X180764020Y-74103656D01*
X180899760Y-74167485D01*
X180821273Y-74199995D01*
X180592465Y-74352880D01*
X180397880Y-74547465D01*
X180244995Y-74776273D01*
X180139686Y-75030510D01*
X180086000Y-75300408D01*
X177923000Y-75300408D01*
X177923000Y-74792549D01*
X177974898Y-74782226D01*
X178163256Y-74704205D01*
X178332774Y-74590937D01*
X178476937Y-74446774D01*
X178590205Y-74277256D01*
X178668226Y-74088898D01*
X178708000Y-73888939D01*
X178708000Y-73685061D01*
X178668226Y-73485102D01*
X178590205Y-73296744D01*
X178476937Y-73127226D01*
X178332774Y-72983063D01*
X178313250Y-72970017D01*
X180081090Y-72970017D01*
X180122078Y-73242133D01*
X180215364Y-73501023D01*
X180277344Y-73616980D01*
X180517435Y-73683960D01*
X181303395Y-72898000D01*
X181662605Y-72898000D01*
X182448565Y-73683960D01*
X182688656Y-73616980D01*
X182805756Y-73367952D01*
X182872023Y-73100865D01*
X182884910Y-72825983D01*
X182843922Y-72553867D01*
X182750636Y-72294977D01*
X182688656Y-72179020D01*
X182448565Y-72112040D01*
X181662605Y-72898000D01*
X181303395Y-72898000D01*
X180517435Y-72112040D01*
X180277344Y-72179020D01*
X180160244Y-72428048D01*
X180093977Y-72695135D01*
X180081090Y-72970017D01*
X178313250Y-72970017D01*
X178163256Y-72869795D01*
X177974898Y-72791774D01*
X177774939Y-72752000D01*
X177571061Y-72752000D01*
X177371102Y-72791774D01*
X177182744Y-72869795D01*
X177134546Y-72902000D01*
X177081476Y-72902000D01*
X177038000Y-72897718D01*
X176994523Y-72902000D01*
X176306454Y-72902000D01*
X176258256Y-72869795D01*
X176069898Y-72791774D01*
X175869939Y-72752000D01*
X175666061Y-72752000D01*
X175466102Y-72791774D01*
X175277744Y-72869795D01*
X175108226Y-72983063D01*
X174964063Y-73127226D01*
X174875000Y-73260519D01*
X174875000Y-63530454D01*
X174907205Y-63482256D01*
X174985226Y-63293898D01*
X175025000Y-63093939D01*
X175025000Y-62890061D01*
X174985226Y-62690102D01*
X174907205Y-62501744D01*
X174793937Y-62332226D01*
X174649774Y-62188063D01*
X174480256Y-62074795D01*
X174291898Y-61996774D01*
X174091939Y-61957000D01*
X173888061Y-61957000D01*
X173688102Y-61996774D01*
X173499744Y-62074795D01*
X173330226Y-62188063D01*
X173186063Y-62332226D01*
X173072795Y-62501744D01*
X172994774Y-62690102D01*
X172955000Y-62890061D01*
X172955000Y-63093939D01*
X172994774Y-63293898D01*
X173072795Y-63482256D01*
X173105001Y-63530456D01*
X173105000Y-80823012D01*
X171114750Y-80832100D01*
X171097205Y-80789744D01*
X170983937Y-80620226D01*
X170839774Y-80476063D01*
X170670256Y-80362795D01*
X170481898Y-80284774D01*
X170281939Y-80245000D01*
X170078061Y-80245000D01*
X169878102Y-80284774D01*
X169795000Y-80319196D01*
X169795000Y-69621061D01*
X170923000Y-69621061D01*
X170923000Y-69824939D01*
X170962774Y-70024898D01*
X171040795Y-70213256D01*
X171073000Y-70261455D01*
X171073001Y-73248544D01*
X171040795Y-73296744D01*
X170962774Y-73485102D01*
X170923000Y-73685061D01*
X170923000Y-73888939D01*
X170962774Y-74088898D01*
X171040795Y-74277256D01*
X171154063Y-74446774D01*
X171298226Y-74590937D01*
X171467744Y-74704205D01*
X171656102Y-74782226D01*
X171856061Y-74822000D01*
X172059939Y-74822000D01*
X172259898Y-74782226D01*
X172448256Y-74704205D01*
X172617774Y-74590937D01*
X172761937Y-74446774D01*
X172875205Y-74277256D01*
X172953226Y-74088898D01*
X172993000Y-73888939D01*
X172993000Y-73685061D01*
X172953226Y-73485102D01*
X172875205Y-73296744D01*
X172843000Y-73248546D01*
X172843000Y-70261454D01*
X172875205Y-70213256D01*
X172953226Y-70024898D01*
X172993000Y-69824939D01*
X172993000Y-69621061D01*
X172953226Y-69421102D01*
X172875205Y-69232744D01*
X172761937Y-69063226D01*
X172617774Y-68919063D01*
X172448256Y-68805795D01*
X172259898Y-68727774D01*
X172059939Y-68688000D01*
X171856061Y-68688000D01*
X171656102Y-68727774D01*
X171467744Y-68805795D01*
X171298226Y-68919063D01*
X171154063Y-69063226D01*
X171040795Y-69232744D01*
X170962774Y-69421102D01*
X170923000Y-69621061D01*
X169795000Y-69621061D01*
X169795000Y-65816454D01*
X169827205Y-65768256D01*
X169905226Y-65579898D01*
X169945000Y-65379939D01*
X169945000Y-65176061D01*
X169905226Y-64976102D01*
X169827205Y-64787744D01*
X169713937Y-64618226D01*
X169569774Y-64474063D01*
X169400256Y-64360795D01*
X169211898Y-64282774D01*
X169011939Y-64243000D01*
X168808061Y-64243000D01*
X168608102Y-64282774D01*
X168419744Y-64360795D01*
X168250226Y-64474063D01*
X168106063Y-64618226D01*
X167992795Y-64787744D01*
X167914774Y-64976102D01*
X167875000Y-65176061D01*
X167875000Y-65379939D01*
X167914774Y-65579898D01*
X167992795Y-65768256D01*
X168025001Y-65816456D01*
X168025000Y-80846208D01*
X166874000Y-80851464D01*
X166874000Y-79024454D01*
X166906205Y-78976256D01*
X166984226Y-78787898D01*
X167024000Y-78587939D01*
X167024000Y-78384061D01*
X166984226Y-78184102D01*
X166906205Y-77995744D01*
X166792937Y-77826226D01*
X166648774Y-77682063D01*
X166479256Y-77568795D01*
X166290898Y-77490774D01*
X166090939Y-77451000D01*
X165887061Y-77451000D01*
X165687102Y-77490774D01*
X165498744Y-77568795D01*
X165477000Y-77583324D01*
X165477000Y-75964481D01*
X165481191Y-75970753D01*
X165505267Y-76015797D01*
X165537668Y-76055278D01*
X165566063Y-76097774D01*
X165602203Y-76133914D01*
X165634605Y-76173396D01*
X165674087Y-76205798D01*
X165710226Y-76241937D01*
X165752721Y-76270331D01*
X165792204Y-76302734D01*
X165837250Y-76326812D01*
X165879744Y-76355205D01*
X165926962Y-76374763D01*
X165972008Y-76398841D01*
X166020884Y-76413668D01*
X166068102Y-76433226D01*
X166118226Y-76443196D01*
X166167106Y-76458024D01*
X166217942Y-76463031D01*
X166268061Y-76473000D01*
X166319162Y-76473000D01*
X166370000Y-76478007D01*
X166420838Y-76473000D01*
X166471939Y-76473000D01*
X166522057Y-76463031D01*
X166572895Y-76458024D01*
X166621777Y-76443196D01*
X166671898Y-76433226D01*
X166719113Y-76413669D01*
X166767993Y-76398841D01*
X166813042Y-76374762D01*
X166860256Y-76355205D01*
X166902746Y-76326814D01*
X166947797Y-76302734D01*
X166987284Y-76270328D01*
X167029774Y-76241937D01*
X167065908Y-76205803D01*
X167105396Y-76173396D01*
X167137803Y-76133908D01*
X167173937Y-76097774D01*
X167202328Y-76055284D01*
X167234734Y-76015797D01*
X167258814Y-75970746D01*
X167287205Y-75928256D01*
X167306762Y-75881042D01*
X167330841Y-75835993D01*
X167345669Y-75787113D01*
X167365226Y-75739898D01*
X167375196Y-75689777D01*
X167390024Y-75640895D01*
X167395031Y-75590057D01*
X167405000Y-75539939D01*
X167405000Y-71616851D01*
X167457840Y-71517993D01*
X167517023Y-71322895D01*
X167537006Y-71120001D01*
X167517023Y-70917105D01*
X167457840Y-70722007D01*
X167405000Y-70623149D01*
X167405000Y-70154827D01*
X167410006Y-70103999D01*
X167405000Y-70053171D01*
X167405000Y-70053162D01*
X167390024Y-69901105D01*
X167330841Y-69706007D01*
X167278000Y-69607148D01*
X167278000Y-47523061D01*
X167268031Y-47472943D01*
X167263024Y-47422105D01*
X167248196Y-47373223D01*
X167238226Y-47323102D01*
X167218669Y-47275887D01*
X167203841Y-47227007D01*
X167179762Y-47181958D01*
X167160205Y-47134744D01*
X167131814Y-47092254D01*
X167107734Y-47047203D01*
X167075328Y-47007716D01*
X167046937Y-46965226D01*
X167010803Y-46929092D01*
X166978396Y-46889604D01*
X166938908Y-46857197D01*
X166902774Y-46821063D01*
X166860284Y-46792672D01*
X166820797Y-46760266D01*
X166775746Y-46736186D01*
X166733256Y-46707795D01*
X166686042Y-46688238D01*
X166640993Y-46664159D01*
X166592113Y-46649331D01*
X166544898Y-46629774D01*
X166494777Y-46619804D01*
X166445895Y-46604976D01*
X166395057Y-46599969D01*
X166344939Y-46590000D01*
X166293838Y-46590000D01*
X166243000Y-46584993D01*
X166192162Y-46590000D01*
X166141061Y-46590000D01*
X166090942Y-46599969D01*
X166040106Y-46604976D01*
X165991226Y-46619804D01*
X165941102Y-46629774D01*
X165893884Y-46649332D01*
X165845008Y-46664159D01*
X165799962Y-46688237D01*
X165752744Y-46707795D01*
X165710250Y-46736188D01*
X165665204Y-46760266D01*
X165625721Y-46792669D01*
X165583226Y-46821063D01*
X165547087Y-46857202D01*
X165507605Y-46889604D01*
X165475203Y-46929086D01*
X165439063Y-46965226D01*
X165410668Y-47007722D01*
X165378267Y-47047203D01*
X165354191Y-47092247D01*
X165325795Y-47134744D01*
X165306235Y-47181966D01*
X165282160Y-47227007D01*
X165267335Y-47275878D01*
X165247774Y-47323102D01*
X165237803Y-47373232D01*
X165222977Y-47422105D01*
X165217971Y-47472933D01*
X165208000Y-47523061D01*
X165208000Y-47726939D01*
X165208001Y-47726944D01*
X165208000Y-54381061D01*
X165208000Y-54584939D01*
X165208001Y-54584944D01*
X165208000Y-67111814D01*
X165082256Y-67027795D01*
X164893898Y-66949774D01*
X164693939Y-66910000D01*
X164490061Y-66910000D01*
X164290102Y-66949774D01*
X164101744Y-67027795D01*
X163953000Y-67127182D01*
X163953000Y-63403454D01*
X163985205Y-63355256D01*
X164063226Y-63166898D01*
X164103000Y-62966939D01*
X164103000Y-62763061D01*
X164063226Y-62563102D01*
X163985205Y-62374744D01*
X163871937Y-62205226D01*
X163727774Y-62061063D01*
X163558256Y-61947795D01*
X163369898Y-61869774D01*
X163169939Y-61830000D01*
X162966061Y-61830000D01*
X162766102Y-61869774D01*
X162577744Y-61947795D01*
X162408226Y-62061063D01*
X162264063Y-62205226D01*
X162150795Y-62374744D01*
X162072774Y-62563102D01*
X162033000Y-62763061D01*
X162033000Y-62966939D01*
X162072774Y-63166898D01*
X162150795Y-63355256D01*
X162183000Y-63403454D01*
X162183000Y-64580289D01*
X162076774Y-64474063D01*
X161907256Y-64360795D01*
X161718898Y-64282774D01*
X161518939Y-64243000D01*
X161315061Y-64243000D01*
X161159000Y-64274042D01*
X161159000Y-55161476D01*
X161163282Y-55118000D01*
X161159000Y-55074523D01*
X161159000Y-51973454D01*
X161191205Y-51925256D01*
X161269226Y-51736898D01*
X161309000Y-51536939D01*
X161309000Y-51333061D01*
X161269226Y-51133102D01*
X161191205Y-50944744D01*
X161077937Y-50775226D01*
X160933774Y-50631063D01*
X160764256Y-50517795D01*
X160575898Y-50439774D01*
X160375939Y-50400000D01*
X160172061Y-50400000D01*
X159972102Y-50439774D01*
X159783744Y-50517795D01*
X159614226Y-50631063D01*
X159470063Y-50775226D01*
X159356795Y-50944744D01*
X159278774Y-51133102D01*
X159239000Y-51333061D01*
X159239000Y-51536939D01*
X159278774Y-51736898D01*
X159356795Y-51925256D01*
X159389001Y-51973456D01*
X159389001Y-52003174D01*
X159353005Y-51916273D01*
X159200120Y-51687465D01*
X159005535Y-51492880D01*
X158776727Y-51339995D01*
X158705057Y-51310308D01*
X158718023Y-51305636D01*
X158833980Y-51243656D01*
X158900960Y-51003565D01*
X158115000Y-50217605D01*
X157329040Y-51003565D01*
X157396020Y-51243656D01*
X157531760Y-51307485D01*
X157453273Y-51339995D01*
X157224465Y-51492880D01*
X157029880Y-51687465D01*
X157026182Y-51693000D01*
X156126465Y-51693000D01*
X156082999Y-51688719D01*
X156039533Y-51693000D01*
X156039523Y-51693000D01*
X155909510Y-51705805D01*
X155742687Y-51756411D01*
X155588941Y-51838589D01*
X155454183Y-51949183D01*
X155426466Y-51982956D01*
X155360952Y-52048470D01*
X155327184Y-52076183D01*
X155299471Y-52109951D01*
X155299468Y-52109954D01*
X155216590Y-52210941D01*
X155134412Y-52364687D01*
X155083805Y-52531510D01*
X155066719Y-52705000D01*
X155071001Y-52748479D01*
X155071000Y-71089546D01*
X155038795Y-71137744D01*
X154960774Y-71326102D01*
X154921000Y-71526061D01*
X154921000Y-71729939D01*
X154960774Y-71929898D01*
X155038795Y-72118256D01*
X155152063Y-72287774D01*
X155296226Y-72431937D01*
X155465744Y-72545205D01*
X155654102Y-72623226D01*
X155854061Y-72663000D01*
X156057939Y-72663000D01*
X156257898Y-72623226D01*
X156446256Y-72545205D01*
X156615774Y-72431937D01*
X156759937Y-72287774D01*
X156873205Y-72118256D01*
X156951226Y-71929898D01*
X156991000Y-71729939D01*
X156991000Y-71526061D01*
X156951226Y-71326102D01*
X156950176Y-71323565D01*
X157329040Y-71323565D01*
X157396020Y-71563656D01*
X157526644Y-71625079D01*
X157511977Y-71630364D01*
X157396020Y-71692344D01*
X157329040Y-71932435D01*
X158115000Y-72718395D01*
X158900960Y-71932435D01*
X158833980Y-71692344D01*
X158703356Y-71630921D01*
X158718023Y-71625636D01*
X158833980Y-71563656D01*
X158900960Y-71323565D01*
X158115000Y-70537605D01*
X157329040Y-71323565D01*
X156950176Y-71323565D01*
X156873205Y-71137744D01*
X156841000Y-71089546D01*
X156841000Y-70943361D01*
X156847364Y-70961023D01*
X156909344Y-71076980D01*
X157149435Y-71143960D01*
X157935395Y-70358000D01*
X157149435Y-69572040D01*
X156909344Y-69639020D01*
X156841000Y-69784362D01*
X156841000Y-68392828D01*
X156876995Y-68479727D01*
X157029880Y-68708535D01*
X157224465Y-68903120D01*
X157453273Y-69056005D01*
X157524943Y-69085692D01*
X157511977Y-69090364D01*
X157396020Y-69152344D01*
X157329040Y-69392435D01*
X158115000Y-70178395D01*
X158900960Y-69392435D01*
X158833980Y-69152344D01*
X158698240Y-69088515D01*
X158776727Y-69056005D01*
X159005535Y-68903120D01*
X159200120Y-68708535D01*
X159353005Y-68479727D01*
X159389000Y-68392828D01*
X159389000Y-69772640D01*
X159382636Y-69754977D01*
X159320656Y-69639020D01*
X159080565Y-69572040D01*
X158294605Y-70358000D01*
X159080565Y-71143960D01*
X159320656Y-71076980D01*
X159389000Y-70931637D01*
X159389000Y-72312639D01*
X159382636Y-72294977D01*
X159320656Y-72179020D01*
X159080565Y-72112040D01*
X158294605Y-72898000D01*
X159080565Y-73683960D01*
X159320656Y-73616980D01*
X159389000Y-73471637D01*
X159389000Y-74863172D01*
X159353005Y-74776273D01*
X159200120Y-74547465D01*
X159005535Y-74352880D01*
X158776727Y-74199995D01*
X158705057Y-74170308D01*
X158718023Y-74165636D01*
X158833980Y-74103656D01*
X158900960Y-73863565D01*
X158115000Y-73077605D01*
X157329040Y-73863565D01*
X157396020Y-74103656D01*
X157531760Y-74167485D01*
X157453273Y-74199995D01*
X157224465Y-74352880D01*
X157029880Y-74547465D01*
X156876995Y-74776273D01*
X156771686Y-75030510D01*
X156718000Y-75300408D01*
X156718000Y-75575592D01*
X156771686Y-75845490D01*
X156876995Y-76099727D01*
X157029880Y-76328535D01*
X157224465Y-76523120D01*
X157453273Y-76676005D01*
X157707510Y-76781314D01*
X157977408Y-76835000D01*
X158252592Y-76835000D01*
X158522490Y-76781314D01*
X158776727Y-76676005D01*
X159005535Y-76523120D01*
X159200120Y-76328535D01*
X159353005Y-76099727D01*
X159389000Y-76012828D01*
X159389000Y-76804546D01*
X159356795Y-76852744D01*
X159278774Y-77041102D01*
X159239000Y-77241061D01*
X159239000Y-77444939D01*
X159278774Y-77644898D01*
X159356795Y-77833256D01*
X159470063Y-78002774D01*
X159614226Y-78146937D01*
X159783744Y-78260205D01*
X159972102Y-78338226D01*
X160172061Y-78378000D01*
X160375939Y-78378000D01*
X160409807Y-78371263D01*
X160382000Y-78511061D01*
X160382000Y-78714939D01*
X160421774Y-78914898D01*
X160499795Y-79103256D01*
X160613063Y-79272774D01*
X160757226Y-79416937D01*
X160926744Y-79530205D01*
X161115102Y-79608226D01*
X161315061Y-79648000D01*
X161518939Y-79648000D01*
X161718898Y-79608226D01*
X161907256Y-79530205D01*
X162076774Y-79416937D01*
X162183001Y-79310710D01*
X162183001Y-80106544D01*
X162150795Y-80154744D01*
X162072774Y-80343102D01*
X162033000Y-80543061D01*
X162033000Y-80746939D01*
X162058165Y-80873454D01*
X157222000Y-80895537D01*
X157222000Y-79151454D01*
X157254205Y-79103256D01*
X157332226Y-78914898D01*
X157372000Y-78714939D01*
X157372000Y-78511061D01*
X157332226Y-78311102D01*
X157254205Y-78122744D01*
X157140937Y-77953226D01*
X156996774Y-77809063D01*
X156827256Y-77695795D01*
X156638898Y-77617774D01*
X156438939Y-77578000D01*
X156235061Y-77578000D01*
X156035102Y-77617774D01*
X155846744Y-77695795D01*
X155677226Y-77809063D01*
X155533063Y-77953226D01*
X155419795Y-78122744D01*
X155341774Y-78311102D01*
X155302000Y-78511061D01*
X155302000Y-78714939D01*
X155341774Y-78914898D01*
X155419795Y-79103256D01*
X155452000Y-79151454D01*
X155452000Y-79811196D01*
X155368898Y-79776774D01*
X155168939Y-79737000D01*
X154965061Y-79737000D01*
X154765102Y-79776774D01*
X154576744Y-79854795D01*
X154555000Y-79869324D01*
X154555000Y-77246454D01*
X154587205Y-77198256D01*
X154665226Y-77009898D01*
X154705000Y-76809939D01*
X154705000Y-76606061D01*
X154665226Y-76406102D01*
X154587205Y-76217744D01*
X154473937Y-76048226D01*
X154329774Y-75904063D01*
X154160256Y-75790795D01*
X153971898Y-75712774D01*
X153771939Y-75673000D01*
X153568061Y-75673000D01*
X153368102Y-75712774D01*
X153179744Y-75790795D01*
X153010226Y-75904063D01*
X152866063Y-76048226D01*
X152752795Y-76217744D01*
X152674774Y-76406102D01*
X152635000Y-76606061D01*
X152635000Y-76809939D01*
X152674774Y-77009898D01*
X152752795Y-77198256D01*
X152785000Y-77246454D01*
X152785000Y-77386477D01*
X152785001Y-77386487D01*
X152785000Y-80966277D01*
X144291000Y-81121655D01*
X144291000Y-80252852D01*
X144343841Y-80153993D01*
X144403024Y-79958895D01*
X144418000Y-79806838D01*
X144418000Y-79806829D01*
X144423006Y-79756001D01*
X144418000Y-79705173D01*
X144418000Y-67978000D01*
X145662627Y-67978000D01*
X145717820Y-68007502D01*
X145837518Y-68043812D01*
X145962000Y-68056072D01*
X147712000Y-68056072D01*
X147836482Y-68043812D01*
X147956180Y-68007502D01*
X148011373Y-67978000D01*
X148135144Y-67978000D01*
X148057226Y-68030063D01*
X147913063Y-68174226D01*
X147799795Y-68343744D01*
X147721774Y-68532102D01*
X147682000Y-68732061D01*
X147682000Y-68935939D01*
X147721774Y-69135898D01*
X147799795Y-69324256D01*
X147832000Y-69372455D01*
X147832001Y-72359544D01*
X147799795Y-72407744D01*
X147721774Y-72596102D01*
X147682000Y-72796061D01*
X147682000Y-72999939D01*
X147721774Y-73199898D01*
X147799795Y-73388256D01*
X147913063Y-73557774D01*
X148057226Y-73701937D01*
X148226744Y-73815205D01*
X148415102Y-73893226D01*
X148615061Y-73933000D01*
X148818939Y-73933000D01*
X149018898Y-73893226D01*
X149207256Y-73815205D01*
X149376774Y-73701937D01*
X149520937Y-73557774D01*
X149634205Y-73388256D01*
X149712226Y-73199898D01*
X149752000Y-72999939D01*
X149752000Y-72970017D01*
X156713090Y-72970017D01*
X156754078Y-73242133D01*
X156847364Y-73501023D01*
X156909344Y-73616980D01*
X157149435Y-73683960D01*
X157935395Y-72898000D01*
X157149435Y-72112040D01*
X156909344Y-72179020D01*
X156792244Y-72428048D01*
X156725977Y-72695135D01*
X156713090Y-72970017D01*
X149752000Y-72970017D01*
X149752000Y-72796061D01*
X149712226Y-72596102D01*
X149634205Y-72407744D01*
X149602000Y-72359546D01*
X149602000Y-69372454D01*
X149634205Y-69324256D01*
X149712226Y-69135898D01*
X149752000Y-68935939D01*
X149752000Y-68732061D01*
X149712226Y-68532102D01*
X149634205Y-68343744D01*
X149520937Y-68174226D01*
X149376774Y-68030063D01*
X149207256Y-67916795D01*
X149018898Y-67838774D01*
X148982332Y-67831501D01*
X149026797Y-67807734D01*
X149096747Y-67750328D01*
X149122774Y-67732937D01*
X149144908Y-67710803D01*
X149184396Y-67678396D01*
X149216803Y-67638908D01*
X149266937Y-67588774D01*
X149295329Y-67546283D01*
X149327734Y-67506797D01*
X149351813Y-67461748D01*
X149380205Y-67419256D01*
X149399764Y-67372036D01*
X149423840Y-67326993D01*
X149438665Y-67278122D01*
X149458226Y-67230898D01*
X149468197Y-67180768D01*
X149483023Y-67131895D01*
X149488030Y-67081064D01*
X149498000Y-67030939D01*
X149498000Y-66979835D01*
X149503007Y-66929000D01*
X149498000Y-66878162D01*
X149498000Y-66827061D01*
X149488030Y-66776936D01*
X149483023Y-66726105D01*
X149468197Y-66677232D01*
X149458226Y-66627102D01*
X149438665Y-66579878D01*
X149423840Y-66531007D01*
X149399764Y-66485964D01*
X149380205Y-66438744D01*
X149351813Y-66396252D01*
X149327734Y-66351203D01*
X149295328Y-66311716D01*
X149266937Y-66269226D01*
X149230803Y-66233092D01*
X149198396Y-66193604D01*
X149158908Y-66161197D01*
X149122774Y-66125063D01*
X149080284Y-66096672D01*
X149040797Y-66064266D01*
X148995748Y-66040187D01*
X148953256Y-66011795D01*
X148906036Y-65992236D01*
X148860993Y-65968160D01*
X148812122Y-65953335D01*
X148764898Y-65933774D01*
X148714768Y-65923803D01*
X148665895Y-65908977D01*
X148615064Y-65903970D01*
X148564939Y-65894000D01*
X148513835Y-65894000D01*
X148463000Y-65888993D01*
X148412165Y-65894000D01*
X148361061Y-65894000D01*
X148310936Y-65903970D01*
X148270024Y-65908000D01*
X148011373Y-65908000D01*
X147956180Y-65878498D01*
X147836482Y-65842188D01*
X147712000Y-65829928D01*
X145962000Y-65829928D01*
X145837518Y-65842188D01*
X145717820Y-65878498D01*
X145662627Y-65908000D01*
X143575984Y-65908000D01*
X143535058Y-65903969D01*
X143484939Y-65894000D01*
X143433838Y-65894000D01*
X143383000Y-65888993D01*
X143332162Y-65894000D01*
X143281061Y-65894000D01*
X143230943Y-65903969D01*
X143190015Y-65908000D01*
X142861711Y-65908000D01*
X142071711Y-65118000D01*
X145323928Y-65118000D01*
X145336188Y-65242482D01*
X145372498Y-65362180D01*
X145431463Y-65472494D01*
X145510815Y-65569185D01*
X145607506Y-65648537D01*
X145717820Y-65707502D01*
X145837518Y-65743812D01*
X145962000Y-65756072D01*
X146551250Y-65753000D01*
X146710000Y-65594250D01*
X146710000Y-64770000D01*
X146964000Y-64770000D01*
X146964000Y-65594250D01*
X147122750Y-65753000D01*
X147712000Y-65756072D01*
X147836482Y-65743812D01*
X147956180Y-65707502D01*
X148066494Y-65648537D01*
X148163185Y-65569185D01*
X148242537Y-65472494D01*
X148301502Y-65362180D01*
X148337812Y-65242482D01*
X148350072Y-65118000D01*
X148347000Y-64928750D01*
X148188250Y-64770000D01*
X146964000Y-64770000D01*
X146710000Y-64770000D01*
X145485750Y-64770000D01*
X145327000Y-64928750D01*
X145323928Y-65118000D01*
X142071711Y-65118000D01*
X141121711Y-64168000D01*
X145323928Y-64168000D01*
X145327000Y-64357250D01*
X145485750Y-64516000D01*
X146710000Y-64516000D01*
X146710000Y-63691750D01*
X146964000Y-63691750D01*
X146964000Y-64516000D01*
X148188250Y-64516000D01*
X148347000Y-64357250D01*
X148350072Y-64168000D01*
X148337812Y-64043518D01*
X148301502Y-63923820D01*
X148242537Y-63813506D01*
X148163185Y-63716815D01*
X148066494Y-63637463D01*
X147956180Y-63578498D01*
X147836482Y-63542188D01*
X147712000Y-63529928D01*
X147122750Y-63533000D01*
X146964000Y-63691750D01*
X146710000Y-63691750D01*
X146551250Y-63533000D01*
X145962000Y-63529928D01*
X145837518Y-63542188D01*
X145717820Y-63578498D01*
X145607506Y-63637463D01*
X145510815Y-63716815D01*
X145431463Y-63813506D01*
X145372498Y-63923820D01*
X145336188Y-64043518D01*
X145323928Y-64168000D01*
X141121711Y-64168000D01*
X140884072Y-63930362D01*
X140884072Y-61956000D01*
X140871812Y-61831518D01*
X140835502Y-61711820D01*
X140776537Y-61601506D01*
X140697185Y-61504815D01*
X140600494Y-61425463D01*
X140490180Y-61366498D01*
X140370482Y-61330188D01*
X140246000Y-61317928D01*
X138646000Y-61317928D01*
X138521518Y-61330188D01*
X138401820Y-61366498D01*
X138291506Y-61425463D01*
X138194815Y-61504815D01*
X138115463Y-61601506D01*
X138056498Y-61711820D01*
X138020188Y-61831518D01*
X138007928Y-61956000D01*
X138007928Y-65956000D01*
X138020188Y-66080482D01*
X138056498Y-66200180D01*
X138115463Y-66310494D01*
X138194815Y-66407185D01*
X138291506Y-66486537D01*
X138401820Y-66545502D01*
X138521518Y-66581812D01*
X138646000Y-66594072D01*
X140246000Y-66594072D01*
X140370482Y-66581812D01*
X140490180Y-66545502D01*
X140543364Y-66517074D01*
X141665197Y-67638908D01*
X141697604Y-67678396D01*
X141737092Y-67710803D01*
X141855202Y-67807734D01*
X141913275Y-67838774D01*
X142035007Y-67903841D01*
X142230105Y-67963024D01*
X142348000Y-67974635D01*
X142348001Y-78838275D01*
X142160898Y-78760774D01*
X141960939Y-78721000D01*
X141757061Y-78721000D01*
X141557102Y-78760774D01*
X141368744Y-78838795D01*
X141199226Y-78952063D01*
X141055063Y-79096226D01*
X140941795Y-79265744D01*
X140863774Y-79454102D01*
X140824000Y-79654061D01*
X140824000Y-79857939D01*
X140863774Y-80057898D01*
X140941795Y-80246256D01*
X140974000Y-80294454D01*
X140974000Y-81182332D01*
X135634825Y-81280000D01*
X134289000Y-81280000D01*
X134289000Y-80612171D01*
X134318102Y-80624226D01*
X134518061Y-80664000D01*
X134721939Y-80664000D01*
X134921898Y-80624226D01*
X135110256Y-80546205D01*
X135279774Y-80432937D01*
X135423937Y-80288774D01*
X135537205Y-80119256D01*
X135615226Y-79930898D01*
X135655000Y-79730939D01*
X135655000Y-79527061D01*
X135615226Y-79327102D01*
X135537205Y-79138744D01*
X135505000Y-79090546D01*
X135505000Y-72156000D01*
X138007928Y-72156000D01*
X138020188Y-72280482D01*
X138056498Y-72400180D01*
X138115463Y-72510494D01*
X138194815Y-72607185D01*
X138291506Y-72686537D01*
X138401820Y-72745502D01*
X138521518Y-72781812D01*
X138646000Y-72794072D01*
X139160250Y-72791000D01*
X139319000Y-72632250D01*
X139319000Y-70283000D01*
X139573000Y-70283000D01*
X139573000Y-72632250D01*
X139731750Y-72791000D01*
X140246000Y-72794072D01*
X140370482Y-72781812D01*
X140490180Y-72745502D01*
X140600494Y-72686537D01*
X140697185Y-72607185D01*
X140776537Y-72510494D01*
X140835502Y-72400180D01*
X140871812Y-72280482D01*
X140884072Y-72156000D01*
X140881000Y-70441750D01*
X140722250Y-70283000D01*
X139573000Y-70283000D01*
X139319000Y-70283000D01*
X138169750Y-70283000D01*
X138011000Y-70441750D01*
X138007928Y-72156000D01*
X135505000Y-72156000D01*
X135505000Y-68156000D01*
X138007928Y-68156000D01*
X138011000Y-69870250D01*
X138169750Y-70029000D01*
X139319000Y-70029000D01*
X139319000Y-67679750D01*
X139573000Y-67679750D01*
X139573000Y-70029000D01*
X140722250Y-70029000D01*
X140881000Y-69870250D01*
X140884072Y-68156000D01*
X140871812Y-68031518D01*
X140835502Y-67911820D01*
X140776537Y-67801506D01*
X140697185Y-67704815D01*
X140600494Y-67625463D01*
X140490180Y-67566498D01*
X140370482Y-67530188D01*
X140246000Y-67517928D01*
X139731750Y-67521000D01*
X139573000Y-67679750D01*
X139319000Y-67679750D01*
X139160250Y-67521000D01*
X138646000Y-67517928D01*
X138521518Y-67530188D01*
X138401820Y-67566498D01*
X138291506Y-67625463D01*
X138194815Y-67704815D01*
X138115463Y-67801506D01*
X138056498Y-67911820D01*
X138020188Y-68031518D01*
X138007928Y-68156000D01*
X135505000Y-68156000D01*
X135505000Y-55777000D01*
X135656928Y-55777000D01*
X135656928Y-58777000D01*
X135669188Y-58901482D01*
X135705498Y-59021180D01*
X135764463Y-59131494D01*
X135843815Y-59228185D01*
X135940506Y-59307537D01*
X136050820Y-59366502D01*
X136170518Y-59402812D01*
X136295000Y-59415072D01*
X139295000Y-59415072D01*
X139419482Y-59402812D01*
X139539180Y-59366502D01*
X139649494Y-59307537D01*
X139746185Y-59228185D01*
X139825537Y-59131494D01*
X139884502Y-59021180D01*
X139920812Y-58901482D01*
X139933072Y-58777000D01*
X139933072Y-55777000D01*
X139920812Y-55652518D01*
X139884502Y-55532820D01*
X139825537Y-55422506D01*
X139746185Y-55325815D01*
X139649494Y-55246463D01*
X139539180Y-55187498D01*
X139419482Y-55151188D01*
X139295000Y-55138928D01*
X136295000Y-55138928D01*
X136170518Y-55151188D01*
X136050820Y-55187498D01*
X135940506Y-55246463D01*
X135843815Y-55325815D01*
X135764463Y-55422506D01*
X135705498Y-55532820D01*
X135669188Y-55652518D01*
X135656928Y-55777000D01*
X135505000Y-55777000D01*
X135505000Y-54699000D01*
X143105928Y-54699000D01*
X143105928Y-56299000D01*
X143118188Y-56423482D01*
X143154498Y-56543180D01*
X143213463Y-56653494D01*
X143292815Y-56750185D01*
X143389506Y-56829537D01*
X143499820Y-56888502D01*
X143619518Y-56924812D01*
X143744000Y-56937072D01*
X144859001Y-56937072D01*
X144859001Y-57977531D01*
X144800774Y-58118102D01*
X144761000Y-58318061D01*
X144761000Y-58521939D01*
X144800774Y-58721898D01*
X144878795Y-58910256D01*
X144911000Y-58958455D01*
X144911001Y-61258521D01*
X144906719Y-61302000D01*
X144923805Y-61475490D01*
X144974412Y-61642313D01*
X145056590Y-61796059D01*
X145139468Y-61897046D01*
X145139471Y-61897049D01*
X145167184Y-61930817D01*
X145200951Y-61958529D01*
X145323928Y-62081506D01*
X145323928Y-62818000D01*
X145336188Y-62942482D01*
X145372498Y-63062180D01*
X145431463Y-63172494D01*
X145510815Y-63269185D01*
X145607506Y-63348537D01*
X145717820Y-63407502D01*
X145837518Y-63443812D01*
X145962000Y-63456072D01*
X147712000Y-63456072D01*
X147836482Y-63443812D01*
X147956180Y-63407502D01*
X148066494Y-63348537D01*
X148163185Y-63269185D01*
X148242537Y-63172494D01*
X148301502Y-63062180D01*
X148307320Y-63043000D01*
X151623928Y-63043000D01*
X151623928Y-66243000D01*
X151636188Y-66367482D01*
X151672498Y-66487180D01*
X151731463Y-66597494D01*
X151810815Y-66694185D01*
X151907506Y-66773537D01*
X152017820Y-66832502D01*
X152137518Y-66868812D01*
X152262000Y-66881072D01*
X154012000Y-66881072D01*
X154136482Y-66868812D01*
X154256180Y-66832502D01*
X154366494Y-66773537D01*
X154463185Y-66694185D01*
X154542537Y-66597494D01*
X154601502Y-66487180D01*
X154637812Y-66367482D01*
X154650072Y-66243000D01*
X154650072Y-63043000D01*
X154637812Y-62918518D01*
X154601502Y-62798820D01*
X154542537Y-62688506D01*
X154463185Y-62591815D01*
X154366494Y-62512463D01*
X154256180Y-62453498D01*
X154136482Y-62417188D01*
X154012000Y-62404928D01*
X152262000Y-62404928D01*
X152137518Y-62417188D01*
X152017820Y-62453498D01*
X151907506Y-62512463D01*
X151810815Y-62591815D01*
X151731463Y-62688506D01*
X151672498Y-62798820D01*
X151636188Y-62918518D01*
X151623928Y-63043000D01*
X148307320Y-63043000D01*
X148337812Y-62942482D01*
X148350072Y-62818000D01*
X148350072Y-61868000D01*
X148337812Y-61743518D01*
X148301502Y-61623820D01*
X148242537Y-61513506D01*
X148163185Y-61416815D01*
X148066494Y-61337463D01*
X147956180Y-61278498D01*
X147836482Y-61242188D01*
X147712000Y-61229928D01*
X146975507Y-61229928D01*
X146681000Y-60935422D01*
X146681000Y-58958454D01*
X146713205Y-58910256D01*
X146791226Y-58721898D01*
X146831000Y-58521939D01*
X146831000Y-58318061D01*
X146791226Y-58118102D01*
X146713205Y-57929744D01*
X146629000Y-57803722D01*
X146629000Y-56937072D01*
X147744000Y-56937072D01*
X147868482Y-56924812D01*
X147988180Y-56888502D01*
X148098494Y-56829537D01*
X148195185Y-56750185D01*
X148274537Y-56653494D01*
X148333502Y-56543180D01*
X148369812Y-56423482D01*
X148382072Y-56299000D01*
X149305928Y-56299000D01*
X149318188Y-56423482D01*
X149354498Y-56543180D01*
X149413463Y-56653494D01*
X149492815Y-56750185D01*
X149589506Y-56829537D01*
X149699820Y-56888502D01*
X149819518Y-56924812D01*
X149944000Y-56937072D01*
X151658250Y-56934000D01*
X151817000Y-56775250D01*
X151817000Y-55626000D01*
X152071000Y-55626000D01*
X152071000Y-56775250D01*
X152229750Y-56934000D01*
X153944000Y-56937072D01*
X154068482Y-56924812D01*
X154188180Y-56888502D01*
X154298494Y-56829537D01*
X154395185Y-56750185D01*
X154474537Y-56653494D01*
X154533502Y-56543180D01*
X154569812Y-56423482D01*
X154582072Y-56299000D01*
X154579000Y-55784750D01*
X154420250Y-55626000D01*
X152071000Y-55626000D01*
X151817000Y-55626000D01*
X149467750Y-55626000D01*
X149309000Y-55784750D01*
X149305928Y-56299000D01*
X148382072Y-56299000D01*
X148382072Y-54699000D01*
X149305928Y-54699000D01*
X149309000Y-55213250D01*
X149467750Y-55372000D01*
X151817000Y-55372000D01*
X151817000Y-54222750D01*
X152071000Y-54222750D01*
X152071000Y-55372000D01*
X154420250Y-55372000D01*
X154579000Y-55213250D01*
X154582072Y-54699000D01*
X154569812Y-54574518D01*
X154533502Y-54454820D01*
X154474537Y-54344506D01*
X154395185Y-54247815D01*
X154298494Y-54168463D01*
X154188180Y-54109498D01*
X154068482Y-54073188D01*
X153944000Y-54060928D01*
X152229750Y-54064000D01*
X152071000Y-54222750D01*
X151817000Y-54222750D01*
X151658250Y-54064000D01*
X149944000Y-54060928D01*
X149819518Y-54073188D01*
X149699820Y-54109498D01*
X149589506Y-54168463D01*
X149492815Y-54247815D01*
X149413463Y-54344506D01*
X149354498Y-54454820D01*
X149318188Y-54574518D01*
X149305928Y-54699000D01*
X148382072Y-54699000D01*
X148369812Y-54574518D01*
X148333502Y-54454820D01*
X148274537Y-54344506D01*
X148195185Y-54247815D01*
X148098494Y-54168463D01*
X147988180Y-54109498D01*
X147868482Y-54073188D01*
X147744000Y-54060928D01*
X146173000Y-54060928D01*
X146173000Y-50957454D01*
X146205205Y-50909256D01*
X146283226Y-50720898D01*
X146323000Y-50520939D01*
X146323000Y-50317061D01*
X146283226Y-50117102D01*
X146205205Y-49928744D01*
X146091937Y-49759226D01*
X145947774Y-49615063D01*
X145778256Y-49501795D01*
X145589898Y-49423774D01*
X145389939Y-49384000D01*
X145186061Y-49384000D01*
X144986102Y-49423774D01*
X144797744Y-49501795D01*
X144628226Y-49615063D01*
X144484063Y-49759226D01*
X144370795Y-49928744D01*
X144292774Y-50117102D01*
X144253000Y-50317061D01*
X144253000Y-50520939D01*
X144292774Y-50720898D01*
X144370795Y-50909256D01*
X144403000Y-50957455D01*
X144403001Y-54060928D01*
X143744000Y-54060928D01*
X143619518Y-54073188D01*
X143499820Y-54109498D01*
X143389506Y-54168463D01*
X143292815Y-54247815D01*
X143213463Y-54344506D01*
X143154498Y-54454820D01*
X143118188Y-54574518D01*
X143105928Y-54699000D01*
X135505000Y-54699000D01*
X135505000Y-53688653D01*
X136482952Y-53688653D01*
X136638962Y-54004214D01*
X137013745Y-54195020D01*
X137418551Y-54309044D01*
X137837824Y-54341902D01*
X138255451Y-54292334D01*
X138655383Y-54162243D01*
X138951038Y-54004214D01*
X139107048Y-53688653D01*
X137795000Y-52376605D01*
X136482952Y-53688653D01*
X135505000Y-53688653D01*
X135505000Y-52239824D01*
X135650098Y-52239824D01*
X135699666Y-52657451D01*
X135829757Y-53057383D01*
X135987786Y-53353038D01*
X136303347Y-53509048D01*
X137615395Y-52197000D01*
X137974605Y-52197000D01*
X139286653Y-53509048D01*
X139602214Y-53353038D01*
X139793020Y-52978255D01*
X139907044Y-52573449D01*
X139939902Y-52154176D01*
X139890334Y-51736549D01*
X139760243Y-51336617D01*
X139602214Y-51040962D01*
X139286653Y-50884952D01*
X137974605Y-52197000D01*
X137615395Y-52197000D01*
X136303347Y-50884952D01*
X135987786Y-51040962D01*
X135796980Y-51415745D01*
X135682956Y-51820551D01*
X135650098Y-52239824D01*
X135505000Y-52239824D01*
X135505000Y-50705347D01*
X136482952Y-50705347D01*
X137795000Y-52017395D01*
X139107048Y-50705347D01*
X138951038Y-50389786D01*
X138576255Y-50198980D01*
X138171449Y-50084956D01*
X137752176Y-50052098D01*
X137334549Y-50101666D01*
X136934617Y-50231757D01*
X136638962Y-50389786D01*
X136482952Y-50705347D01*
X135505000Y-50705347D01*
X135505000Y-46520866D01*
X135561450Y-46605349D01*
X135893651Y-46937550D01*
X136284279Y-47198560D01*
X136718321Y-47378346D01*
X137179098Y-47470000D01*
X137648902Y-47470000D01*
X138109679Y-47378346D01*
X138543721Y-47198560D01*
X138934349Y-46937550D01*
X139032899Y-46839000D01*
X144546928Y-46839000D01*
X144559188Y-46963482D01*
X144595498Y-47083180D01*
X144654463Y-47193494D01*
X144733815Y-47290185D01*
X144830506Y-47369537D01*
X144940820Y-47428502D01*
X145060518Y-47464812D01*
X145185000Y-47477072D01*
X146399250Y-47474000D01*
X146558000Y-47315250D01*
X146558000Y-45466000D01*
X146812000Y-45466000D01*
X146812000Y-47315250D01*
X146970750Y-47474000D01*
X148185000Y-47477072D01*
X148309482Y-47464812D01*
X148429180Y-47428502D01*
X148539494Y-47369537D01*
X148636185Y-47290185D01*
X148715537Y-47193494D01*
X148774502Y-47083180D01*
X148810812Y-46963482D01*
X148823072Y-46839000D01*
X148820000Y-45624750D01*
X148661250Y-45466000D01*
X146812000Y-45466000D01*
X146558000Y-45466000D01*
X144708750Y-45466000D01*
X144550000Y-45624750D01*
X144546928Y-46839000D01*
X139032899Y-46839000D01*
X139266550Y-46605349D01*
X139527560Y-46214721D01*
X139707346Y-45780679D01*
X139799000Y-45319902D01*
X139799000Y-44850098D01*
X139707346Y-44389321D01*
X139527560Y-43955279D01*
X139449865Y-43839000D01*
X144546928Y-43839000D01*
X144550000Y-45053250D01*
X144708750Y-45212000D01*
X146558000Y-45212000D01*
X146558000Y-43362750D01*
X146812000Y-43362750D01*
X146812000Y-45212000D01*
X148661250Y-45212000D01*
X148744529Y-45128721D01*
X149630000Y-45128721D01*
X149630000Y-45549279D01*
X149712047Y-45961756D01*
X149872988Y-46350302D01*
X150106637Y-46699983D01*
X150404017Y-46997363D01*
X150753698Y-47231012D01*
X150880000Y-47283328D01*
X150880001Y-49880544D01*
X150847795Y-49928744D01*
X150769774Y-50117102D01*
X150730000Y-50317061D01*
X150730000Y-50520939D01*
X150769774Y-50720898D01*
X150847795Y-50909256D01*
X150961063Y-51078774D01*
X151105226Y-51222937D01*
X151274744Y-51336205D01*
X151463102Y-51414226D01*
X151663061Y-51454000D01*
X151866939Y-51454000D01*
X152066898Y-51414226D01*
X152255256Y-51336205D01*
X152424774Y-51222937D01*
X152568937Y-51078774D01*
X152682205Y-50909256D01*
X152760226Y-50720898D01*
X152800000Y-50520939D01*
X152800000Y-50317061D01*
X152760226Y-50117102D01*
X152757292Y-50110017D01*
X156713090Y-50110017D01*
X156754078Y-50382133D01*
X156847364Y-50641023D01*
X156909344Y-50756980D01*
X157149435Y-50823960D01*
X157935395Y-50038000D01*
X158294605Y-50038000D01*
X159080565Y-50823960D01*
X159320656Y-50756980D01*
X159437756Y-50507952D01*
X159504023Y-50240865D01*
X159516910Y-49965983D01*
X159475922Y-49693867D01*
X159382636Y-49434977D01*
X159320656Y-49319020D01*
X159080565Y-49252040D01*
X158294605Y-50038000D01*
X157935395Y-50038000D01*
X157149435Y-49252040D01*
X156909344Y-49319020D01*
X156792244Y-49568048D01*
X156725977Y-49835135D01*
X156713090Y-50110017D01*
X152757292Y-50110017D01*
X152682205Y-49928744D01*
X152650000Y-49880546D01*
X152650000Y-47283328D01*
X152776302Y-47231012D01*
X153125983Y-46997363D01*
X153423363Y-46699983D01*
X153657012Y-46350302D01*
X153817953Y-45961756D01*
X153900000Y-45549279D01*
X153900000Y-45128721D01*
X153817953Y-44716244D01*
X153770657Y-44602061D01*
X154667000Y-44602061D01*
X154667000Y-44805939D01*
X154706774Y-45005898D01*
X154784795Y-45194256D01*
X154817001Y-45242456D01*
X154817000Y-47975545D01*
X154784795Y-48023744D01*
X154706774Y-48212102D01*
X154667000Y-48412061D01*
X154667000Y-48615939D01*
X154706774Y-48815898D01*
X154784795Y-49004256D01*
X154898063Y-49173774D01*
X155042226Y-49317937D01*
X155211744Y-49431205D01*
X155400102Y-49509226D01*
X155600061Y-49549000D01*
X155803939Y-49549000D01*
X156003898Y-49509226D01*
X156192256Y-49431205D01*
X156361774Y-49317937D01*
X156505937Y-49173774D01*
X156619205Y-49004256D01*
X156697226Y-48815898D01*
X156737000Y-48615939D01*
X156737000Y-48412061D01*
X156697226Y-48212102D01*
X156619205Y-48023744D01*
X156587000Y-47975546D01*
X156587000Y-47360408D01*
X156718000Y-47360408D01*
X156718000Y-47635592D01*
X156771686Y-47905490D01*
X156876995Y-48159727D01*
X157029880Y-48388535D01*
X157224465Y-48583120D01*
X157453273Y-48736005D01*
X157524943Y-48765692D01*
X157511977Y-48770364D01*
X157396020Y-48832344D01*
X157329040Y-49072435D01*
X158115000Y-49858395D01*
X158900960Y-49072435D01*
X158833980Y-48832344D01*
X158698240Y-48768515D01*
X158776727Y-48736005D01*
X159005535Y-48583120D01*
X159200120Y-48388535D01*
X159353005Y-48159727D01*
X159458314Y-47905490D01*
X159512000Y-47635592D01*
X159512000Y-47360408D01*
X159458314Y-47090510D01*
X159353005Y-46836273D01*
X159200120Y-46607465D01*
X159005535Y-46412880D01*
X158776727Y-46259995D01*
X158522490Y-46154686D01*
X158252592Y-46101000D01*
X157977408Y-46101000D01*
X157707510Y-46154686D01*
X157453273Y-46259995D01*
X157224465Y-46412880D01*
X157029880Y-46607465D01*
X156876995Y-46836273D01*
X156771686Y-47090510D01*
X156718000Y-47360408D01*
X156587000Y-47360408D01*
X156587000Y-45242454D01*
X156619205Y-45194256D01*
X156697226Y-45005898D01*
X156737000Y-44805939D01*
X156737000Y-44602061D01*
X168383000Y-44602061D01*
X168383000Y-44805939D01*
X168422774Y-45005898D01*
X168500795Y-45194256D01*
X168533000Y-45242454D01*
X168533001Y-51979426D01*
X168510000Y-52095061D01*
X168510000Y-52298939D01*
X168549774Y-52498898D01*
X168627795Y-52687256D01*
X168741063Y-52856774D01*
X168885226Y-53000937D01*
X169054744Y-53114205D01*
X169243102Y-53192226D01*
X169443061Y-53232000D01*
X169646939Y-53232000D01*
X169846898Y-53192226D01*
X170035256Y-53114205D01*
X170204774Y-53000937D01*
X170348937Y-52856774D01*
X170462205Y-52687256D01*
X170540226Y-52498898D01*
X170580000Y-52298939D01*
X170580000Y-52095061D01*
X170540226Y-51895102D01*
X170462205Y-51706744D01*
X170348937Y-51537226D01*
X170303000Y-51491289D01*
X170303000Y-45242454D01*
X170335205Y-45194256D01*
X170413226Y-45005898D01*
X170453000Y-44805939D01*
X170453000Y-44602061D01*
X170413226Y-44402102D01*
X170335205Y-44213744D01*
X170221937Y-44044226D01*
X170077774Y-43900063D01*
X169908256Y-43786795D01*
X169719898Y-43708774D01*
X169519939Y-43669000D01*
X169316061Y-43669000D01*
X169116102Y-43708774D01*
X168927744Y-43786795D01*
X168758226Y-43900063D01*
X168614063Y-44044226D01*
X168500795Y-44213744D01*
X168422774Y-44402102D01*
X168383000Y-44602061D01*
X156737000Y-44602061D01*
X156697226Y-44402102D01*
X156619205Y-44213744D01*
X156505937Y-44044226D01*
X156361774Y-43900063D01*
X156192256Y-43786795D01*
X156003898Y-43708774D01*
X155803939Y-43669000D01*
X155600061Y-43669000D01*
X155400102Y-43708774D01*
X155211744Y-43786795D01*
X155042226Y-43900063D01*
X154898063Y-44044226D01*
X154784795Y-44213744D01*
X154706774Y-44402102D01*
X154667000Y-44602061D01*
X153770657Y-44602061D01*
X153657012Y-44327698D01*
X153423363Y-43978017D01*
X153125983Y-43680637D01*
X152776302Y-43446988D01*
X152387756Y-43286047D01*
X151975279Y-43204000D01*
X151554721Y-43204000D01*
X151142244Y-43286047D01*
X150753698Y-43446988D01*
X150404017Y-43680637D01*
X150106637Y-43978017D01*
X149872988Y-44327698D01*
X149712047Y-44716244D01*
X149630000Y-45128721D01*
X148744529Y-45128721D01*
X148820000Y-45053250D01*
X148823072Y-43839000D01*
X148810812Y-43714518D01*
X148774502Y-43594820D01*
X148715537Y-43484506D01*
X148636185Y-43387815D01*
X148539494Y-43308463D01*
X148429180Y-43249498D01*
X148309482Y-43213188D01*
X148185000Y-43200928D01*
X146970750Y-43204000D01*
X146812000Y-43362750D01*
X146558000Y-43362750D01*
X146399250Y-43204000D01*
X145185000Y-43200928D01*
X145060518Y-43213188D01*
X144940820Y-43249498D01*
X144830506Y-43308463D01*
X144733815Y-43387815D01*
X144654463Y-43484506D01*
X144595498Y-43594820D01*
X144559188Y-43714518D01*
X144546928Y-43839000D01*
X139449865Y-43839000D01*
X139266550Y-43564651D01*
X138934349Y-43232450D01*
X138543721Y-42971440D01*
X138109679Y-42791654D01*
X137648902Y-42700000D01*
X137179098Y-42700000D01*
X136718321Y-42791654D01*
X136284279Y-42971440D01*
X135893651Y-43232450D01*
X135561450Y-43564651D01*
X135505000Y-43649134D01*
X135505000Y-42956454D01*
X135537205Y-42908256D01*
X135615226Y-42719898D01*
X135655000Y-42519939D01*
X135655000Y-42316061D01*
X135615226Y-42116102D01*
X135550566Y-41960000D01*
X177959829Y-41960000D01*
X177947774Y-41989102D01*
%TA.AperFunction,Conductor*%
D26*
G36*
X177947774Y-41989102D02*
G01*
X177908000Y-42189061D01*
X177908000Y-42392939D01*
X177947774Y-42592898D01*
X178025795Y-42781256D01*
X178058001Y-42829456D01*
X178058000Y-52039546D01*
X178025795Y-52087744D01*
X177947774Y-52276102D01*
X177908000Y-52476061D01*
X177908000Y-52679939D01*
X177947774Y-52879898D01*
X178025795Y-53068256D01*
X178139063Y-53237774D01*
X178283226Y-53381937D01*
X178452744Y-53495205D01*
X178641102Y-53573226D01*
X178841061Y-53613000D01*
X179044939Y-53613000D01*
X179244898Y-53573226D01*
X179433256Y-53495205D01*
X179602774Y-53381937D01*
X179746937Y-53237774D01*
X179860205Y-53068256D01*
X179938226Y-52879898D01*
X179978000Y-52679939D01*
X179978000Y-52476061D01*
X179938226Y-52276102D01*
X179860205Y-52087744D01*
X179828000Y-52039546D01*
X179828000Y-47360408D01*
X180086000Y-47360408D01*
X180086000Y-47635592D01*
X180139686Y-47905490D01*
X180244995Y-48159727D01*
X180397880Y-48388535D01*
X180592465Y-48583120D01*
X180821273Y-48736005D01*
X180898515Y-48768000D01*
X180821273Y-48799995D01*
X180592465Y-48952880D01*
X180397880Y-49147465D01*
X180244995Y-49376273D01*
X180139686Y-49630510D01*
X180086000Y-49900408D01*
X180086000Y-50175592D01*
X180139686Y-50445490D01*
X180244995Y-50699727D01*
X180397880Y-50928535D01*
X180592465Y-51123120D01*
X180821273Y-51276005D01*
X180898515Y-51308000D01*
X180821273Y-51339995D01*
X180592465Y-51492880D01*
X180397880Y-51687465D01*
X180244995Y-51916273D01*
X180139686Y-52170510D01*
X180086000Y-52440408D01*
X180086000Y-52715592D01*
X180139686Y-52985490D01*
X180244995Y-53239727D01*
X180397880Y-53468535D01*
X180592465Y-53663120D01*
X180821273Y-53816005D01*
X180898515Y-53848000D01*
X180821273Y-53879995D01*
X180592465Y-54032880D01*
X180397880Y-54227465D01*
X180244995Y-54456273D01*
X180139686Y-54710510D01*
X180086000Y-54980408D01*
X180086000Y-55255592D01*
X180139686Y-55525490D01*
X180244995Y-55779727D01*
X180397880Y-56008535D01*
X180592465Y-56203120D01*
X180821273Y-56356005D01*
X180898515Y-56388000D01*
X180821273Y-56419995D01*
X180592465Y-56572880D01*
X180397880Y-56767465D01*
X180244995Y-56996273D01*
X180139686Y-57250510D01*
X180086000Y-57520408D01*
X180086000Y-57795592D01*
X180139686Y-58065490D01*
X180244995Y-58319727D01*
X180397880Y-58548535D01*
X180592465Y-58743120D01*
X180821273Y-58896005D01*
X180898515Y-58928000D01*
X180821273Y-58959995D01*
X180592465Y-59112880D01*
X180397880Y-59307465D01*
X180244995Y-59536273D01*
X180139686Y-59790510D01*
X180086000Y-60060408D01*
X180086000Y-60335592D01*
X180139686Y-60605490D01*
X180244995Y-60859727D01*
X180397880Y-61088535D01*
X180592465Y-61283120D01*
X180821273Y-61436005D01*
X180898515Y-61468000D01*
X180821273Y-61499995D01*
X180592465Y-61652880D01*
X180397880Y-61847465D01*
X180244995Y-62076273D01*
X180139686Y-62330510D01*
X180086000Y-62600408D01*
X180086000Y-62875592D01*
X180139686Y-63145490D01*
X180244995Y-63399727D01*
X180397880Y-63628535D01*
X180592465Y-63823120D01*
X180821273Y-63976005D01*
X180898515Y-64008000D01*
X180821273Y-64039995D01*
X180592465Y-64192880D01*
X180397880Y-64387465D01*
X180244995Y-64616273D01*
X180139686Y-64870510D01*
X180086000Y-65140408D01*
X180086000Y-65415592D01*
X180139686Y-65685490D01*
X180244995Y-65939727D01*
X180397880Y-66168535D01*
X180592465Y-66363120D01*
X180821273Y-66516005D01*
X180898515Y-66548000D01*
X180821273Y-66579995D01*
X180592465Y-66732880D01*
X180397880Y-66927465D01*
X180244995Y-67156273D01*
X180139686Y-67410510D01*
X180086000Y-67680408D01*
X180086000Y-67955592D01*
X180139686Y-68225490D01*
X180244995Y-68479727D01*
X180397880Y-68708535D01*
X180592465Y-68903120D01*
X180821273Y-69056005D01*
X180898515Y-69088000D01*
X180821273Y-69119995D01*
X180592465Y-69272880D01*
X180397880Y-69467465D01*
X180244995Y-69696273D01*
X180139686Y-69950510D01*
X180086000Y-70220408D01*
X180086000Y-70495592D01*
X180139686Y-70765490D01*
X180244995Y-71019727D01*
X180397880Y-71248535D01*
X180592465Y-71443120D01*
X180821273Y-71596005D01*
X180892943Y-71625692D01*
X180879977Y-71630364D01*
X180764020Y-71692344D01*
X180697040Y-71932435D01*
X181483000Y-72718395D01*
X182268960Y-71932435D01*
X182201980Y-71692344D01*
X182066240Y-71628515D01*
X182144727Y-71596005D01*
X182373535Y-71443120D01*
X182568120Y-71248535D01*
X182721005Y-71019727D01*
X182826314Y-70765490D01*
X182880000Y-70495592D01*
X182880000Y-70220408D01*
X182826314Y-69950510D01*
X182721005Y-69696273D01*
X182568120Y-69467465D01*
X182373535Y-69272880D01*
X182144727Y-69119995D01*
X182067485Y-69088000D01*
X182144727Y-69056005D01*
X182373535Y-68903120D01*
X182568120Y-68708535D01*
X182721005Y-68479727D01*
X182826314Y-68225490D01*
X182880000Y-67955592D01*
X182880000Y-67680408D01*
X182826314Y-67410510D01*
X182721005Y-67156273D01*
X182568120Y-66927465D01*
X182373535Y-66732880D01*
X182144727Y-66579995D01*
X182067485Y-66548000D01*
X182144727Y-66516005D01*
X182373535Y-66363120D01*
X182568120Y-66168535D01*
X182721005Y-65939727D01*
X182826314Y-65685490D01*
X182880000Y-65415592D01*
X182880000Y-65140408D01*
X182826314Y-64870510D01*
X182721005Y-64616273D01*
X182568120Y-64387465D01*
X182373535Y-64192880D01*
X182144727Y-64039995D01*
X182067485Y-64008000D01*
X182144727Y-63976005D01*
X182373535Y-63823120D01*
X182568120Y-63628535D01*
X182721005Y-63399727D01*
X182826314Y-63145490D01*
X182880000Y-62875592D01*
X182880000Y-62600408D01*
X182826314Y-62330510D01*
X182721005Y-62076273D01*
X182568120Y-61847465D01*
X182373535Y-61652880D01*
X182144727Y-61499995D01*
X182067485Y-61468000D01*
X182144727Y-61436005D01*
X182373535Y-61283120D01*
X182568120Y-61088535D01*
X182721005Y-60859727D01*
X182826314Y-60605490D01*
X182880000Y-60335592D01*
X182880000Y-60060408D01*
X182826314Y-59790510D01*
X182721005Y-59536273D01*
X182568120Y-59307465D01*
X182373535Y-59112880D01*
X182144727Y-58959995D01*
X182067485Y-58928000D01*
X182144727Y-58896005D01*
X182373535Y-58743120D01*
X182568120Y-58548535D01*
X182721005Y-58319727D01*
X182826314Y-58065490D01*
X182880000Y-57795592D01*
X182880000Y-57520408D01*
X182826314Y-57250510D01*
X182721005Y-56996273D01*
X182568120Y-56767465D01*
X182373535Y-56572880D01*
X182144727Y-56419995D01*
X182067485Y-56388000D01*
X182144727Y-56356005D01*
X182373535Y-56203120D01*
X182568120Y-56008535D01*
X182721005Y-55779727D01*
X182826314Y-55525490D01*
X182880000Y-55255592D01*
X182880000Y-54980408D01*
X182826314Y-54710510D01*
X182721005Y-54456273D01*
X182568120Y-54227465D01*
X182373535Y-54032880D01*
X182144727Y-53879995D01*
X182067485Y-53848000D01*
X182144727Y-53816005D01*
X182373535Y-53663120D01*
X182568120Y-53468535D01*
X182721005Y-53239727D01*
X182826314Y-52985490D01*
X182880000Y-52715592D01*
X182880000Y-52440408D01*
X182826314Y-52170510D01*
X182721005Y-51916273D01*
X182568120Y-51687465D01*
X182373535Y-51492880D01*
X182144727Y-51339995D01*
X182067485Y-51308000D01*
X182144727Y-51276005D01*
X182373535Y-51123120D01*
X182568120Y-50928535D01*
X182721005Y-50699727D01*
X182826314Y-50445490D01*
X182880000Y-50175592D01*
X182880000Y-49900408D01*
X182826314Y-49630510D01*
X182721005Y-49376273D01*
X182568120Y-49147465D01*
X182373535Y-48952880D01*
X182144727Y-48799995D01*
X182067485Y-48768000D01*
X182144727Y-48736005D01*
X182373535Y-48583120D01*
X182568120Y-48388535D01*
X182721005Y-48159727D01*
X182826314Y-47905490D01*
X182880000Y-47635592D01*
X182880000Y-47360408D01*
X182826314Y-47090510D01*
X182721005Y-46836273D01*
X182568120Y-46607465D01*
X182373535Y-46412880D01*
X182144727Y-46259995D01*
X181890490Y-46154686D01*
X181620592Y-46101000D01*
X181345408Y-46101000D01*
X181075510Y-46154686D01*
X180821273Y-46259995D01*
X180592465Y-46412880D01*
X180397880Y-46607465D01*
X180244995Y-46836273D01*
X180139686Y-47090510D01*
X180086000Y-47360408D01*
X179828000Y-47360408D01*
X179828000Y-42829454D01*
X179860205Y-42781256D01*
X179938226Y-42592898D01*
X179978000Y-42392939D01*
X179978000Y-42189061D01*
X179938226Y-41989102D01*
X179926171Y-41960000D01*
X183468700Y-41960000D01*
X183678888Y-80774729D01*
X180105000Y-80791049D01*
X180105000Y-77241061D01*
X180095031Y-77190943D01*
X180090024Y-77140105D01*
X180075196Y-77091223D01*
X180065226Y-77041102D01*
X180045669Y-76993887D01*
X180030841Y-76945007D01*
X180006762Y-76899958D01*
X179987205Y-76852744D01*
X179958814Y-76810254D01*
X179934734Y-76765203D01*
X179902328Y-76725716D01*
X179873937Y-76683226D01*
X179837803Y-76647092D01*
X179805396Y-76607604D01*
X179765908Y-76575197D01*
X179729774Y-76539063D01*
X179687284Y-76510672D01*
X179647797Y-76478266D01*
X179602746Y-76454186D01*
X179560256Y-76425795D01*
X179513042Y-76406238D01*
X179467993Y-76382159D01*
X179419113Y-76367331D01*
X179371898Y-76347774D01*
X179321777Y-76337804D01*
X179272895Y-76322976D01*
X179222057Y-76317969D01*
X179171939Y-76308000D01*
X179120838Y-76308000D01*
X179070000Y-76302993D01*
X179019162Y-76308000D01*
X178968061Y-76308000D01*
X178917942Y-76317969D01*
X178867106Y-76322976D01*
X178818226Y-76337804D01*
X178768102Y-76347774D01*
X178720884Y-76367332D01*
X178672008Y-76382159D01*
X178626962Y-76406237D01*
X178579744Y-76425795D01*
X178537250Y-76454188D01*
X178492204Y-76478266D01*
X178452721Y-76510669D01*
X178410226Y-76539063D01*
X178374087Y-76575202D01*
X178334605Y-76607604D01*
X178302203Y-76647086D01*
X178266063Y-76683226D01*
X178237668Y-76725722D01*
X178205267Y-76765203D01*
X178181191Y-76810247D01*
X178152795Y-76852744D01*
X178133235Y-76899966D01*
X178109160Y-76945007D01*
X178094335Y-76993878D01*
X178074774Y-77041102D01*
X178064803Y-77091232D01*
X178049977Y-77140105D01*
X178044971Y-77190933D01*
X178035000Y-77241061D01*
X178035000Y-77444939D01*
X178035001Y-77444943D01*
X178035000Y-78511060D01*
X178035000Y-80309669D01*
X177974898Y-80284774D01*
X177923000Y-80274451D01*
X177923000Y-75300408D01*
X180086000Y-75300408D01*
X180086000Y-75575592D01*
X180139686Y-75845490D01*
X180244995Y-76099727D01*
X180397880Y-76328535D01*
X180592465Y-76523120D01*
X180821273Y-76676005D01*
X181075510Y-76781314D01*
X181345408Y-76835000D01*
X181620592Y-76835000D01*
X181890490Y-76781314D01*
X182144727Y-76676005D01*
X182373535Y-76523120D01*
X182568120Y-76328535D01*
X182721005Y-76099727D01*
X182826314Y-75845490D01*
X182880000Y-75575592D01*
X182880000Y-75300408D01*
X182826314Y-75030510D01*
X182721005Y-74776273D01*
X182568120Y-74547465D01*
X182373535Y-74352880D01*
X182144727Y-74199995D01*
X182073057Y-74170308D01*
X182086023Y-74165636D01*
X182201980Y-74103656D01*
X182268960Y-73863565D01*
X181483000Y-73077605D01*
X180697040Y-73863565D01*
X180764020Y-74103656D01*
X180899760Y-74167485D01*
X180821273Y-74199995D01*
X180592465Y-74352880D01*
X180397880Y-74547465D01*
X180244995Y-74776273D01*
X180139686Y-75030510D01*
X180086000Y-75300408D01*
X177923000Y-75300408D01*
X177923000Y-74792549D01*
X177974898Y-74782226D01*
X178163256Y-74704205D01*
X178332774Y-74590937D01*
X178476937Y-74446774D01*
X178590205Y-74277256D01*
X178668226Y-74088898D01*
X178708000Y-73888939D01*
X178708000Y-73685061D01*
X178668226Y-73485102D01*
X178590205Y-73296744D01*
X178476937Y-73127226D01*
X178332774Y-72983063D01*
X178313250Y-72970017D01*
X180081090Y-72970017D01*
X180122078Y-73242133D01*
X180215364Y-73501023D01*
X180277344Y-73616980D01*
X180517435Y-73683960D01*
X181303395Y-72898000D01*
X181662605Y-72898000D01*
X182448565Y-73683960D01*
X182688656Y-73616980D01*
X182805756Y-73367952D01*
X182872023Y-73100865D01*
X182884910Y-72825983D01*
X182843922Y-72553867D01*
X182750636Y-72294977D01*
X182688656Y-72179020D01*
X182448565Y-72112040D01*
X181662605Y-72898000D01*
X181303395Y-72898000D01*
X180517435Y-72112040D01*
X180277344Y-72179020D01*
X180160244Y-72428048D01*
X180093977Y-72695135D01*
X180081090Y-72970017D01*
X178313250Y-72970017D01*
X178163256Y-72869795D01*
X177974898Y-72791774D01*
X177774939Y-72752000D01*
X177571061Y-72752000D01*
X177371102Y-72791774D01*
X177182744Y-72869795D01*
X177134546Y-72902000D01*
X177081476Y-72902000D01*
X177038000Y-72897718D01*
X176994523Y-72902000D01*
X176306454Y-72902000D01*
X176258256Y-72869795D01*
X176069898Y-72791774D01*
X175869939Y-72752000D01*
X175666061Y-72752000D01*
X175466102Y-72791774D01*
X175277744Y-72869795D01*
X175108226Y-72983063D01*
X174964063Y-73127226D01*
X174875000Y-73260519D01*
X174875000Y-63530454D01*
X174907205Y-63482256D01*
X174985226Y-63293898D01*
X175025000Y-63093939D01*
X175025000Y-62890061D01*
X174985226Y-62690102D01*
X174907205Y-62501744D01*
X174793937Y-62332226D01*
X174649774Y-62188063D01*
X174480256Y-62074795D01*
X174291898Y-61996774D01*
X174091939Y-61957000D01*
X173888061Y-61957000D01*
X173688102Y-61996774D01*
X173499744Y-62074795D01*
X173330226Y-62188063D01*
X173186063Y-62332226D01*
X173072795Y-62501744D01*
X172994774Y-62690102D01*
X172955000Y-62890061D01*
X172955000Y-63093939D01*
X172994774Y-63293898D01*
X173072795Y-63482256D01*
X173105001Y-63530456D01*
X173105000Y-80823012D01*
X171114750Y-80832100D01*
X171097205Y-80789744D01*
X170983937Y-80620226D01*
X170839774Y-80476063D01*
X170670256Y-80362795D01*
X170481898Y-80284774D01*
X170281939Y-80245000D01*
X170078061Y-80245000D01*
X169878102Y-80284774D01*
X169795000Y-80319196D01*
X169795000Y-69621061D01*
X170923000Y-69621061D01*
X170923000Y-69824939D01*
X170962774Y-70024898D01*
X171040795Y-70213256D01*
X171073000Y-70261455D01*
X171073001Y-73248544D01*
X171040795Y-73296744D01*
X170962774Y-73485102D01*
X170923000Y-73685061D01*
X170923000Y-73888939D01*
X170962774Y-74088898D01*
X171040795Y-74277256D01*
X171154063Y-74446774D01*
X171298226Y-74590937D01*
X171467744Y-74704205D01*
X171656102Y-74782226D01*
X171856061Y-74822000D01*
X172059939Y-74822000D01*
X172259898Y-74782226D01*
X172448256Y-74704205D01*
X172617774Y-74590937D01*
X172761937Y-74446774D01*
X172875205Y-74277256D01*
X172953226Y-74088898D01*
X172993000Y-73888939D01*
X172993000Y-73685061D01*
X172953226Y-73485102D01*
X172875205Y-73296744D01*
X172843000Y-73248546D01*
X172843000Y-70261454D01*
X172875205Y-70213256D01*
X172953226Y-70024898D01*
X172993000Y-69824939D01*
X172993000Y-69621061D01*
X172953226Y-69421102D01*
X172875205Y-69232744D01*
X172761937Y-69063226D01*
X172617774Y-68919063D01*
X172448256Y-68805795D01*
X172259898Y-68727774D01*
X172059939Y-68688000D01*
X171856061Y-68688000D01*
X171656102Y-68727774D01*
X171467744Y-68805795D01*
X171298226Y-68919063D01*
X171154063Y-69063226D01*
X171040795Y-69232744D01*
X170962774Y-69421102D01*
X170923000Y-69621061D01*
X169795000Y-69621061D01*
X169795000Y-65816454D01*
X169827205Y-65768256D01*
X169905226Y-65579898D01*
X169945000Y-65379939D01*
X169945000Y-65176061D01*
X169905226Y-64976102D01*
X169827205Y-64787744D01*
X169713937Y-64618226D01*
X169569774Y-64474063D01*
X169400256Y-64360795D01*
X169211898Y-64282774D01*
X169011939Y-64243000D01*
X168808061Y-64243000D01*
X168608102Y-64282774D01*
X168419744Y-64360795D01*
X168250226Y-64474063D01*
X168106063Y-64618226D01*
X167992795Y-64787744D01*
X167914774Y-64976102D01*
X167875000Y-65176061D01*
X167875000Y-65379939D01*
X167914774Y-65579898D01*
X167992795Y-65768256D01*
X168025001Y-65816456D01*
X168025000Y-80846208D01*
X166874000Y-80851464D01*
X166874000Y-79024454D01*
X166906205Y-78976256D01*
X166984226Y-78787898D01*
X167024000Y-78587939D01*
X167024000Y-78384061D01*
X166984226Y-78184102D01*
X166906205Y-77995744D01*
X166792937Y-77826226D01*
X166648774Y-77682063D01*
X166479256Y-77568795D01*
X166290898Y-77490774D01*
X166090939Y-77451000D01*
X165887061Y-77451000D01*
X165687102Y-77490774D01*
X165498744Y-77568795D01*
X165477000Y-77583324D01*
X165477000Y-75964481D01*
X165481191Y-75970753D01*
X165505267Y-76015797D01*
X165537668Y-76055278D01*
X165566063Y-76097774D01*
X165602203Y-76133914D01*
X165634605Y-76173396D01*
X165674087Y-76205798D01*
X165710226Y-76241937D01*
X165752721Y-76270331D01*
X165792204Y-76302734D01*
X165837250Y-76326812D01*
X165879744Y-76355205D01*
X165926962Y-76374763D01*
X165972008Y-76398841D01*
X166020884Y-76413668D01*
X166068102Y-76433226D01*
X166118226Y-76443196D01*
X166167106Y-76458024D01*
X166217942Y-76463031D01*
X166268061Y-76473000D01*
X166319162Y-76473000D01*
X166370000Y-76478007D01*
X166420838Y-76473000D01*
X166471939Y-76473000D01*
X166522057Y-76463031D01*
X166572895Y-76458024D01*
X166621777Y-76443196D01*
X166671898Y-76433226D01*
X166719113Y-76413669D01*
X166767993Y-76398841D01*
X166813042Y-76374762D01*
X166860256Y-76355205D01*
X166902746Y-76326814D01*
X166947797Y-76302734D01*
X166987284Y-76270328D01*
X167029774Y-76241937D01*
X167065908Y-76205803D01*
X167105396Y-76173396D01*
X167137803Y-76133908D01*
X167173937Y-76097774D01*
X167202328Y-76055284D01*
X167234734Y-76015797D01*
X167258814Y-75970746D01*
X167287205Y-75928256D01*
X167306762Y-75881042D01*
X167330841Y-75835993D01*
X167345669Y-75787113D01*
X167365226Y-75739898D01*
X167375196Y-75689777D01*
X167390024Y-75640895D01*
X167395031Y-75590057D01*
X167405000Y-75539939D01*
X167405000Y-71616851D01*
X167457840Y-71517993D01*
X167517023Y-71322895D01*
X167537006Y-71120001D01*
X167517023Y-70917105D01*
X167457840Y-70722007D01*
X167405000Y-70623149D01*
X167405000Y-70154827D01*
X167410006Y-70103999D01*
X167405000Y-70053171D01*
X167405000Y-70053162D01*
X167390024Y-69901105D01*
X167330841Y-69706007D01*
X167278000Y-69607148D01*
X167278000Y-47523061D01*
X167268031Y-47472943D01*
X167263024Y-47422105D01*
X167248196Y-47373223D01*
X167238226Y-47323102D01*
X167218669Y-47275887D01*
X167203841Y-47227007D01*
X167179762Y-47181958D01*
X167160205Y-47134744D01*
X167131814Y-47092254D01*
X167107734Y-47047203D01*
X167075328Y-47007716D01*
X167046937Y-46965226D01*
X167010803Y-46929092D01*
X166978396Y-46889604D01*
X166938908Y-46857197D01*
X166902774Y-46821063D01*
X166860284Y-46792672D01*
X166820797Y-46760266D01*
X166775746Y-46736186D01*
X166733256Y-46707795D01*
X166686042Y-46688238D01*
X166640993Y-46664159D01*
X166592113Y-46649331D01*
X166544898Y-46629774D01*
X166494777Y-46619804D01*
X166445895Y-46604976D01*
X166395057Y-46599969D01*
X166344939Y-46590000D01*
X166293838Y-46590000D01*
X166243000Y-46584993D01*
X166192162Y-46590000D01*
X166141061Y-46590000D01*
X166090942Y-46599969D01*
X166040106Y-46604976D01*
X165991226Y-46619804D01*
X165941102Y-46629774D01*
X165893884Y-46649332D01*
X165845008Y-46664159D01*
X165799962Y-46688237D01*
X165752744Y-46707795D01*
X165710250Y-46736188D01*
X165665204Y-46760266D01*
X165625721Y-46792669D01*
X165583226Y-46821063D01*
X165547087Y-46857202D01*
X165507605Y-46889604D01*
X165475203Y-46929086D01*
X165439063Y-46965226D01*
X165410668Y-47007722D01*
X165378267Y-47047203D01*
X165354191Y-47092247D01*
X165325795Y-47134744D01*
X165306235Y-47181966D01*
X165282160Y-47227007D01*
X165267335Y-47275878D01*
X165247774Y-47323102D01*
X165237803Y-47373232D01*
X165222977Y-47422105D01*
X165217971Y-47472933D01*
X165208000Y-47523061D01*
X165208000Y-47726939D01*
X165208001Y-47726944D01*
X165208000Y-54381061D01*
X165208000Y-54584939D01*
X165208001Y-54584944D01*
X165208000Y-67111814D01*
X165082256Y-67027795D01*
X164893898Y-66949774D01*
X164693939Y-66910000D01*
X164490061Y-66910000D01*
X164290102Y-66949774D01*
X164101744Y-67027795D01*
X163953000Y-67127182D01*
X163953000Y-63403454D01*
X163985205Y-63355256D01*
X164063226Y-63166898D01*
X164103000Y-62966939D01*
X164103000Y-62763061D01*
X164063226Y-62563102D01*
X163985205Y-62374744D01*
X163871937Y-62205226D01*
X163727774Y-62061063D01*
X163558256Y-61947795D01*
X163369898Y-61869774D01*
X163169939Y-61830000D01*
X162966061Y-61830000D01*
X162766102Y-61869774D01*
X162577744Y-61947795D01*
X162408226Y-62061063D01*
X162264063Y-62205226D01*
X162150795Y-62374744D01*
X162072774Y-62563102D01*
X162033000Y-62763061D01*
X162033000Y-62966939D01*
X162072774Y-63166898D01*
X162150795Y-63355256D01*
X162183000Y-63403454D01*
X162183000Y-64580289D01*
X162076774Y-64474063D01*
X161907256Y-64360795D01*
X161718898Y-64282774D01*
X161518939Y-64243000D01*
X161315061Y-64243000D01*
X161159000Y-64274042D01*
X161159000Y-55161476D01*
X161163282Y-55118000D01*
X161159000Y-55074523D01*
X161159000Y-51973454D01*
X161191205Y-51925256D01*
X161269226Y-51736898D01*
X161309000Y-51536939D01*
X161309000Y-51333061D01*
X161269226Y-51133102D01*
X161191205Y-50944744D01*
X161077937Y-50775226D01*
X160933774Y-50631063D01*
X160764256Y-50517795D01*
X160575898Y-50439774D01*
X160375939Y-50400000D01*
X160172061Y-50400000D01*
X159972102Y-50439774D01*
X159783744Y-50517795D01*
X159614226Y-50631063D01*
X159470063Y-50775226D01*
X159356795Y-50944744D01*
X159278774Y-51133102D01*
X159239000Y-51333061D01*
X159239000Y-51536939D01*
X159278774Y-51736898D01*
X159356795Y-51925256D01*
X159389001Y-51973456D01*
X159389001Y-52003174D01*
X159353005Y-51916273D01*
X159200120Y-51687465D01*
X159005535Y-51492880D01*
X158776727Y-51339995D01*
X158705057Y-51310308D01*
X158718023Y-51305636D01*
X158833980Y-51243656D01*
X158900960Y-51003565D01*
X158115000Y-50217605D01*
X157329040Y-51003565D01*
X157396020Y-51243656D01*
X157531760Y-51307485D01*
X157453273Y-51339995D01*
X157224465Y-51492880D01*
X157029880Y-51687465D01*
X157026182Y-51693000D01*
X156126465Y-51693000D01*
X156082999Y-51688719D01*
X156039533Y-51693000D01*
X156039523Y-51693000D01*
X155909510Y-51705805D01*
X155742687Y-51756411D01*
X155588941Y-51838589D01*
X155454183Y-51949183D01*
X155426466Y-51982956D01*
X155360952Y-52048470D01*
X155327184Y-52076183D01*
X155299471Y-52109951D01*
X155299468Y-52109954D01*
X155216590Y-52210941D01*
X155134412Y-52364687D01*
X155083805Y-52531510D01*
X155066719Y-52705000D01*
X155071001Y-52748479D01*
X155071000Y-71089546D01*
X155038795Y-71137744D01*
X154960774Y-71326102D01*
X154921000Y-71526061D01*
X154921000Y-71729939D01*
X154960774Y-71929898D01*
X155038795Y-72118256D01*
X155152063Y-72287774D01*
X155296226Y-72431937D01*
X155465744Y-72545205D01*
X155654102Y-72623226D01*
X155854061Y-72663000D01*
X156057939Y-72663000D01*
X156257898Y-72623226D01*
X156446256Y-72545205D01*
X156615774Y-72431937D01*
X156759937Y-72287774D01*
X156873205Y-72118256D01*
X156951226Y-71929898D01*
X156991000Y-71729939D01*
X156991000Y-71526061D01*
X156951226Y-71326102D01*
X156950176Y-71323565D01*
X157329040Y-71323565D01*
X157396020Y-71563656D01*
X157526644Y-71625079D01*
X157511977Y-71630364D01*
X157396020Y-71692344D01*
X157329040Y-71932435D01*
X158115000Y-72718395D01*
X158900960Y-71932435D01*
X158833980Y-71692344D01*
X158703356Y-71630921D01*
X158718023Y-71625636D01*
X158833980Y-71563656D01*
X158900960Y-71323565D01*
X158115000Y-70537605D01*
X157329040Y-71323565D01*
X156950176Y-71323565D01*
X156873205Y-71137744D01*
X156841000Y-71089546D01*
X156841000Y-70943361D01*
X156847364Y-70961023D01*
X156909344Y-71076980D01*
X157149435Y-71143960D01*
X157935395Y-70358000D01*
X157149435Y-69572040D01*
X156909344Y-69639020D01*
X156841000Y-69784362D01*
X156841000Y-68392828D01*
X156876995Y-68479727D01*
X157029880Y-68708535D01*
X157224465Y-68903120D01*
X157453273Y-69056005D01*
X157524943Y-69085692D01*
X157511977Y-69090364D01*
X157396020Y-69152344D01*
X157329040Y-69392435D01*
X158115000Y-70178395D01*
X158900960Y-69392435D01*
X158833980Y-69152344D01*
X158698240Y-69088515D01*
X158776727Y-69056005D01*
X159005535Y-68903120D01*
X159200120Y-68708535D01*
X159353005Y-68479727D01*
X159389000Y-68392828D01*
X159389000Y-69772640D01*
X159382636Y-69754977D01*
X159320656Y-69639020D01*
X159080565Y-69572040D01*
X158294605Y-70358000D01*
X159080565Y-71143960D01*
X159320656Y-71076980D01*
X159389000Y-70931637D01*
X159389000Y-72312639D01*
X159382636Y-72294977D01*
X159320656Y-72179020D01*
X159080565Y-72112040D01*
X158294605Y-72898000D01*
X159080565Y-73683960D01*
X159320656Y-73616980D01*
X159389000Y-73471637D01*
X159389000Y-74863172D01*
X159353005Y-74776273D01*
X159200120Y-74547465D01*
X159005535Y-74352880D01*
X158776727Y-74199995D01*
X158705057Y-74170308D01*
X158718023Y-74165636D01*
X158833980Y-74103656D01*
X158900960Y-73863565D01*
X158115000Y-73077605D01*
X157329040Y-73863565D01*
X157396020Y-74103656D01*
X157531760Y-74167485D01*
X157453273Y-74199995D01*
X157224465Y-74352880D01*
X157029880Y-74547465D01*
X156876995Y-74776273D01*
X156771686Y-75030510D01*
X156718000Y-75300408D01*
X156718000Y-75575592D01*
X156771686Y-75845490D01*
X156876995Y-76099727D01*
X157029880Y-76328535D01*
X157224465Y-76523120D01*
X157453273Y-76676005D01*
X157707510Y-76781314D01*
X157977408Y-76835000D01*
X158252592Y-76835000D01*
X158522490Y-76781314D01*
X158776727Y-76676005D01*
X159005535Y-76523120D01*
X159200120Y-76328535D01*
X159353005Y-76099727D01*
X159389000Y-76012828D01*
X159389000Y-76804546D01*
X159356795Y-76852744D01*
X159278774Y-77041102D01*
X159239000Y-77241061D01*
X159239000Y-77444939D01*
X159278774Y-77644898D01*
X159356795Y-77833256D01*
X159470063Y-78002774D01*
X159614226Y-78146937D01*
X159783744Y-78260205D01*
X159972102Y-78338226D01*
X160172061Y-78378000D01*
X160375939Y-78378000D01*
X160409807Y-78371263D01*
X160382000Y-78511061D01*
X160382000Y-78714939D01*
X160421774Y-78914898D01*
X160499795Y-79103256D01*
X160613063Y-79272774D01*
X160757226Y-79416937D01*
X160926744Y-79530205D01*
X161115102Y-79608226D01*
X161315061Y-79648000D01*
X161518939Y-79648000D01*
X161718898Y-79608226D01*
X161907256Y-79530205D01*
X162076774Y-79416937D01*
X162183001Y-79310710D01*
X162183001Y-80106544D01*
X162150795Y-80154744D01*
X162072774Y-80343102D01*
X162033000Y-80543061D01*
X162033000Y-80746939D01*
X162058165Y-80873454D01*
X157222000Y-80895537D01*
X157222000Y-79151454D01*
X157254205Y-79103256D01*
X157332226Y-78914898D01*
X157372000Y-78714939D01*
X157372000Y-78511061D01*
X157332226Y-78311102D01*
X157254205Y-78122744D01*
X157140937Y-77953226D01*
X156996774Y-77809063D01*
X156827256Y-77695795D01*
X156638898Y-77617774D01*
X156438939Y-77578000D01*
X156235061Y-77578000D01*
X156035102Y-77617774D01*
X155846744Y-77695795D01*
X155677226Y-77809063D01*
X155533063Y-77953226D01*
X155419795Y-78122744D01*
X155341774Y-78311102D01*
X155302000Y-78511061D01*
X155302000Y-78714939D01*
X155341774Y-78914898D01*
X155419795Y-79103256D01*
X155452000Y-79151454D01*
X155452000Y-79811196D01*
X155368898Y-79776774D01*
X155168939Y-79737000D01*
X154965061Y-79737000D01*
X154765102Y-79776774D01*
X154576744Y-79854795D01*
X154555000Y-79869324D01*
X154555000Y-77246454D01*
X154587205Y-77198256D01*
X154665226Y-77009898D01*
X154705000Y-76809939D01*
X154705000Y-76606061D01*
X154665226Y-76406102D01*
X154587205Y-76217744D01*
X154473937Y-76048226D01*
X154329774Y-75904063D01*
X154160256Y-75790795D01*
X153971898Y-75712774D01*
X153771939Y-75673000D01*
X153568061Y-75673000D01*
X153368102Y-75712774D01*
X153179744Y-75790795D01*
X153010226Y-75904063D01*
X152866063Y-76048226D01*
X152752795Y-76217744D01*
X152674774Y-76406102D01*
X152635000Y-76606061D01*
X152635000Y-76809939D01*
X152674774Y-77009898D01*
X152752795Y-77198256D01*
X152785000Y-77246454D01*
X152785000Y-77386477D01*
X152785001Y-77386487D01*
X152785000Y-80966277D01*
X144291000Y-81121655D01*
X144291000Y-80252852D01*
X144343841Y-80153993D01*
X144403024Y-79958895D01*
X144418000Y-79806838D01*
X144418000Y-79806829D01*
X144423006Y-79756001D01*
X144418000Y-79705173D01*
X144418000Y-67978000D01*
X145662627Y-67978000D01*
X145717820Y-68007502D01*
X145837518Y-68043812D01*
X145962000Y-68056072D01*
X147712000Y-68056072D01*
X147836482Y-68043812D01*
X147956180Y-68007502D01*
X148011373Y-67978000D01*
X148135144Y-67978000D01*
X148057226Y-68030063D01*
X147913063Y-68174226D01*
X147799795Y-68343744D01*
X147721774Y-68532102D01*
X147682000Y-68732061D01*
X147682000Y-68935939D01*
X147721774Y-69135898D01*
X147799795Y-69324256D01*
X147832000Y-69372455D01*
X147832001Y-72359544D01*
X147799795Y-72407744D01*
X147721774Y-72596102D01*
X147682000Y-72796061D01*
X147682000Y-72999939D01*
X147721774Y-73199898D01*
X147799795Y-73388256D01*
X147913063Y-73557774D01*
X148057226Y-73701937D01*
X148226744Y-73815205D01*
X148415102Y-73893226D01*
X148615061Y-73933000D01*
X148818939Y-73933000D01*
X149018898Y-73893226D01*
X149207256Y-73815205D01*
X149376774Y-73701937D01*
X149520937Y-73557774D01*
X149634205Y-73388256D01*
X149712226Y-73199898D01*
X149752000Y-72999939D01*
X149752000Y-72970017D01*
X156713090Y-72970017D01*
X156754078Y-73242133D01*
X156847364Y-73501023D01*
X156909344Y-73616980D01*
X157149435Y-73683960D01*
X157935395Y-72898000D01*
X157149435Y-72112040D01*
X156909344Y-72179020D01*
X156792244Y-72428048D01*
X156725977Y-72695135D01*
X156713090Y-72970017D01*
X149752000Y-72970017D01*
X149752000Y-72796061D01*
X149712226Y-72596102D01*
X149634205Y-72407744D01*
X149602000Y-72359546D01*
X149602000Y-69372454D01*
X149634205Y-69324256D01*
X149712226Y-69135898D01*
X149752000Y-68935939D01*
X149752000Y-68732061D01*
X149712226Y-68532102D01*
X149634205Y-68343744D01*
X149520937Y-68174226D01*
X149376774Y-68030063D01*
X149207256Y-67916795D01*
X149018898Y-67838774D01*
X148982332Y-67831501D01*
X149026797Y-67807734D01*
X149096747Y-67750328D01*
X149122774Y-67732937D01*
X149144908Y-67710803D01*
X149184396Y-67678396D01*
X149216803Y-67638908D01*
X149266937Y-67588774D01*
X149295329Y-67546283D01*
X149327734Y-67506797D01*
X149351813Y-67461748D01*
X149380205Y-67419256D01*
X149399764Y-67372036D01*
X149423840Y-67326993D01*
X149438665Y-67278122D01*
X149458226Y-67230898D01*
X149468197Y-67180768D01*
X149483023Y-67131895D01*
X149488030Y-67081064D01*
X149498000Y-67030939D01*
X149498000Y-66979835D01*
X149503007Y-66929000D01*
X149498000Y-66878162D01*
X149498000Y-66827061D01*
X149488030Y-66776936D01*
X149483023Y-66726105D01*
X149468197Y-66677232D01*
X149458226Y-66627102D01*
X149438665Y-66579878D01*
X149423840Y-66531007D01*
X149399764Y-66485964D01*
X149380205Y-66438744D01*
X149351813Y-66396252D01*
X149327734Y-66351203D01*
X149295328Y-66311716D01*
X149266937Y-66269226D01*
X149230803Y-66233092D01*
X149198396Y-66193604D01*
X149158908Y-66161197D01*
X149122774Y-66125063D01*
X149080284Y-66096672D01*
X149040797Y-66064266D01*
X148995748Y-66040187D01*
X148953256Y-66011795D01*
X148906036Y-65992236D01*
X148860993Y-65968160D01*
X148812122Y-65953335D01*
X148764898Y-65933774D01*
X148714768Y-65923803D01*
X148665895Y-65908977D01*
X148615064Y-65903970D01*
X148564939Y-65894000D01*
X148513835Y-65894000D01*
X148463000Y-65888993D01*
X148412165Y-65894000D01*
X148361061Y-65894000D01*
X148310936Y-65903970D01*
X148270024Y-65908000D01*
X148011373Y-65908000D01*
X147956180Y-65878498D01*
X147836482Y-65842188D01*
X147712000Y-65829928D01*
X145962000Y-65829928D01*
X145837518Y-65842188D01*
X145717820Y-65878498D01*
X145662627Y-65908000D01*
X143575984Y-65908000D01*
X143535058Y-65903969D01*
X143484939Y-65894000D01*
X143433838Y-65894000D01*
X143383000Y-65888993D01*
X143332162Y-65894000D01*
X143281061Y-65894000D01*
X143230943Y-65903969D01*
X143190015Y-65908000D01*
X142861711Y-65908000D01*
X142071711Y-65118000D01*
X145323928Y-65118000D01*
X145336188Y-65242482D01*
X145372498Y-65362180D01*
X145431463Y-65472494D01*
X145510815Y-65569185D01*
X145607506Y-65648537D01*
X145717820Y-65707502D01*
X145837518Y-65743812D01*
X145962000Y-65756072D01*
X146551250Y-65753000D01*
X146710000Y-65594250D01*
X146710000Y-64770000D01*
X146964000Y-64770000D01*
X146964000Y-65594250D01*
X147122750Y-65753000D01*
X147712000Y-65756072D01*
X147836482Y-65743812D01*
X147956180Y-65707502D01*
X148066494Y-65648537D01*
X148163185Y-65569185D01*
X148242537Y-65472494D01*
X148301502Y-65362180D01*
X148337812Y-65242482D01*
X148350072Y-65118000D01*
X148347000Y-64928750D01*
X148188250Y-64770000D01*
X146964000Y-64770000D01*
X146710000Y-64770000D01*
X145485750Y-64770000D01*
X145327000Y-64928750D01*
X145323928Y-65118000D01*
X142071711Y-65118000D01*
X141121711Y-64168000D01*
X145323928Y-64168000D01*
X145327000Y-64357250D01*
X145485750Y-64516000D01*
X146710000Y-64516000D01*
X146710000Y-63691750D01*
X146964000Y-63691750D01*
X146964000Y-64516000D01*
X148188250Y-64516000D01*
X148347000Y-64357250D01*
X148350072Y-64168000D01*
X148337812Y-64043518D01*
X148301502Y-63923820D01*
X148242537Y-63813506D01*
X148163185Y-63716815D01*
X148066494Y-63637463D01*
X147956180Y-63578498D01*
X147836482Y-63542188D01*
X147712000Y-63529928D01*
X147122750Y-63533000D01*
X146964000Y-63691750D01*
X146710000Y-63691750D01*
X146551250Y-63533000D01*
X145962000Y-63529928D01*
X145837518Y-63542188D01*
X145717820Y-63578498D01*
X145607506Y-63637463D01*
X145510815Y-63716815D01*
X145431463Y-63813506D01*
X145372498Y-63923820D01*
X145336188Y-64043518D01*
X145323928Y-64168000D01*
X141121711Y-64168000D01*
X140884072Y-63930362D01*
X140884072Y-61956000D01*
X140871812Y-61831518D01*
X140835502Y-61711820D01*
X140776537Y-61601506D01*
X140697185Y-61504815D01*
X140600494Y-61425463D01*
X140490180Y-61366498D01*
X140370482Y-61330188D01*
X140246000Y-61317928D01*
X138646000Y-61317928D01*
X138521518Y-61330188D01*
X138401820Y-61366498D01*
X138291506Y-61425463D01*
X138194815Y-61504815D01*
X138115463Y-61601506D01*
X138056498Y-61711820D01*
X138020188Y-61831518D01*
X138007928Y-61956000D01*
X138007928Y-65956000D01*
X138020188Y-66080482D01*
X138056498Y-66200180D01*
X138115463Y-66310494D01*
X138194815Y-66407185D01*
X138291506Y-66486537D01*
X138401820Y-66545502D01*
X138521518Y-66581812D01*
X138646000Y-66594072D01*
X140246000Y-66594072D01*
X140370482Y-66581812D01*
X140490180Y-66545502D01*
X140543364Y-66517074D01*
X141665197Y-67638908D01*
X141697604Y-67678396D01*
X141737092Y-67710803D01*
X141855202Y-67807734D01*
X141913275Y-67838774D01*
X142035007Y-67903841D01*
X142230105Y-67963024D01*
X142348000Y-67974635D01*
X142348001Y-78838275D01*
X142160898Y-78760774D01*
X141960939Y-78721000D01*
X141757061Y-78721000D01*
X141557102Y-78760774D01*
X141368744Y-78838795D01*
X141199226Y-78952063D01*
X141055063Y-79096226D01*
X140941795Y-79265744D01*
X140863774Y-79454102D01*
X140824000Y-79654061D01*
X140824000Y-79857939D01*
X140863774Y-80057898D01*
X140941795Y-80246256D01*
X140974000Y-80294454D01*
X140974000Y-81182332D01*
X135634825Y-81280000D01*
X134289000Y-81280000D01*
X134289000Y-80612171D01*
X134318102Y-80624226D01*
X134518061Y-80664000D01*
X134721939Y-80664000D01*
X134921898Y-80624226D01*
X135110256Y-80546205D01*
X135279774Y-80432937D01*
X135423937Y-80288774D01*
X135537205Y-80119256D01*
X135615226Y-79930898D01*
X135655000Y-79730939D01*
X135655000Y-79527061D01*
X135615226Y-79327102D01*
X135537205Y-79138744D01*
X135505000Y-79090546D01*
X135505000Y-72156000D01*
X138007928Y-72156000D01*
X138020188Y-72280482D01*
X138056498Y-72400180D01*
X138115463Y-72510494D01*
X138194815Y-72607185D01*
X138291506Y-72686537D01*
X138401820Y-72745502D01*
X138521518Y-72781812D01*
X138646000Y-72794072D01*
X139160250Y-72791000D01*
X139319000Y-72632250D01*
X139319000Y-70283000D01*
X139573000Y-70283000D01*
X139573000Y-72632250D01*
X139731750Y-72791000D01*
X140246000Y-72794072D01*
X140370482Y-72781812D01*
X140490180Y-72745502D01*
X140600494Y-72686537D01*
X140697185Y-72607185D01*
X140776537Y-72510494D01*
X140835502Y-72400180D01*
X140871812Y-72280482D01*
X140884072Y-72156000D01*
X140881000Y-70441750D01*
X140722250Y-70283000D01*
X139573000Y-70283000D01*
X139319000Y-70283000D01*
X138169750Y-70283000D01*
X138011000Y-70441750D01*
X138007928Y-72156000D01*
X135505000Y-72156000D01*
X135505000Y-68156000D01*
X138007928Y-68156000D01*
X138011000Y-69870250D01*
X138169750Y-70029000D01*
X139319000Y-70029000D01*
X139319000Y-67679750D01*
X139573000Y-67679750D01*
X139573000Y-70029000D01*
X140722250Y-70029000D01*
X140881000Y-69870250D01*
X140884072Y-68156000D01*
X140871812Y-68031518D01*
X140835502Y-67911820D01*
X140776537Y-67801506D01*
X140697185Y-67704815D01*
X140600494Y-67625463D01*
X140490180Y-67566498D01*
X140370482Y-67530188D01*
X140246000Y-67517928D01*
X139731750Y-67521000D01*
X139573000Y-67679750D01*
X139319000Y-67679750D01*
X139160250Y-67521000D01*
X138646000Y-67517928D01*
X138521518Y-67530188D01*
X138401820Y-67566498D01*
X138291506Y-67625463D01*
X138194815Y-67704815D01*
X138115463Y-67801506D01*
X138056498Y-67911820D01*
X138020188Y-68031518D01*
X138007928Y-68156000D01*
X135505000Y-68156000D01*
X135505000Y-55777000D01*
X135656928Y-55777000D01*
X135656928Y-58777000D01*
X135669188Y-58901482D01*
X135705498Y-59021180D01*
X135764463Y-59131494D01*
X135843815Y-59228185D01*
X135940506Y-59307537D01*
X136050820Y-59366502D01*
X136170518Y-59402812D01*
X136295000Y-59415072D01*
X139295000Y-59415072D01*
X139419482Y-59402812D01*
X139539180Y-59366502D01*
X139649494Y-59307537D01*
X139746185Y-59228185D01*
X139825537Y-59131494D01*
X139884502Y-59021180D01*
X139920812Y-58901482D01*
X139933072Y-58777000D01*
X139933072Y-55777000D01*
X139920812Y-55652518D01*
X139884502Y-55532820D01*
X139825537Y-55422506D01*
X139746185Y-55325815D01*
X139649494Y-55246463D01*
X139539180Y-55187498D01*
X139419482Y-55151188D01*
X139295000Y-55138928D01*
X136295000Y-55138928D01*
X136170518Y-55151188D01*
X136050820Y-55187498D01*
X135940506Y-55246463D01*
X135843815Y-55325815D01*
X135764463Y-55422506D01*
X135705498Y-55532820D01*
X135669188Y-55652518D01*
X135656928Y-55777000D01*
X135505000Y-55777000D01*
X135505000Y-54699000D01*
X143105928Y-54699000D01*
X143105928Y-56299000D01*
X143118188Y-56423482D01*
X143154498Y-56543180D01*
X143213463Y-56653494D01*
X143292815Y-56750185D01*
X143389506Y-56829537D01*
X143499820Y-56888502D01*
X143619518Y-56924812D01*
X143744000Y-56937072D01*
X144859001Y-56937072D01*
X144859001Y-57977531D01*
X144800774Y-58118102D01*
X144761000Y-58318061D01*
X144761000Y-58521939D01*
X144800774Y-58721898D01*
X144878795Y-58910256D01*
X144911000Y-58958455D01*
X144911001Y-61258521D01*
X144906719Y-61302000D01*
X144923805Y-61475490D01*
X144974412Y-61642313D01*
X145056590Y-61796059D01*
X145139468Y-61897046D01*
X145139471Y-61897049D01*
X145167184Y-61930817D01*
X145200951Y-61958529D01*
X145323928Y-62081506D01*
X145323928Y-62818000D01*
X145336188Y-62942482D01*
X145372498Y-63062180D01*
X145431463Y-63172494D01*
X145510815Y-63269185D01*
X145607506Y-63348537D01*
X145717820Y-63407502D01*
X145837518Y-63443812D01*
X145962000Y-63456072D01*
X147712000Y-63456072D01*
X147836482Y-63443812D01*
X147956180Y-63407502D01*
X148066494Y-63348537D01*
X148163185Y-63269185D01*
X148242537Y-63172494D01*
X148301502Y-63062180D01*
X148307320Y-63043000D01*
X151623928Y-63043000D01*
X151623928Y-66243000D01*
X151636188Y-66367482D01*
X151672498Y-66487180D01*
X151731463Y-66597494D01*
X151810815Y-66694185D01*
X151907506Y-66773537D01*
X152017820Y-66832502D01*
X152137518Y-66868812D01*
X152262000Y-66881072D01*
X154012000Y-66881072D01*
X154136482Y-66868812D01*
X154256180Y-66832502D01*
X154366494Y-66773537D01*
X154463185Y-66694185D01*
X154542537Y-66597494D01*
X154601502Y-66487180D01*
X154637812Y-66367482D01*
X154650072Y-66243000D01*
X154650072Y-63043000D01*
X154637812Y-62918518D01*
X154601502Y-62798820D01*
X154542537Y-62688506D01*
X154463185Y-62591815D01*
X154366494Y-62512463D01*
X154256180Y-62453498D01*
X154136482Y-62417188D01*
X154012000Y-62404928D01*
X152262000Y-62404928D01*
X152137518Y-62417188D01*
X152017820Y-62453498D01*
X151907506Y-62512463D01*
X151810815Y-62591815D01*
X151731463Y-62688506D01*
X151672498Y-62798820D01*
X151636188Y-62918518D01*
X151623928Y-63043000D01*
X148307320Y-63043000D01*
X148337812Y-62942482D01*
X148350072Y-62818000D01*
X148350072Y-61868000D01*
X148337812Y-61743518D01*
X148301502Y-61623820D01*
X148242537Y-61513506D01*
X148163185Y-61416815D01*
X148066494Y-61337463D01*
X147956180Y-61278498D01*
X147836482Y-61242188D01*
X147712000Y-61229928D01*
X146975507Y-61229928D01*
X146681000Y-60935422D01*
X146681000Y-58958454D01*
X146713205Y-58910256D01*
X146791226Y-58721898D01*
X146831000Y-58521939D01*
X146831000Y-58318061D01*
X146791226Y-58118102D01*
X146713205Y-57929744D01*
X146629000Y-57803722D01*
X146629000Y-56937072D01*
X147744000Y-56937072D01*
X147868482Y-56924812D01*
X147988180Y-56888502D01*
X148098494Y-56829537D01*
X148195185Y-56750185D01*
X148274537Y-56653494D01*
X148333502Y-56543180D01*
X148369812Y-56423482D01*
X148382072Y-56299000D01*
X149305928Y-56299000D01*
X149318188Y-56423482D01*
X149354498Y-56543180D01*
X149413463Y-56653494D01*
X149492815Y-56750185D01*
X149589506Y-56829537D01*
X149699820Y-56888502D01*
X149819518Y-56924812D01*
X149944000Y-56937072D01*
X151658250Y-56934000D01*
X151817000Y-56775250D01*
X151817000Y-55626000D01*
X152071000Y-55626000D01*
X152071000Y-56775250D01*
X152229750Y-56934000D01*
X153944000Y-56937072D01*
X154068482Y-56924812D01*
X154188180Y-56888502D01*
X154298494Y-56829537D01*
X154395185Y-56750185D01*
X154474537Y-56653494D01*
X154533502Y-56543180D01*
X154569812Y-56423482D01*
X154582072Y-56299000D01*
X154579000Y-55784750D01*
X154420250Y-55626000D01*
X152071000Y-55626000D01*
X151817000Y-55626000D01*
X149467750Y-55626000D01*
X149309000Y-55784750D01*
X149305928Y-56299000D01*
X148382072Y-56299000D01*
X148382072Y-54699000D01*
X149305928Y-54699000D01*
X149309000Y-55213250D01*
X149467750Y-55372000D01*
X151817000Y-55372000D01*
X151817000Y-54222750D01*
X152071000Y-54222750D01*
X152071000Y-55372000D01*
X154420250Y-55372000D01*
X154579000Y-55213250D01*
X154582072Y-54699000D01*
X154569812Y-54574518D01*
X154533502Y-54454820D01*
X154474537Y-54344506D01*
X154395185Y-54247815D01*
X154298494Y-54168463D01*
X154188180Y-54109498D01*
X154068482Y-54073188D01*
X153944000Y-54060928D01*
X152229750Y-54064000D01*
X152071000Y-54222750D01*
X151817000Y-54222750D01*
X151658250Y-54064000D01*
X149944000Y-54060928D01*
X149819518Y-54073188D01*
X149699820Y-54109498D01*
X149589506Y-54168463D01*
X149492815Y-54247815D01*
X149413463Y-54344506D01*
X149354498Y-54454820D01*
X149318188Y-54574518D01*
X149305928Y-54699000D01*
X148382072Y-54699000D01*
X148369812Y-54574518D01*
X148333502Y-54454820D01*
X148274537Y-54344506D01*
X148195185Y-54247815D01*
X148098494Y-54168463D01*
X147988180Y-54109498D01*
X147868482Y-54073188D01*
X147744000Y-54060928D01*
X146173000Y-54060928D01*
X146173000Y-50957454D01*
X146205205Y-50909256D01*
X146283226Y-50720898D01*
X146323000Y-50520939D01*
X146323000Y-50317061D01*
X146283226Y-50117102D01*
X146205205Y-49928744D01*
X146091937Y-49759226D01*
X145947774Y-49615063D01*
X145778256Y-49501795D01*
X145589898Y-49423774D01*
X145389939Y-49384000D01*
X145186061Y-49384000D01*
X144986102Y-49423774D01*
X144797744Y-49501795D01*
X144628226Y-49615063D01*
X144484063Y-49759226D01*
X144370795Y-49928744D01*
X144292774Y-50117102D01*
X144253000Y-50317061D01*
X144253000Y-50520939D01*
X144292774Y-50720898D01*
X144370795Y-50909256D01*
X144403000Y-50957455D01*
X144403001Y-54060928D01*
X143744000Y-54060928D01*
X143619518Y-54073188D01*
X143499820Y-54109498D01*
X143389506Y-54168463D01*
X143292815Y-54247815D01*
X143213463Y-54344506D01*
X143154498Y-54454820D01*
X143118188Y-54574518D01*
X143105928Y-54699000D01*
X135505000Y-54699000D01*
X135505000Y-53688653D01*
X136482952Y-53688653D01*
X136638962Y-54004214D01*
X137013745Y-54195020D01*
X137418551Y-54309044D01*
X137837824Y-54341902D01*
X138255451Y-54292334D01*
X138655383Y-54162243D01*
X138951038Y-54004214D01*
X139107048Y-53688653D01*
X137795000Y-52376605D01*
X136482952Y-53688653D01*
X135505000Y-53688653D01*
X135505000Y-52239824D01*
X135650098Y-52239824D01*
X135699666Y-52657451D01*
X135829757Y-53057383D01*
X135987786Y-53353038D01*
X136303347Y-53509048D01*
X137615395Y-52197000D01*
X137974605Y-52197000D01*
X139286653Y-53509048D01*
X139602214Y-53353038D01*
X139793020Y-52978255D01*
X139907044Y-52573449D01*
X139939902Y-52154176D01*
X139890334Y-51736549D01*
X139760243Y-51336617D01*
X139602214Y-51040962D01*
X139286653Y-50884952D01*
X137974605Y-52197000D01*
X137615395Y-52197000D01*
X136303347Y-50884952D01*
X135987786Y-51040962D01*
X135796980Y-51415745D01*
X135682956Y-51820551D01*
X135650098Y-52239824D01*
X135505000Y-52239824D01*
X135505000Y-50705347D01*
X136482952Y-50705347D01*
X137795000Y-52017395D01*
X139107048Y-50705347D01*
X138951038Y-50389786D01*
X138576255Y-50198980D01*
X138171449Y-50084956D01*
X137752176Y-50052098D01*
X137334549Y-50101666D01*
X136934617Y-50231757D01*
X136638962Y-50389786D01*
X136482952Y-50705347D01*
X135505000Y-50705347D01*
X135505000Y-46520866D01*
X135561450Y-46605349D01*
X135893651Y-46937550D01*
X136284279Y-47198560D01*
X136718321Y-47378346D01*
X137179098Y-47470000D01*
X137648902Y-47470000D01*
X138109679Y-47378346D01*
X138543721Y-47198560D01*
X138934349Y-46937550D01*
X139032899Y-46839000D01*
X144546928Y-46839000D01*
X144559188Y-46963482D01*
X144595498Y-47083180D01*
X144654463Y-47193494D01*
X144733815Y-47290185D01*
X144830506Y-47369537D01*
X144940820Y-47428502D01*
X145060518Y-47464812D01*
X145185000Y-47477072D01*
X146399250Y-47474000D01*
X146558000Y-47315250D01*
X146558000Y-45466000D01*
X146812000Y-45466000D01*
X146812000Y-47315250D01*
X146970750Y-47474000D01*
X148185000Y-47477072D01*
X148309482Y-47464812D01*
X148429180Y-47428502D01*
X148539494Y-47369537D01*
X148636185Y-47290185D01*
X148715537Y-47193494D01*
X148774502Y-47083180D01*
X148810812Y-46963482D01*
X148823072Y-46839000D01*
X148820000Y-45624750D01*
X148661250Y-45466000D01*
X146812000Y-45466000D01*
X146558000Y-45466000D01*
X144708750Y-45466000D01*
X144550000Y-45624750D01*
X144546928Y-46839000D01*
X139032899Y-46839000D01*
X139266550Y-46605349D01*
X139527560Y-46214721D01*
X139707346Y-45780679D01*
X139799000Y-45319902D01*
X139799000Y-44850098D01*
X139707346Y-44389321D01*
X139527560Y-43955279D01*
X139449865Y-43839000D01*
X144546928Y-43839000D01*
X144550000Y-45053250D01*
X144708750Y-45212000D01*
X146558000Y-45212000D01*
X146558000Y-43362750D01*
X146812000Y-43362750D01*
X146812000Y-45212000D01*
X148661250Y-45212000D01*
X148744529Y-45128721D01*
X149630000Y-45128721D01*
X149630000Y-45549279D01*
X149712047Y-45961756D01*
X149872988Y-46350302D01*
X150106637Y-46699983D01*
X150404017Y-46997363D01*
X150753698Y-47231012D01*
X150880000Y-47283328D01*
X150880001Y-49880544D01*
X150847795Y-49928744D01*
X150769774Y-50117102D01*
X150730000Y-50317061D01*
X150730000Y-50520939D01*
X150769774Y-50720898D01*
X150847795Y-50909256D01*
X150961063Y-51078774D01*
X151105226Y-51222937D01*
X151274744Y-51336205D01*
X151463102Y-51414226D01*
X151663061Y-51454000D01*
X151866939Y-51454000D01*
X152066898Y-51414226D01*
X152255256Y-51336205D01*
X152424774Y-51222937D01*
X152568937Y-51078774D01*
X152682205Y-50909256D01*
X152760226Y-50720898D01*
X152800000Y-50520939D01*
X152800000Y-50317061D01*
X152760226Y-50117102D01*
X152757292Y-50110017D01*
X156713090Y-50110017D01*
X156754078Y-50382133D01*
X156847364Y-50641023D01*
X156909344Y-50756980D01*
X157149435Y-50823960D01*
X157935395Y-50038000D01*
X158294605Y-50038000D01*
X159080565Y-50823960D01*
X159320656Y-50756980D01*
X159437756Y-50507952D01*
X159504023Y-50240865D01*
X159516910Y-49965983D01*
X159475922Y-49693867D01*
X159382636Y-49434977D01*
X159320656Y-49319020D01*
X159080565Y-49252040D01*
X158294605Y-50038000D01*
X157935395Y-50038000D01*
X157149435Y-49252040D01*
X156909344Y-49319020D01*
X156792244Y-49568048D01*
X156725977Y-49835135D01*
X156713090Y-50110017D01*
X152757292Y-50110017D01*
X152682205Y-49928744D01*
X152650000Y-49880546D01*
X152650000Y-47283328D01*
X152776302Y-47231012D01*
X153125983Y-46997363D01*
X153423363Y-46699983D01*
X153657012Y-46350302D01*
X153817953Y-45961756D01*
X153900000Y-45549279D01*
X153900000Y-45128721D01*
X153817953Y-44716244D01*
X153770657Y-44602061D01*
X154667000Y-44602061D01*
X154667000Y-44805939D01*
X154706774Y-45005898D01*
X154784795Y-45194256D01*
X154817001Y-45242456D01*
X154817000Y-47975545D01*
X154784795Y-48023744D01*
X154706774Y-48212102D01*
X154667000Y-48412061D01*
X154667000Y-48615939D01*
X154706774Y-48815898D01*
X154784795Y-49004256D01*
X154898063Y-49173774D01*
X155042226Y-49317937D01*
X155211744Y-49431205D01*
X155400102Y-49509226D01*
X155600061Y-49549000D01*
X155803939Y-49549000D01*
X156003898Y-49509226D01*
X156192256Y-49431205D01*
X156361774Y-49317937D01*
X156505937Y-49173774D01*
X156619205Y-49004256D01*
X156697226Y-48815898D01*
X156737000Y-48615939D01*
X156737000Y-48412061D01*
X156697226Y-48212102D01*
X156619205Y-48023744D01*
X156587000Y-47975546D01*
X156587000Y-47360408D01*
X156718000Y-47360408D01*
X156718000Y-47635592D01*
X156771686Y-47905490D01*
X156876995Y-48159727D01*
X157029880Y-48388535D01*
X157224465Y-48583120D01*
X157453273Y-48736005D01*
X157524943Y-48765692D01*
X157511977Y-48770364D01*
X157396020Y-48832344D01*
X157329040Y-49072435D01*
X158115000Y-49858395D01*
X158900960Y-49072435D01*
X158833980Y-48832344D01*
X158698240Y-48768515D01*
X158776727Y-48736005D01*
X159005535Y-48583120D01*
X159200120Y-48388535D01*
X159353005Y-48159727D01*
X159458314Y-47905490D01*
X159512000Y-47635592D01*
X159512000Y-47360408D01*
X159458314Y-47090510D01*
X159353005Y-46836273D01*
X159200120Y-46607465D01*
X159005535Y-46412880D01*
X158776727Y-46259995D01*
X158522490Y-46154686D01*
X158252592Y-46101000D01*
X157977408Y-46101000D01*
X157707510Y-46154686D01*
X157453273Y-46259995D01*
X157224465Y-46412880D01*
X157029880Y-46607465D01*
X156876995Y-46836273D01*
X156771686Y-47090510D01*
X156718000Y-47360408D01*
X156587000Y-47360408D01*
X156587000Y-45242454D01*
X156619205Y-45194256D01*
X156697226Y-45005898D01*
X156737000Y-44805939D01*
X156737000Y-44602061D01*
X168383000Y-44602061D01*
X168383000Y-44805939D01*
X168422774Y-45005898D01*
X168500795Y-45194256D01*
X168533000Y-45242454D01*
X168533001Y-51979426D01*
X168510000Y-52095061D01*
X168510000Y-52298939D01*
X168549774Y-52498898D01*
X168627795Y-52687256D01*
X168741063Y-52856774D01*
X168885226Y-53000937D01*
X169054744Y-53114205D01*
X169243102Y-53192226D01*
X169443061Y-53232000D01*
X169646939Y-53232000D01*
X169846898Y-53192226D01*
X170035256Y-53114205D01*
X170204774Y-53000937D01*
X170348937Y-52856774D01*
X170462205Y-52687256D01*
X170540226Y-52498898D01*
X170580000Y-52298939D01*
X170580000Y-52095061D01*
X170540226Y-51895102D01*
X170462205Y-51706744D01*
X170348937Y-51537226D01*
X170303000Y-51491289D01*
X170303000Y-45242454D01*
X170335205Y-45194256D01*
X170413226Y-45005898D01*
X170453000Y-44805939D01*
X170453000Y-44602061D01*
X170413226Y-44402102D01*
X170335205Y-44213744D01*
X170221937Y-44044226D01*
X170077774Y-43900063D01*
X169908256Y-43786795D01*
X169719898Y-43708774D01*
X169519939Y-43669000D01*
X169316061Y-43669000D01*
X169116102Y-43708774D01*
X168927744Y-43786795D01*
X168758226Y-43900063D01*
X168614063Y-44044226D01*
X168500795Y-44213744D01*
X168422774Y-44402102D01*
X168383000Y-44602061D01*
X156737000Y-44602061D01*
X156697226Y-44402102D01*
X156619205Y-44213744D01*
X156505937Y-44044226D01*
X156361774Y-43900063D01*
X156192256Y-43786795D01*
X156003898Y-43708774D01*
X155803939Y-43669000D01*
X155600061Y-43669000D01*
X155400102Y-43708774D01*
X155211744Y-43786795D01*
X155042226Y-43900063D01*
X154898063Y-44044226D01*
X154784795Y-44213744D01*
X154706774Y-44402102D01*
X154667000Y-44602061D01*
X153770657Y-44602061D01*
X153657012Y-44327698D01*
X153423363Y-43978017D01*
X153125983Y-43680637D01*
X152776302Y-43446988D01*
X152387756Y-43286047D01*
X151975279Y-43204000D01*
X151554721Y-43204000D01*
X151142244Y-43286047D01*
X150753698Y-43446988D01*
X150404017Y-43680637D01*
X150106637Y-43978017D01*
X149872988Y-44327698D01*
X149712047Y-44716244D01*
X149630000Y-45128721D01*
X148744529Y-45128721D01*
X148820000Y-45053250D01*
X148823072Y-43839000D01*
X148810812Y-43714518D01*
X148774502Y-43594820D01*
X148715537Y-43484506D01*
X148636185Y-43387815D01*
X148539494Y-43308463D01*
X148429180Y-43249498D01*
X148309482Y-43213188D01*
X148185000Y-43200928D01*
X146970750Y-43204000D01*
X146812000Y-43362750D01*
X146558000Y-43362750D01*
X146399250Y-43204000D01*
X145185000Y-43200928D01*
X145060518Y-43213188D01*
X144940820Y-43249498D01*
X144830506Y-43308463D01*
X144733815Y-43387815D01*
X144654463Y-43484506D01*
X144595498Y-43594820D01*
X144559188Y-43714518D01*
X144546928Y-43839000D01*
X139449865Y-43839000D01*
X139266550Y-43564651D01*
X138934349Y-43232450D01*
X138543721Y-42971440D01*
X138109679Y-42791654D01*
X137648902Y-42700000D01*
X137179098Y-42700000D01*
X136718321Y-42791654D01*
X136284279Y-42971440D01*
X135893651Y-43232450D01*
X135561450Y-43564651D01*
X135505000Y-43649134D01*
X135505000Y-42956454D01*
X135537205Y-42908256D01*
X135615226Y-42719898D01*
X135655000Y-42519939D01*
X135655000Y-42316061D01*
X135615226Y-42116102D01*
X135550566Y-41960000D01*
X177959829Y-41960000D01*
X177947774Y-41989102D01*
G37*
%TD.AperFunction*%
%TD*%
M02*
