M48
; DRILL file {KiCad (5.1.12)-1} date 12/15/21 12:49:04
; FORMAT={-:-/ absolute / inch / decimal}
; #@! TF.CreationDate,2021-12-15T12:49:04+01:00
; #@! TF.GenerationSoftware,Kicad,Pcbnew,(5.1.12)-1
; #@! TF.FileFunction,Plated,1,2,PTH
FMAT,2
INCH
T1C0.0157
T2C0.0300
T3C0.0598
%
G90
G05
T1
X5.3Y-1.67
X5.3Y-3.135
X5.435Y-3.545
X5.475Y-3.375
X5.485Y-3.59
X5.585Y-3.14
X5.64Y-3.145
X5.645Y-2.635
X5.685Y-3.285
X5.69Y-3.9
X5.72Y-1.985
X5.74Y-2.3
X5.845Y-2.635
X5.855Y-2.71
X5.855Y-2.87
X5.975Y-1.985
X6.01Y-3.895
X6.01Y-4.195
X6.05Y-3.02
X6.05Y-3.22
X6.105Y-3.18
X6.11Y-3.605
X6.13Y-1.76
X6.13Y-1.91
X6.14Y-2.82
X6.15Y-3.545
X6.155Y-3.095
X6.22Y-3.235
X6.22Y-3.375
X6.31Y-2.025
X6.31Y-3.045
X6.345Y-3.6
X6.35Y-3.415
X6.355Y-2.57
X6.355Y-3.095
X6.36Y-3.745
X6.42Y-2.475
X6.42Y-3.175
X6.48Y-2.675
X6.48Y-3.235
X6.485Y-3.515
X6.49Y-3.32
X6.535Y-3.09
X6.535Y-3.335
X6.545Y-1.875
X6.545Y-2.145
X6.545Y-2.755
X6.545Y-3.815
X6.55Y-2.83
X6.55Y-2.885
X6.55Y-2.97
X6.55Y-3.945
X6.59Y-3.62
X6.59Y-3.815
X6.65Y-2.57
X6.65Y-3.27
X6.665Y-3.68
X6.665Y-4.155
X6.67Y-1.76
X6.675Y-2.055
X6.7Y-3.2
X6.7Y-3.275
X6.745Y-3.985
X6.76Y-4.2
X6.77Y-2.745
X6.77Y-2.905
X6.8Y-3.86
X6.805Y-3.495
X6.85Y-2.48
X6.85Y-3.575
X6.85Y-3.685
X6.855Y-4.04
X6.92Y-2.905
X6.965Y-3.42
X6.995Y-2.905
X6.995Y-3.2
X7.02Y-3.42
X7.045Y-1.665
X7.045Y-2.07
X7.05Y-3.045
X7.05Y-3.095
X7.05Y-3.24
X7.145Y-3.24
X7.15Y-3.555
X7.15Y-3.635
X7.15Y-3.76
X7.15Y-3.945
T2
X5.38Y-4.02
X5.38Y-4.26
X5.48Y-4.02
X5.48Y-4.26
X5.58Y-4.02
X5.58Y-4.26
X5.68Y-4.02
X5.68Y-4.26
X6.225Y-1.87
X6.225Y-1.97
X6.225Y-2.07
X6.225Y-2.17
X6.225Y-2.27
X6.225Y-2.37
X6.225Y-2.47
X6.225Y-2.57
X6.225Y-2.67
X6.225Y-2.77
X6.225Y-2.87
X6.225Y-2.97
X7.145Y-1.87
X7.145Y-1.97
X7.145Y-2.07
X7.145Y-2.17
X7.145Y-2.27
X7.145Y-2.37
X7.145Y-2.47
X7.145Y-2.57
X7.145Y-2.67
X7.145Y-2.77
X7.145Y-2.87
X7.145Y-2.97
T3
X5.425Y-2.055
X5.425Y-2.255
X5.775Y-1.785
X5.975Y-1.785
T0
M30
